<?xml version="1.0" standalone="no"?>
<!DOCTYPE svg PUBLIC "-//W3C//DTD SVG 20010904//EN"
 "http://www.w3.org/TR/2001/REC-SVG-20010904/DTD/svg10.dtd">
<svg version="1.0" xmlns="http://www.w3.org/2000/svg"
 width="500.000000pt" height="710.000000pt" viewBox="0 0 500.000000 710.000000"
 preserveAspectRatio="xMidYMid meet">

<g transform="translate(0.000000,710.000000) scale(0.100000,-0.100000)"
fill="#000000" stroke="none">
<path d="M988 6713 c-141 -3 -158 -5 -160 -21 -2 -32 3 -67 14 -80 6 -7 24
-38 39 -70 24 -46 28 -65 23 -102 -4 -34 2 -69 25 -144 17 -54 31 -106 31
-115 0 -9 9 -40 20 -69 11 -29 20 -63 20 -77 0 -13 4 -26 9 -30 5 -3 19 -36
32 -73 12 -37 26 -72 31 -79 5 -7 7 -16 5 -20 -3 -5 3 -26 13 -48 11 -22 19
-48 20 -57 0 -9 4 -19 9 -22 4 -3 14 -32 20 -65 7 -33 16 -63 21 -66 6 -4 10
-19 10 -35 0 -16 9 -52 20 -80 11 -28 20 -64 20 -80 0 -16 5 -32 10 -35 6 -3
10 -16 10 -28 0 -24 41 -130 53 -135 4 -2 7 -11 7 -20 0 -9 7 -26 15 -36 8
-11 15 -30 15 -43 0 -13 5 -23 12 -23 6 0 9 -3 5 -6 -3 -3 3 -21 14 -40 10
-19 19 -43 19 -54 0 -16 36 -89 70 -140 6 -8 15 -27 21 -42 6 -16 15 -28 20
-28 5 0 9 -7 9 -15 0 -8 4 -15 8 -15 5 0 17 -18 27 -40 15 -33 16 -45 7 -66
-7 -14 -12 -37 -11 -52 0 -27 0 -27 10 -3 5 13 18 36 30 52 18 26 19 28 2 22
-16 -6 -17 -5 -3 11 15 20 37 30 88 41 40 8 43 -9 5 -23 l-28 -10 28 -1 c29
-1 31 -8 21 -60 -5 -26 -13 -33 -48 -42 -92 -24 -115 -34 -119 -51 -7 -24 2
-23 29 3 22 20 80 39 119 38 13 0 8 -5 -15 -14 -29 -11 -31 -14 -11 -14 20 -1
21 -3 11 -16 -10 -12 -10 -18 0 -29 6 -8 10 -25 8 -38 -2 -19 -12 -25 -60 -34
-31 -6 -65 -14 -74 -18 -11 -4 -15 -2 -11 8 3 8 0 22 -7 32 -15 20 -11 27 -36
-67 -19 -74 1 -108 90 -153 40 -20 79 -36 86 -36 28 0 155 -53 144 -60 -7 -4
28 -13 76 -20 158 -21 160 -23 93 -90 l-41 -41 6 -62 c8 -71 -18 -212 -36
-201 -6 4 -9 1 -7 -5 3 -7 9 -12 14 -11 21 2 28 -74 25 -286 -2 -156 1 -223 9
-228 6 -4 11 -35 11 -73 0 -64 24 -178 41 -198 5 -5 9 -20 10 -35 0 -23 1 -23
9 -5 14 32 11 9 -7 -62 -13 -53 -14 -70 -4 -85 9 -14 10 -40 5 -86 -8 -83 -17
-106 -54 -149 -17 -19 -30 -44 -30 -58 0 -16 -16 -38 -49 -67 -27 -24 -59 -63
-71 -88 -13 -25 -51 -85 -86 -133 -49 -69 -65 -101 -74 -145 -6 -31 -16 -76
-22 -99 -10 -40 -8 -46 23 -100 19 -31 55 -76 80 -101 l46 -44 -17 -35 c-9
-20 -15 -50 -13 -67 5 -42 -6 -85 -17 -67 -4 8 -13 11 -18 7 -16 -9 -2 -38 14
-32 8 3 14 -1 14 -10 0 -10 -8 -14 -27 -12 -23 2 -28 -1 -27 -19 1 -35 -30
-11 -56 43 -16 33 -24 71 -28 136 -3 65 -9 91 -19 95 -28 11 -45 -23 -55 -108
-11 -101 0 -169 43 -264 28 -63 29 -66 12 -92 -9 -14 -18 -33 -19 -41 -2 -8
-8 -18 -15 -22 -6 -5 -9 -15 -6 -24 3 -8 2 -18 -3 -21 -6 -4 -10 -18 -10 -33
0 -15 -7 -47 -16 -72 -9 -25 -18 -56 -21 -70 -2 -13 -10 -28 -16 -32 -7 -4 -8
-8 -3 -8 5 0 3 -6 -3 -14 -11 -14 -23 -63 -22 -98 0 -10 -4 -18 -9 -18 -10 0
-21 -26 -26 -64 -2 -16 -8 -34 -14 -40 -5 -5 -10 -22 -10 -36 0 -14 -7 -35
-15 -46 -8 -10 -14 -26 -15 -34 0 -13 1 -13 10 0 8 13 10 12 10 -2 0 -11 -7
-18 -18 -18 -25 0 -34 -11 -21 -26 12 -15 -4 -54 -23 -54 -6 0 -9 -3 -5 -6 3
-4 0 -22 -8 -41 -8 -19 -10 -31 -4 -27 14 8 -9 -36 -28 -55 -12 -11 -12 -16
-1 -23 9 -7 6 -8 -10 -5 -21 5 -23 2 -18 -16 5 -21 -9 -47 -26 -47 -5 0 -7 3
-5 8 3 4 -1 13 -9 20 -11 10 -15 8 -24 -9 -9 -16 -14 -18 -26 -9 -9 8 -11 18
-5 28 5 9 5 26 1 38 -5 12 -6 25 -2 28 3 4 7 36 8 72 1 36 -2 62 -6 57 -13
-13 -80 -371 -80 -425 0 -17 34 -18 574 -18 627 0 586 -4 586 56 0 14 12 82
26 152 23 112 25 141 19 247 -6 124 -2 155 21 155 7 0 44 -16 82 -36 65 -34
73 -36 173 -36 74 -1 129 5 192 21 49 11 96 21 104 21 22 0 76 -58 93 -100 27
-70 84 -176 126 -238 44 -64 77 -141 89 -205 l7 -37 445 0 c409 0 445 1 462
18 20 20 61 105 61 127 0 36 -38 85 -65 85 -2 0 -12 -16 -21 -35 -9 -19 -21
-35 -26 -35 -5 0 -32 22 -59 50 -43 44 -49 55 -49 92 0 27 -8 56 -22 78 -16
26 -22 52 -22 101 -1 83 15 116 64 129 33 9 37 15 49 60 7 27 17 52 22 56 5 3
9 13 9 23 0 10 9 26 20 36 11 10 17 22 14 26 -7 12 20 39 38 39 8 0 18 -3 24
-7 5 -5 -3 4 -18 19 -15 15 -24 29 -20 32 4 2 18 -6 31 -20 13 -13 27 -24 32
-24 13 0 11 37 -2 45 -6 4 -8 14 -5 22 3 8 1 11 -4 8 -6 -3 -10 -13 -10 -22 0
-28 -12 -6 -20 36 -4 22 -3 38 1 35 5 -3 9 2 9 11 0 9 -4 14 -9 11 -4 -3 -5
13 -1 37 5 23 6 45 4 49 -3 5 2 18 10 30 9 12 16 29 16 38 0 8 7 28 16 45 8
16 16 42 17 56 1 15 5 25 10 22 12 -7 8 12 -5 25 -9 9 -8 12 5 12 9 0 17 6 17
13 0 7 6 19 12 25 7 7 11 29 9 49 -2 22 2 39 11 44 7 5 14 19 15 31 1 13 4 55
7 93 3 39 7 81 10 95 11 58 25 101 35 114 6 7 8 15 6 18 -3 3 0 18 6 34 6 16
13 47 15 69 2 22 8 60 14 85 6 25 12 59 14 75 8 85 18 263 19 335 0 44 4 83 8
85 3 3 4 25 1 50 -2 25 0 50 5 57 6 7 9 20 8 29 -4 22 -19 575 -17 619 3 80 0
277 -4 305 -3 17 -7 73 -9 125 -1 52 -10 126 -19 165 -9 38 -19 119 -22 180
-6 120 -20 191 -39 203 -7 4 -18 27 -23 52 -9 39 -10 34 -5 -40 4 -70 0 -102
-21 -182 -14 -53 -28 -138 -32 -189 -6 -83 -8 -89 -20 -68 -7 13 -19 39 -25
58 -12 37 -35 67 -89 121 -20 19 -48 62 -64 95 -16 33 -41 85 -56 115 -15 30
-39 87 -53 125 -14 39 -39 106 -57 150 -36 90 -34 83 -45 150 -4 28 -23 94
-42 148 -19 54 -32 101 -29 104 12 12 36 -8 36 -31 0 -26 21 -48 28 -28 15 47
47 -42 39 -112 l-6 -51 24 45 c16 30 24 62 25 97 0 28 5 55 11 58 15 10 37
-23 46 -68 4 -21 13 -37 18 -35 16 5 6 49 -22 101 -16 29 -23 51 -17 57 5 5
42 10 82 11 39 1 72 5 72 10 0 4 3 14 6 23 5 13 1 14 -28 6 -18 -6 -46 -10
-62 -10 -16 0 -44 -5 -61 -11 -37 -14 -99 -4 -74 12 10 6 6 9 -16 9 -16 0 -43
7 -59 15 -16 8 -47 18 -70 21 -72 10 -90 23 -161 116 -38 51 -91 115 -117 143
-48 52 -78 108 -78 144 0 10 -16 43 -37 72 -48 72 -103 196 -103 237 0 19 -8
40 -20 52 -29 29 -25 47 20 93 52 51 52 82 0 82 -44 0 -60 10 -59 38 0 21 1
21 10 -3 8 -20 12 -22 19 -10 13 20 13 33 0 25 -5 -3 -10 -2 -10 3 0 13 44 52
81 70 44 22 51 57 14 66 -14 4 -23 11 -20 16 5 9 -27 139 -40 160 -4 6 -11 7
-17 4 -8 -5 -9 3 -5 23 4 23 1 35 -13 48 -10 9 -28 41 -40 70 -19 46 -31 60
-83 93 -34 22 -95 54 -136 72 -74 32 -77 32 -265 36 -166 4 -197 7 -235 25
-49 23 -199 32 -261 16 -27 -8 -87 -2 -255 23 -199 31 -243 34 -455 35 -129 1
-306 0 -392 -2z m1059 -99 c-3 -3 -12 -4 -19 -1 -8 3 -5 6 6 6 11 1 17 -2 13
-5z m1000 -346 c-3 -7 -5 -2 -5 12 0 14 2 19 5 13 2 -7 2 -19 0 -25z m-43
-114 c3 -8 2 -12 -4 -9 -6 3 -10 10 -10 16 0 14 7 11 14 -7z m-13 -24 c5 0 9
-4 9 -9 0 -5 -8 -7 -18 -4 -12 3 -23 -4 -30 -19 -9 -16 -11 -17 -6 -3 3 11 7
26 7 33 0 7 7 10 14 7 8 -3 19 -5 24 -5z m25 -322 c-3 -23 26 -92 44 -103 17
-11 11 -22 -15 -27 -13 -3 -24 -2 -23 1 2 21 -5 31 -22 31 -11 0 -20 -5 -20
-11 0 -5 -4 -7 -10 -4 -5 3 -10 11 -10 16 0 6 4 8 9 4 6 -3 9 3 8 14 -1 17 31
101 39 101 2 0 2 -10 0 -22z m-849 -10 c-3 -8 -6 -5 -6 6 -1 11 2 17 5 13 3
-3 4 -12 1 -19z m10 -40 c-3 -8 -6 -5 -6 6 -1 11 2 17 5 13 3 -3 4 -12 1 -19z
m-624 -3 c-3 -9 -8 -14 -10 -11 -3 3 -2 9 2 15 9 16 15 13 8 -4z m26 -17 c-7
-12 -14 -25 -14 -28 -1 -3 -7 -22 -14 -43 -7 -22 -10 -53 -7 -70 4 -23 3 -28
-4 -17 -23 36 -6 129 33 178 16 20 20 6 6 -20z m1384 -69 c4 -16 3 -18 -9 -8
-7 6 -11 15 -8 20 8 13 11 11 17 -12z m-792 -174 l-11 -40 5 40 c3 22 6 74 7
115 l2 75 3 -75 c2 -41 -1 -93 -6 -115z m-525 80 c8 -19 12 -35 9 -35 -7 0
-45 77 -45 92 1 16 15 -8 36 -57z m920 14 c3 -5 15 -9 28 -9 46 0 60 -40 24
-71 -45 -37 -74 -16 -88 62 -6 32 -5 36 12 31 10 -2 21 -8 24 -13z m-409 -161
c-3 -8 -6 -5 -6 6 -1 11 2 17 5 13 3 -3 4 -12 1 -19z m728 -16 c-8 -9 -25 20
-18 31 3 5 10 2 15 -7 6 -10 7 -20 3 -24z m-140 7 c11 -17 -1 -21 -15 -4 -8 9
-8 15 -2 15 6 0 14 -5 17 -11z m101 -97 c5 -25 3 -32 -9 -32 -9 0 -34 -26 -55
-57 -51 -75 -69 -90 -120 -101 l-43 -10 23 28 c13 15 58 67 101 115 42 48 77
92 77 98 0 22 20 -9 26 -41z m-1112 -261 c20 -38 36 -111 25 -111 -5 0 -11 -1
-15 -2 -6 -3 -54 111 -54 130 0 23 29 12 44 -17z m41 -181 c-3 -5 -12 -10 -18
-10 -7 0 -6 4 3 10 19 12 23 12 15 0z m21 -35 c-21 -16 -32 -13 -21 4 3 6 14
11 23 11 15 -1 15 -2 -2 -15z m702 -61 c-4 -3 -12 5 -18 18 -12 22 -12 22 6 6
10 -10 15 -20 12 -24z m-84 -31 c4 -9 0 -23 -9 -32 -15 -15 -18 -14 -30 3 -11
14 -12 23 -4 33 16 18 36 16 43 -4z m-711 -33 c3 -12 0 -20 -8 -20 -8 0 -11 8
-8 20 3 11 7 20 8 20 1 0 5 -9 8 -20z m383 -11 c10 -8 8 -49 -2 -49 -1 0 -19
9 -38 21 -42 24 -40 55 3 44 14 -4 31 -11 37 -16z m91 -81 c-3 -7 -5 -2 -5 12
0 14 2 19 5 13 2 -7 2 -19 0 -25z m1200 -20 c-3 -7 -5 -2 -5 12 0 14 2 19 5
13 2 -7 2 -19 0 -25z m-1213 -19 c-3 -5 1 -6 9 -3 8 3 27 -7 43 -22 16 -14 20
-21 9 -13 -11 7 -4 -3 16 -22 27 -26 35 -41 33 -64 -1 -16 -3 -40 -3 -52 -1
-31 -11 -29 -78 15 -32 20 -78 46 -101 56 -42 19 -42 19 -38 65 3 25 5 50 5
55 1 5 15 6 31 2 19 -3 29 -2 25 4 -3 5 7 5 25 -1 16 -6 27 -15 24 -20z m-29
-146 c51 -26 94 -63 110 -94 15 -28 15 -29 -2 -20 -10 5 -38 19 -63 30 -25 11
-70 43 -100 71 l-55 50 40 -11 c22 -6 54 -18 70 -26z m0 -77 c58 -27 105 -77
105 -112 0 -24 -14 -32 -25 -14 -3 5 -41 28 -84 50 -103 53 -116 64 -108 84 9
23 53 20 112 -8z m1421 -108 c-2 -22 10 -54 36 -101 74 -131 124 -298 142
-477 3 -30 -4 -8 -15 50 -32 168 -93 348 -146 434 -40 62 -65 126 -47 119 8
-3 14 0 14 7 0 6 4 9 9 6 5 -3 8 -20 7 -38z m-590 -309 c-4 -29 -14 -66 -22
-83 -8 -17 -12 -23 -9 -13 2 10 10 47 17 82 14 77 23 86 14 14z m-764 -41 c-8
-8 -9 -4 -5 13 4 13 8 18 11 10 2 -7 -1 -18 -6 -23z m-25 -100 c-3 -8 -6 -5
-6 6 -1 11 2 17 5 13 3 -3 4 -12 1 -19z m1102 -172 c1 -42 -5 -29 -12 24 -4
30 -3 38 3 25 5 -11 9 -33 9 -49z m-1312 -53 c-3 -10 -5 -2 -5 17 0 19 2 27 5
18 2 -10 2 -26 0 -35z m1320 -35 c-2 -13 -4 -5 -4 17 -1 22 1 32 4 23 2 -10 2
-28 0 -40z m10 -80 c-3 -7 -5 -2 -5 12 0 14 2 19 5 13 2 -7 2 -19 0 -25z m460
-50 c-3 -8 -6 -5 -6 6 -1 11 2 17 5 13 3 -3 4 -12 1 -19z m-240 -95 c-3 -10
-5 -2 -5 17 0 19 2 27 5 18 2 -10 2 -26 0 -35z m-110 -300 c-3 -10 -5 -2 -5
17 0 19 2 27 5 18 2 -10 2 -26 0 -35z m-1450 -15 c-3 -7 -5 -2 -5 12 0 14 2
19 5 13 2 -7 2 -19 0 -25z m-777 -2858 c0 -34 -25 -16 -27 19 -2 34 -1 35 13
17 8 -11 14 -27 14 -36z m-46 -4 c-3 -9 -10 -13 -15 -10 -5 3 -3 11 4 19 15
16 19 13 11 -9z"/>
<path d="M3230 6003 c0 -23 4 -44 9 -47 15 -9 19 53 5 72 -12 15 -13 12 -14
-25z"/>
<path d="M3215 5929 c-11 -16 -1 -19 13 -3 7 8 8 14 3 14 -5 0 -13 -5 -16 -11z"/>
<path d="M4110 4853 c-14 -9 -27 -18 -29 -20 -7 -5 31 -43 44 -43 7 0 22 -9
35 -20 29 -25 46 -25 53 0 3 11 1 18 -4 14 -8 -5 -10 0 -13 39 -1 13 -39 47
-53 47 -5 0 -20 -8 -33 -17z"/>
<path d="M3974 4819 c-3 -5 3 -12 13 -16 10 -4 21 -11 25 -17 4 -6 6 -1 5 11
-1 22 -33 38 -43 22z"/>
<path d="M1161 654 c0 -11 3 -14 6 -6 3 7 2 16 -1 19 -3 4 -6 -2 -5 -13z"/>
<path d="M1140 560 c-7 -18 -5 -49 3 -41 5 5 7 17 4 27 -3 11 -6 17 -7 14z"/>
<path d="M4220 139 c-9 -20 -7 -36 10 -82 20 -54 23 -57 55 -57 l34 0 -30 68
c-17 37 -36 73 -44 81 -12 12 -16 11 -25 -10z"/>
<path d="M4106 77 c-30 -74 -30 -77 3 -77 25 0 32 5 37 28 3 15 7 33 10 40 5
19 -6 42 -22 42 -8 0 -20 -15 -28 -33z"/>
</g>
</svg>
