<?xml version="1.0" standalone="no"?>
<!DOCTYPE svg PUBLIC "-//W3C//DTD SVG 20010904//EN"
 "http://www.w3.org/TR/2001/REC-SVG-20010904/DTD/svg10.dtd">
<svg version="1.0" xmlns="http://www.w3.org/2000/svg"
 width="433.000000pt" height="1256.000000pt" viewBox="0 0 433.000000 1256.000000"
 preserveAspectRatio="xMidYMid meet">

<g transform="translate(0.000000,1256.000000) scale(0.100000,-0.100000)"
fill="#000000" stroke="none">
<path d="M2208 12515 c-4 -4 -220 -17 -280 -16 -22 0 -34 -19 -18 -29 8 -5 7
-9 -5 -13 -9 -4 -13 -3 -10 3 3 6 2 10 -4 10 -6 0 -8 7 -5 15 4 10 0 15 -11
15 -9 0 -13 -4 -10 -10 11 -17 -7 -11 -21 8 -12 15 -13 10 -14 -37 0 -48 2
-52 16 -40 18 15 275 14 284 -1 3 -5 17 -13 30 -19 24 -9 24 -10 -7 -10 -17
-1 -34 -5 -37 -10 -3 -4 8 -7 24 -5 17 2 30 -1 30 -6 0 -6 -62 -10 -159 -10
-144 0 -160 2 -164 18 -4 13 -5 13 -6 -4 -2 -39 -26 -83 -39 -75 -10 6 -10 18
-4 48 9 38 8 42 -15 52 -13 6 -30 8 -36 4 -7 -4 -21 -9 -32 -10 -15 -3 -17 -1
-8 8 6 6 9 17 6 24 -2 8 5 16 18 20 31 10 49 30 49 52 0 15 -2 16 -10 3 -5 -8
-10 -10 -10 -4 0 7 -32 2 -87 -16 l-88 -27 -2 -38 c-3 -42 -23 -75 -23 -37 0
40 -21 23 -51 -43 -36 -77 -37 -121 -1 -62 13 20 28 37 33 37 6 0 21 12 34 26
30 33 45 24 45 -26 0 -34 -4 -42 -31 -56 -43 -22 -117 -92 -136 -127 -8 -16
-22 -53 -30 -81 -18 -61 -57 -131 -78 -139 -8 -4 -12 -13 -9 -20 3 -8 -2 -17
-10 -20 -17 -7 -22 -37 -7 -37 17 0 28 -79 24 -176 -3 -84 -7 -101 -24 -113
-10 -7 -19 -20 -19 -28 0 -8 -4 -12 -9 -9 -14 9 -49 -37 -49 -64 0 -14 -3 -73
-6 -131 l-6 -107 34 -26 c43 -33 70 -33 84 -1 6 13 23 27 37 31 37 9 42 -2 8
-20 -51 -26 -58 -41 -34 -75 17 -23 31 -31 71 -36 47 -7 50 -8 50 -37 0 -29 1
-30 38 -25 20 3 47 8 60 12 55 18 12 -22 -108 -101 -72 -46 -133 -91 -136 -99
-4 -8 -11 -12 -18 -8 -6 3 -6 1 2 -8 6 -7 12 -18 12 -24 0 -6 -43 -33 -95 -59
-52 -27 -100 -55 -106 -63 -7 -8 -12 -32 -11 -54 2 -41 -18 -70 -73 -107 -11
-7 -4 -4 16 6 l35 19 -1 -21 c-1 -13 -9 -22 -22 -24 -12 -2 -29 -12 -39 -23
-16 -18 -16 -19 5 -19 12 0 29 7 37 15 18 17 34 20 34 5 0 -5 -6 -10 -14 -10
-10 0 -13 -9 -11 -30 3 -23 0 -30 -13 -30 -13 0 -14 2 -4 9 10 6 10 10 -2 20
-24 20 -59 9 -67 -19 -5 -22 -7 -23 -14 -7 -7 17 -9 17 -34 1 -36 -23 -76 -64
-76 -77 -2 -32 -19 -67 -35 -72 -19 -6 -35 -34 -25 -43 3 -3 5 0 5 6 0 6 9 16
21 22 18 10 19 10 10 -7 -6 -12 -6 -25 0 -34 5 -7 7 -25 4 -39 -2 -14 -6 -41
-7 -60 -3 -30 0 -35 20 -36 12 -1 22 3 22 7 0 5 5 9 11 9 6 0 8 -7 5 -16 -3
-8 -2 -12 4 -9 6 3 10 -2 10 -13 0 -15 -5 -18 -25 -14 -27 5 -35 -15 -10 -24
8 -4 15 -12 15 -20 0 -7 -6 -11 -14 -8 -12 5 -14 -5 -11 -52 2 -31 8 -60 13
-63 5 -3 7 -22 5 -42 -4 -33 -7 -35 -34 -31 -20 3 -31 11 -35 26 -6 27 12 79
26 71 6 -3 10 5 10 19 0 29 -10 38 -30 25 -10 -6 -11 -9 -2 -9 6 0 12 -4 12
-8 0 -5 -7 -9 -15 -9 -8 0 -15 9 -15 19 0 21 -8 22 -34 3 -10 -8 -16 -21 -13
-29 4 -10 1 -13 -9 -9 -7 3 -15 14 -15 24 -3 38 -5 44 -16 42 -13 -3 2 53 18
71 5 6 9 19 9 29 0 17 -4 15 -22 -9 -12 -16 -31 -35 -40 -42 -10 -7 -30 -37
-44 -65 -38 -74 -41 -154 -9 -247 17 -51 23 -84 19 -110 -6 -33 -1 -42 58
-114 70 -87 128 -171 128 -187 0 -20 49 -81 79 -100 25 -15 31 -25 31 -52 0
-30 3 -34 28 -35 15 0 39 -2 53 -5 30 -6 58 6 40 17 -20 12 -13 28 8 17 22
-12 51 -109 51 -169 0 -23 3 -42 8 -42 4 1 34 6 67 13 82 17 94 16 112 -14 25
-42 12 -56 -57 -64 -37 -4 -69 -14 -79 -24 -18 -18 -51 -34 -51 -25 0 2 7 16
16 29 11 17 14 34 9 52 -5 21 -9 24 -14 13 -11 -28 -63 -90 -71 -85 -4 2 -10
32 -13 65 -11 99 -16 112 -43 106 -16 -4 -26 -1 -33 11 -14 24 -13 16 3 -64
21 -98 65 -211 90 -231 33 -26 35 -31 51 -158 9 -66 18 -134 21 -151 6 -31 4
-33 -21 -33 -26 0 -27 -2 -22 -40 6 -50 47 -105 84 -115 15 -3 31 -11 35 -17
15 -25 261 81 289 123 3 5 20 11 38 13 32 3 33 2 27 -25 -6 -33 0 -36 32 -13
37 26 32 12 -9 -27 -21 -19 -40 -31 -41 -27 -2 5 -41 -15 -88 -43 -104 -64
-167 -96 -204 -103 -23 -4 -26 -3 -16 9 10 12 0 13 -62 8 -92 -7 -100 -13 -20
-13 l62 0 -1 -32 c-2 -29 -2 -30 -6 -7 -4 26 -5 27 -70 23 -82 -4 -117 16
-134 79 -41 152 -27 -9 17 -193 l35 -145 51 -48 c50 -45 52 -49 41 -77 -6 -17
-8 -28 -3 -25 4 3 10 -2 14 -10 3 -8 1 -17 -4 -20 -6 -4 -10 0 -10 7 0 8 -5 6
-11 -5 -5 -9 -7 -22 -4 -27 4 -6 3 -10 -2 -9 -4 1 -15 1 -22 0 -12 -1 -12 -4
-3 -13 18 -18 15 -103 -3 -118 -13 -11 -14 -10 -9 4 4 11 1 16 -10 16 -10 0
-16 -9 -16 -25 0 -27 -7 -29 -92 -25 -62 2 -83 -11 -104 -67 -10 -27 -26 -56
-36 -66 -10 -10 -18 -24 -18 -32 0 -14 -20 -20 -44 -16 -5 1 -4 -4 2 -12 9
-10 7 -17 -8 -30 -11 -9 -20 -24 -20 -32 0 -13 -2 -14 -14 -3 -9 8 -10 15 -4
19 11 7 2 29 -11 29 -5 0 -13 -17 -19 -37 -5 -21 -28 -96 -51 -168 -40 -126
-73 -240 -112 -395 -11 -41 -24 -112 -29 -157 -8 -72 -6 -91 11 -142 19 -55
20 -71 11 -193 -7 -89 -7 -135 0 -139 7 -4 6 -9 -1 -13 -6 -4 -9 -28 -5 -64 7
-83 33 -306 44 -382 5 -36 10 -68 10 -72 0 -5 12 -8 28 -9 15 0 36 -4 47 -8
17 -7 10 -13 -42 -40 l-63 -31 0 -46 c0 -25 -4 -43 -8 -40 -5 3 -7 20 -5 38
l3 33 -15 -30 c-8 -16 -14 -38 -15 -48 0 -10 -5 -27 -10 -38 -7 -13 -7 -19 0
-19 5 0 10 -5 10 -11 0 -5 -4 -8 -9 -5 -10 6 -26 -147 -17 -162 3 -5 10 -37
16 -73 5 -35 32 -123 58 -195 39 -104 62 -150 112 -219 64 -89 93 -110 166
-122 41 -7 48 6 35 70 -22 116 -22 113 3 125 22 10 25 6 55 -57 28 -56 31 -72
24 -101 -7 -28 -15 -36 -36 -38 l-27 -3 0 -90 c0 -64 3 -89 13 -89 8 0 7 -3
-3 -10 -13 -8 -13 -15 0 -57 15 -53 16 -67 5 -169 -6 -65 -4 -78 25 -152 17
-45 38 -85 46 -90 10 -6 22 -69 41 -224 l27 -216 -44 -58 c-43 -55 -45 -60
-45 -123 1 -51 7 -80 29 -128 27 -59 31 -63 62 -63 42 0 64 -9 64 -25 0 -7 12
-22 26 -32 23 -17 26 -28 29 -87 5 -79 -4 -82 -14 -4 -6 53 -6 53 -44 56 -30
3 -40 9 -53 35 -9 18 -18 34 -20 36 -1 2 -17 -7 -33 -19 -17 -11 -40 -22 -50
-23 -11 0 -17 -5 -15 -9 3 -4 -17 -21 -43 -37 -51 -32 -56 -45 -38 -119 l8
-33 26 25 c53 51 77 23 30 -35 -30 -38 -32 -39 -50 -23 -18 16 -19 15 -28 -7
-7 -20 -4 -29 19 -50 15 -14 35 -40 44 -57 15 -30 15 -32 -6 -46 -27 -19 -28
-18 -63 67 -15 37 -30 67 -32 67 -17 0 -104 -54 -126 -79 -15 -17 -32 -31 -38
-31 -7 0 -7 -6 2 -16 12 -15 11 -16 -9 -10 -16 5 -22 3 -22 -7 0 -18 -27 -42
-32 -28 -5 16 -21 1 -72 -72 -44 -61 -47 -71 -37 -93 22 -48 15 -59 -48 -78
-32 -10 -69 -29 -82 -42 -17 -18 -25 -21 -31 -12 -5 8 -6 2 -2 -15 4 -17 2
-27 -5 -27 -6 0 -12 10 -13 23 -1 12 -2 29 -4 37 -1 8 -2 20 -3 25 -1 6 -6 3
-11 -5 -5 -8 -7 -24 -4 -35 5 -24 -2 -35 -36 -54 -23 -13 -24 -13 -11 3 8 9
11 20 7 23 -9 10 -66 -52 -66 -71 0 -9 -6 -13 -15 -10 -14 6 -16 0 -30 -68 -4
-25 11 -22 29 4 9 12 19 18 23 14 8 -8 -40 -48 -53 -46 -4 1 -10 -4 -15 -12
-5 -7 -14 -13 -21 -13 -7 0 -14 -8 -16 -17 -2 -13 1 -16 12 -12 22 8 20 -13
-1 -25 -16 -9 -16 -12 0 -64 10 -31 25 -65 35 -76 23 -29 129 -47 370 -62 146
-9 192 -15 192 -25 0 -18 50 -26 155 -22 85 3 90 4 93 25 3 21 9 23 61 23 l58
0 15 52 15 53 91 31 92 32 49 -44 c41 -37 57 -45 105 -50 47 -6 58 -11 69 -33
11 -21 19 -26 47 -24 188 13 414 35 440 44 25 9 38 24 61 72 21 45 25 63 17
68 -7 5 -18 3 -24 -2 -8 -7 -14 -6 -19 1 -5 9 14 15 38 11 12 -2 8 11 -8 23
-8 6 -17 32 -19 57 -3 25 -6 52 -8 60 -2 8 2 13 8 12 6 -1 11 11 12 28 0 19
-4 29 -14 29 -8 0 -13 4 -9 9 3 5 1 12 -5 16 -5 3 -10 23 -10 43 0 44 -21 87
-41 86 -8 0 -42 -4 -76 -8 -53 -6 -63 -5 -63 8 0 9 12 18 28 22 15 3 45 12 67
19 22 7 47 15 55 17 13 3 14 17 6 96 -9 97 -26 126 -26 43 0 -28 -4 -53 -10
-56 -6 -3 -7 1 -4 9 3 9 1 16 -6 16 -6 0 -8 5 -5 10 4 6 1 17 -5 25 -7 8 -9
22 -6 31 5 13 2 15 -16 10 -13 -4 -41 -9 -63 -12 l-40 -5 51 19 c55 21 104 50
104 62 0 17 -44 44 -90 54 -28 6 -52 16 -53 21 -1 6 29 14 67 19 l68 9 -6 68
-7 68 50 26 c47 23 68 55 39 55 -8 1 -6 6 5 14 19 15 22 43 7 66 -7 11 -8 5
-4 -20 l5 -35 -16 28 c-9 15 -25 27 -38 28 -18 1 -19 2 -4 6 18 5 18 6 1 24
-13 15 -15 24 -7 42 10 25 6 57 -8 57 -5 0 -7 10 -5 23 3 12 5 22 6 22 1 0 2
32 3 72 1 39 5 75 9 79 5 4 8 19 8 33 0 34 61 231 72 231 4 0 8 -7 8 -15 0 -8
7 -15 16 -15 10 0 14 -6 11 -14 -9 -22 36 -180 91 -326 47 -123 56 -162 102
-427 58 -340 62 -417 26 -516 l-24 -67 19 -76 c25 -100 86 -214 115 -214 25 0
34 -17 34 -67 0 -40 11 -38 -103 -17 l-33 6 -33 -84 c-18 -45 -46 -97 -62
-114 -29 -30 -30 -33 -19 -71 9 -31 10 -53 1 -93 -14 -63 -14 -62 73 -114 39
-23 67 -34 79 -30 19 6 19 5 1 -25 -13 -21 -26 -31 -43 -31 -30 0 -89 38 -97
64 -9 28 -23 7 -49 -75 -19 -63 -27 -75 -48 -79 -39 -8 -93 -86 -105 -151 -6
-30 -21 -83 -34 -119 -19 -55 -27 -65 -48 -68 -78 -8 -96 -20 -149 -100 -42
-65 -51 -86 -51 -124 0 -30 -7 -54 -20 -71 -25 -31 -29 -117 -6 -117 27 0 27
-18 1 -79 -27 -65 -32 -132 -12 -170 18 -38 64 -59 193 -92 152 -38 292 -53
421 -46 90 5 123 13 279 65 l177 60 56 -20 c70 -24 109 -20 200 22 l71 33 0
42 c0 49 -8 60 -29 41 -22 -19 -126 -56 -157 -56 -42 0 -22 21 36 40 105 33
110 37 110 91 0 64 -13 94 -47 107 -30 12 -50 12 -71 -2 -21 -13 -65 14 -51
30 7 9 7 19 0 33 -8 14 -8 21 2 24 6 3 2 6 -10 6 -30 1 -40 21 -11 21 13 0 29
4 37 9 18 11 43 3 34 -12 -4 -6 -1 -7 7 -2 9 5 21 -1 35 -19 27 -34 56 -29 82
15 9 16 21 29 26 29 4 0 5 -5 2 -10 -4 -6 10 -33 31 -60 33 -43 44 -50 83 -56
54 -8 44 -18 174 184 l88 137 -6 80 c-4 44 -10 121 -16 172 -5 51 -9 115 -9
143 0 32 -4 49 -10 45 -6 -3 -10 -15 -10 -26 0 -36 -20 -19 -22 19 -2 57 -4
74 -12 120 -8 42 -9 43 -23 23 -8 -12 -18 -21 -22 -21 -15 0 -20 54 -6 65 17
13 29 55 16 55 -5 0 -12 -9 -16 -19 -11 -37 -29 -41 -55 -13 -14 14 -20 23
-13 19 6 -4 14 -3 18 3 4 6 10 8 14 6 3 -3 7 4 7 15 0 10 -5 19 -10 19 -5 0
-1 10 10 22 17 19 17 21 2 15 -20 -7 -24 3 -7 20 9 9 -5 17 -52 31 -62 19 -64
21 -65 55 -1 19 -4 77 -8 129 l-7 95 68 -23 c119 -41 146 -27 127 64 -4 20 -6
41 -5 46 1 4 -3 22 -8 40 -9 26 -13 57 -20 144 -1 7 -6 10 -11 7 -5 -3 -10 -1
-10 4 0 6 5 11 10 11 6 0 10 28 10 65 0 36 -4 65 -10 65 -5 0 -7 7 -3 16 3 9
0 20 -8 25 -12 7 -12 9 0 9 11 0 12 17 8 87 -3 49 -11 89 -18 93 -8 5 -8 9 0
11 7 3 12 72 14 204 4 193 5 205 40 337 21 75 37 139 37 142 0 3 -11 0 -25 -6
-14 -6 -28 -8 -33 -4 -9 10 26 36 49 36 32 0 49 99 49 288 0 108 -4 172 -10
172 -5 0 -10 -9 -10 -20 0 -11 -7 -23 -15 -26 -9 -4 -15 -19 -15 -39 0 -19 -5
-37 -10 -40 -6 -4 -10 6 -10 22 0 22 -2 25 -10 13 -5 -8 -10 -12 -10 -8 0 12
-128 -29 -147 -47 -17 -18 -18 -18 -23 10 -3 16 -8 28 -12 27 -5 -1 -14 -2
-22 -2 -10 0 -16 -14 -19 -42 l-4 -43 -1 46 -2 45 -127 14 c-71 8 -131 15
-135 16 -5 1 -13 2 -20 3 -6 0 -9 3 -7 6 3 2 63 -2 133 -11 110 -12 131 -13
145 -1 9 8 22 12 29 10 7 -3 10 1 6 10 -4 11 8 15 56 20 34 3 75 14 96 26 19
12 49 21 66 21 28 0 30 2 23 28 -11 46 -94 190 -113 196 -30 10 -106 -18 -118
-43 l-12 -22 -21 30 c-13 17 -27 31 -33 31 -6 0 6 -18 26 -40 28 -32 35 -46
31 -68 -3 -18 -1 -16 7 8 7 19 17 38 22 42 22 15 63 8 83 -14 27 -31 40 -53
24 -43 -9 5 -8 -1 2 -21 8 -16 17 -41 21 -57 6 -23 3 -29 -21 -38 -14 -5 -47
-12 -72 -14 -45 -5 -45 -4 14 12 38 11 53 19 40 21 -11 2 -24 9 -28 16 -6 7
-7 4 -3 -6 3 -10 1 -18 -4 -18 -6 0 -10 7 -10 15 0 8 -8 15 -17 15 -22 1 -48
19 -56 40 -3 8 -6 -1 -7 -20 -2 -50 -9 -83 -20 -94 -27 -27 -198 9 -186 40 3
8 -2 11 -18 8 -14 -2 -30 4 -40 15 -17 18 -17 20 2 39 11 11 18 23 14 26 -3 3
8 6 24 7 26 1 27 2 6 7 -13 4 -23 10 -23 15 2 20 0 20 -16 -3 -10 -14 -17 -28
-15 -33 1 -4 -3 -7 -9 -7 -6 0 -8 9 -4 21 5 16 4 19 -5 14 -10 -6 -12 3 -8 38
3 27 1 48 -5 50 -13 4 10 192 28 227 7 14 16 36 20 50 7 22 6 23 -8 11 -9 -7
-15 -17 -12 -21 3 -4 -2 -13 -9 -19 -18 -15 -34 5 -17 22 6 6 11 20 11 32 0
12 6 27 12 33 10 10 10 15 -1 21 -7 5 -11 14 -7 20 4 5 -2 16 -14 23 -24 15
-27 38 -5 38 13 0 14 2 3 14 -7 8 -17 12 -21 9 -4 -3 -14 1 -22 7 -8 6 -23 9
-35 5 -14 -4 -20 -2 -20 8 0 10 11 14 40 12 33 -2 38 0 29 11 -6 8 -15 12 -19
9 -5 -3 -20 -1 -35 5 -19 7 -24 7 -19 -2 5 -8 2 -9 -10 -5 -14 6 -17 3 -12 -8
8 -20 14 -42 9 -32 -3 4 -11 7 -19 7 -11 0 -11 -6 -3 -27 10 -28 6 -53 -10
-53 -15 0 -22 32 -10 46 6 7 8 18 4 24 -4 6 -1 18 6 26 10 13 10 17 -2 25 -23
15 8 28 58 25 52 -3 79 10 40 19 -15 4 -27 14 -27 22 0 10 6 13 16 9 10 -4 14
-1 12 6 -3 7 -17 14 -31 16 -15 2 -27 10 -27 17 0 18 17 28 25 16 3 -6 12 -8
20 -5 8 4 12 10 9 15 -3 5 -9 7 -14 4 -4 -3 -13 2 -20 10 -7 8 -16 12 -21 9
-5 -3 -9 1 -9 9 0 10 9 12 33 9 26 -4 30 -2 20 9 -20 21 -16 42 7 36 24 -6 25
1 6 28 -7 11 -15 25 -16 30 -1 6 -6 9 -10 8 -4 -1 -10 18 -12 42 -2 25 0 45 4
45 5 0 6 19 5 43 -7 74 13 210 40 279 l26 67 28 -14 c15 -8 34 -15 41 -14 17
0 78 93 78 119 0 11 9 62 19 113 11 50 22 110 26 132 3 22 8 52 11 68 4 17 1
27 -6 27 -7 0 -10 -7 -6 -15 3 -8 1 -15 -4 -15 -13 0 -13 27 0 35 15 9 12 25
-5 25 -8 0 -15 7 -15 16 0 8 5 12 11 8 8 -4 9 1 4 15 -4 12 -2 27 3 34 10 13
13 117 3 117 -8 0 -6 223 2 237 4 6 26 16 51 23 28 8 46 19 49 31 3 12 18 22
37 25 44 9 61 47 53 115 l-6 54 -11 -33 c-6 -18 -18 -37 -25 -41 -8 -5 -11
-16 -8 -25 5 -14 3 -15 -13 -6 -30 16 -31 25 -6 74 13 25 20 49 15 52 -4 2 -6
11 -3 18 3 7 -1 18 -9 25 -12 9 -18 7 -30 -12 -11 -16 -12 -28 -6 -34 7 -7 3
-10 -13 -8 -20 2 -23 -1 -22 -34 1 -59 -4 -66 -41 -66 -52 0 -60 15 -40 68 18
47 60 93 70 77 10 -17 20 -11 38 20 10 17 23 30 29 30 5 0 23 11 40 25 16 14
37 25 46 25 12 0 13 3 4 12 -17 17 -16 51 2 45 15 -6 19 8 31 128 4 33 11 79
17 103 9 37 14 42 40 42 17 0 31 6 35 16 3 8 15 19 27 24 15 6 26 23 35 61 8
30 24 77 37 104 13 28 73 160 133 295 129 288 162 352 200 382 41 34 99 145
107 206 5 37 3 52 -5 52 -7 0 -10 4 -7 8 3 5 -4 19 -16 32 l-21 22 -12 -23
c-12 -21 -13 -22 -17 -3 -2 11 5 28 19 41 18 17 21 28 16 58 -6 36 -5 37 16
24 11 -8 21 -21 21 -29 0 -9 19 -35 43 -58 36 -35 49 -42 82 -42 l40 0 64
-121 c35 -66 70 -123 78 -126 25 -10 87 15 117 46 27 29 28 51 2 51 -7 0 -21
9 -31 20 -10 11 -15 20 -11 20 4 0 -2 13 -13 29 -12 16 -21 33 -21 37 0 4 -7
15 -16 25 -8 9 -17 23 -18 31 -6 29 -26 64 -50 86 -28 25 -67 124 -41 102 9
-7 25 -30 37 -51 12 -22 27 -38 32 -36 17 5 57 90 50 107 -5 13 -44 166 -44
174 0 2 17 6 38 10 46 7 96 37 118 71 15 23 15 28 3 36 -8 5 -22 6 -31 3 -10
-3 -18 -1 -18 5 0 6 9 11 20 11 13 0 18 5 14 15 -4 9 -19 15 -35 15 -23 0 -33
7 -46 34 -11 24 -21 33 -32 28 -14 -5 -14 -4 -1 14 8 10 20 22 25 26 6 5 3 8
-6 8 -9 0 -24 18 -35 40 -10 22 -22 40 -26 40 -5 0 -8 5 -8 10 0 6 6 10 14 8
8 -2 23 7 34 20 19 21 19 26 6 75 -25 95 -46 228 -41 256 8 36 -12 74 -43 81
-21 5 -25 12 -25 40 0 46 -13 80 -30 80 -7 0 -15 7 -19 15 -3 8 -14 15 -26 15
-24 0 -70 84 -70 128 0 32 -13 48 -45 54 -11 2 -20 10 -21 18 -2 33 -7 33 -13
0 -4 -26 0 -46 15 -75 15 -28 19 -47 14 -65 -5 -14 -8 -18 -9 -9 -1 9 -8 19
-16 23 -8 3 -15 17 -15 31 0 14 -4 25 -10 25 -5 0 -10 -4 -10 -10 0 -5 -8 -10
-19 -10 -10 0 -35 -14 -57 -30 -21 -17 -55 -41 -76 -52 -21 -12 -38 -24 -38
-28 0 -10 49 -10 55 0 3 6 12 10 20 10 9 0 17 -24 25 -72 6 -40 19 -98 30
-128 22 -63 64 -280 56 -287 -9 -9 -23 39 -47 158 -12 63 -31 129 -41 147 -11
17 -15 32 -9 32 6 0 11 6 11 13 0 8 -21 12 -69 12 -74 0 -93 8 -71 28 10 10
11 9 5 -2 -5 -9 -4 -12 3 -7 11 7 2 45 -17 71 -10 14 -24 62 -72 260 -23 94
-68 255 -100 359 -35 111 -57 197 -53 209 3 11 2 17 -3 14 -5 -3 -9 11 -10 31
l-1 37 18 -40 c10 -22 19 -45 19 -52 1 -18 20 -26 34 -14 10 8 17 -10 31 -77
10 -48 22 -100 27 -116 15 -49 8 -64 -8 -18 -23 67 -24 45 -1 -38 25 -94 40
-129 32 -79 l-6 36 54 -8 c101 -14 99 -15 139 54 39 66 64 140 34 103 -8 -11
-15 -23 -15 -27 0 -5 -26 7 -57 24 -32 18 -72 39 -90 46 -28 11 -32 18 -35 54
-5 65 7 117 31 133 11 8 21 22 21 31 0 14 -3 14 -20 -2 -23 -21 -39 -13 -20 9
10 13 9 19 -5 32 -15 15 -17 15 -30 -2 -8 -11 -15 -24 -15 -30 0 -6 -7 -17
-15 -24 -8 -7 -13 -16 -10 -20 3 -5 0 -12 -6 -15 -5 -4 -8 -13 -5 -21 3 -7 2
-16 -3 -18 -4 -3 -23 26 -41 65 -24 49 -36 65 -42 55 -4 -8 -32 -17 -60 -21
-29 -4 -82 -15 -117 -26 -78 -23 -109 -25 -92 -5 9 11 9 15 -1 19 -31 13 56
48 175 70 70 13 78 13 88 -2 8 -13 9 -11 5 9 -3 14 -6 30 -6 35 0 6 -4 4 -9
-3 -4 -7 -26 -15 -47 -16 -21 -2 -57 -6 -79 -10 -31 -5 -34 -4 -15 3 14 5 42
12 63 16 38 6 52 24 20 26 -10 0 -13 3 -7 5 8 3 5 22 -9 59 -16 43 -24 55 -41
54 l-21 0 21 -9 c19 -7 39 -58 29 -69 -6 -5 -96 -23 -125 -25 -21 -1 -25 5
-30 34 -7 42 -18 62 -30 55 -5 -3 -11 -1 -15 4 -3 6 -13 7 -22 4 -12 -5 -14
-3 -8 7 6 10 4 12 -8 7 -19 -7 -23 3 -7 19 6 6 6 22 0 44 -12 42 -13 60 -2 60
4 0 9 -13 10 -30 6 -79 36 -103 111 -88 25 5 56 10 68 10 24 1 21 24 -6 45
-20 15 -7 17 20 3 12 -7 19 -7 19 -1 0 5 -8 12 -19 16 -11 3 -21 19 -25 37 -9
46 13 57 115 58 74 0 88 3 105 21 35 39 51 42 118 19 112 -37 236 -136 313
-250 27 -41 32 -57 41 -165 25 -274 25 -332 -2 -434 -14 -51 -21 -90 -16 -85
5 5 26 59 48 119 31 88 41 131 46 210 8 124 14 199 21 295 9 117 7 223 -4 375
-20 261 -21 265 -45 266 -18 0 -19 1 -3 7 27 11 47 58 45 108 -1 24 -6 44 -10
44 -4 0 -8 7 -8 15 0 8 -8 31 -17 50 -17 35 -19 36 -68 34 -27 -1 -62 -6 -78
-10 -16 -5 -25 -4 -22 2 4 5 15 9 27 9 13 0 18 5 15 14 -3 8 0 19 7 25 18 15
29 1 14 -17 -10 -12 -9 -14 7 -10 13 2 20 11 19 26 -1 25 6 28 25 10 7 -7 0
14 -17 47 -38 77 -118 185 -136 185 -10 0 -12 7 -8 22 5 19 -1 17 -44 -17
l-49 -39 40 43 c22 23 33 41 25 40 -8 -2 -35 0 -60 4 -25 3 -101 9 -170 12
l-125 6 -85 -75 c-47 -41 -88 -75 -91 -76 -3 0 -28 27 -54 60 -27 33 -68 73
-91 88 -31 21 -40 32 -33 43 17 27 10 49 -16 49 -13 0 -34 11 -47 24 -37 38
-187 138 -198 131 -6 -4 -10 6 -10 21 0 15 -7 32 -15 38 -8 6 -39 65 -69 131
-30 66 -69 137 -86 157 -41 49 -103 84 -165 92 -110 15 -115 17 -115 41 0 13
7 30 15 39 19 18 19 26 1 26 -9 0 -18 22 -27 65 -12 61 -18 73 -31 60z m-54
-174 c20 -8 20 -8 0 -13 -10 -2 -44 -2 -74 1 -30 3 -77 4 -105 1 -58 -6 -95
-1 -95 11 0 11 247 11 274 0z m46 -21 c0 -5 -5 -10 -11 -10 -5 0 -7 5 -4 10 3
6 8 10 11 10 2 0 4 -4 4 -10z m0 -270 c0 -5 6 -7 13 -4 27 10 41 -83 22 -146
-4 -14 -9 -37 -12 -52 -3 -15 -11 -33 -19 -39 -8 -6 -14 -18 -14 -26 0 -8 -5
-11 -10 -8 -6 4 -7 12 -4 18 4 7 4 9 -1 5 -4 -4 -15 -2 -23 5 -13 11 -14 9 -1
-11 8 -12 25 -26 39 -29 25 -6 25 -6 -7 -20 -24 -9 -31 -17 -26 -30 4 -11 3
-14 -5 -9 -7 4 -12 1 -12 -8 0 -9 -7 -16 -15 -16 -8 0 -15 -5 -15 -11 0 -6 -5
-7 -12 -2 -7 4 -17 8 -23 9 -5 0 -15 2 -21 2 -7 1 -14 11 -17 23 -3 12 -10 18
-17 14 -7 -4 -10 0 -8 11 2 12 -2 18 -10 16 -9 -2 -11 4 -7 18 5 14 2 20 -10
20 -9 0 -13 5 -10 10 3 6 -3 10 -14 10 -12 0 -21 4 -21 10 0 5 44 11 98 12 94
3 97 4 100 28 3 20 2 22 -11 12 -21 -18 -187 -5 -187 14 0 8 5 14 10 14 6 0
10 6 8 13 -4 22 13 87 23 87 6 0 7 5 4 10 -8 14 14 34 50 47 37 13 165 15 165
3z m-544 -120 c6 -21 8 -44 3 -51 -11 -18 -2 -29 24 -30 19 0 19 -2 -5 -11
-16 -5 -28 -14 -28 -19 0 -6 6 -7 13 -3 8 6 8 3 -1 -9 -8 -9 -11 -21 -7 -27 3
-5 2 -10 -4 -10 -5 0 -12 6 -15 13 -3 6 -3 1 0 -13 4 -14 11 -28 17 -31 5 -4
0 -10 -12 -14 -26 -8 -28 -25 -2 -20 17 3 18 0 9 -26 -5 -16 -14 -26 -19 -23
-5 3 -9 0 -9 -5 0 -6 6 -11 13 -11 7 -1 5 -6 -5 -14 -19 -14 -25 -32 -8 -21 5
3 7 0 5 -7 -3 -8 -19 -15 -36 -16 -17 -1 -33 -3 -37 -4 -22 -4 -63 17 -67 36
-21 93 -23 144 -6 204 19 69 73 136 103 128 10 -2 21 0 24 5 3 5 10 7 15 4 5
-4 9 2 9 11 0 26 13 8 26 -36z m714 -30 c0 -5 -4 -10 -10 -10 -5 0 -10 5 -10
10 0 6 5 10 10 10 6 0 10 -4 10 -10z m117 -20 c14 -11 31 -20 37 -20 7 0 19
-24 29 -54 15 -51 15 -59 0 -113 -9 -32 -17 -68 -17 -80 -1 -13 -7 -23 -14
-23 -7 0 -15 -7 -18 -15 -4 -8 -10 -13 -14 -10 -5 3 -11 1 -15 -5 -4 -6 6 -10
24 -10 35 0 42 -22 14 -40 -14 -8 -9 -9 20 -4 59 10 126 10 120 0 -3 -5 4 -16
16 -25 22 -17 28 -51 17 -96 -2 -11 -5 -28 -5 -37 -1 -15 -8 -13 -51 12 l-50
29 -14 -28 c-10 -18 -31 -34 -63 -46 -54 -21 -56 -21 -62 -4 -2 8 3 10 15 6
15 -5 14 -3 -3 9 -13 9 -23 22 -23 29 0 7 -7 15 -15 19 -8 3 -15 13 -15 21 0
9 -4 13 -10 10 -6 -4 -4 -18 6 -38 l17 -32 -22 19 c-11 11 -21 28 -21 38 0 11
-4 16 -10 13 -5 -3 -7 0 -4 9 4 10 0 14 -13 12 -20 -3 -31 -36 -12 -36 7 0 9
-3 6 -6 -10 -10 -38 17 -30 30 4 7 1 7 -7 -1 -10 -9 -10 -16 -2 -25 8 -10 4
-13 -19 -15 -16 -1 -29 2 -29 7 0 6 5 10 11 10 8 0 8 5 -1 15 -20 24 -29 17
-20 -14 6 -22 5 -31 -6 -35 -10 -4 -14 3 -14 27 0 18 -4 39 -10 47 -5 9 -5 19
1 26 7 8 6 14 -1 19 -25 16 -3 20 92 17 119 -4 182 4 155 19 -9 6 -22 7 -27 4
-6 -3 -7 1 -4 9 3 9 11 16 18 16 6 1 0 7 -13 14 -15 8 -20 16 -12 20 6 4 16 4
22 0 8 -5 8 -1 0 14 -6 11 -19 23 -28 26 -19 6 -39 43 -47 86 -6 34 -18 64
-28 71 -5 3 -4 18 2 34 11 29 9 30 -45 10 -11 -4 -5 4 14 19 19 14 43 26 52
26 9 0 20 7 23 16 3 8 10 12 16 9 5 -3 18 -1 27 4 25 15 32 14 60 -9z m-1061
-32 c-9 -12 -16 -19 -16 -15 0 11 24 47 28 42 2 -2 -3 -14 -12 -27z m874 29
c0 -2 -10 -12 -22 -23 l-23 -19 19 23 c18 21 26 27 26 19z m300 -17 c6 -11 8
-20 6 -20 -3 0 -10 9 -16 20 -6 11 -8 20 -6 20 3 0 10 -9 16 -20z m195 -91
c47 -34 87 -65 90 -69 7 -12 -28 -102 -43 -107 -16 -7 -54 26 -45 40 4 6 1 7
-6 3 -7 -5 -21 0 -31 9 -15 14 -17 22 -9 37 6 10 8 24 6 31 -3 7 -8 0 -12 -15
-8 -32 -17 -35 -36 -11 -12 14 -15 12 -21 -23 -14 -77 -9 -106 20 -137 l27
-29 -25 4 c-14 2 -24 9 -22 16 2 10 -26 17 -51 13 -5 -1 -6 3 -2 9 3 5 12 10
20 10 11 0 14 22 14 104 0 58 5 113 10 123 5 10 12 26 15 36 3 9 8 17 10 17 3
0 44 -27 91 -61z m-146 -52 c0 -51 2 -99 5 -107 10 -24 -17 -55 -38 -43 -15 8
-16 11 -2 22 8 7 12 19 9 27 -9 23 8 205 18 198 5 -3 9 -47 8 -97z m-384 13
c3 -5 2 -10 -4 -10 -5 0 -13 5 -16 10 -3 6 -2 10 4 10 5 0 13 -4 16 -10z
m-882 -20 c3 -11 1 -18 -4 -14 -5 3 -9 12 -9 20 0 20 7 17 13 -6z m882 -30 c3
-5 1 -10 -4 -10 -6 0 -11 5 -11 10 0 6 2 10 4 10 3 0 8 -4 11 -10z m-871 -96
c3 -8 2 -14 -2 -14 -10 0 -32 22 -32 32 0 12 28 -2 34 -18z m776 -37 l35 -42
-42 34 c-24 19 -43 38 -43 43 0 17 16 6 50 -35z m-584 -21 c18 -14 18 -15 -8
-21 -31 -8 -80 5 -86 23 -5 17 70 15 94 -2z m509 -6 c-3 -5 -35 -10 -71 -10
-36 0 -64 4 -64 10 0 6 30 10 71 10 44 0 68 -4 64 -10z m1595 -4 c0 -2 -8 -10
-17 -17 -16 -13 -17 -12 -4 4 13 16 21 21 21 13z m-2320 -48 c-14 -6 -28 -10
-32 -10 -5 1 -8 -5 -8 -14 0 -9 8 -14 18 -13 36 3 42 -2 42 -32 0 -25 -6 -33
-30 -42 -31 -12 -39 -31 -17 -41 10 -5 10 -7 0 -12 -7 -3 -13 -12 -13 -19 0
-8 -5 -17 -10 -20 -7 -4 -9 17 -6 62 2 37 5 85 5 105 1 37 10 45 56 46 17 1
16 -1 -5 -10z m162 1 c70 -9 88 -15 88 -28 0 -14 -2 -14 -10 -1 -8 13 -10 12
-10 -4 0 -12 -5 -16 -14 -13 -10 4 -13 1 -10 -7 3 -7 -2 -16 -11 -20 -12 -4
-14 -10 -5 -25 5 -11 7 -27 4 -35 -3 -9 -1 -16 5 -16 6 0 11 -7 11 -15 0 -8
-1 -15 -2 -15 -6 0 -119 47 -122 51 -3 2 -7 26 -10 52 -3 26 -10 57 -16 67
-13 24 -15 24 102 9z m1248 -35 c6 -14 10 -41 10 -59 0 -28 -6 -37 -30 -50
-36 -19 -40 -19 -40 0 0 9 12 21 28 28 15 7 27 18 26 25 -1 6 -2 16 -3 21 0 5
-10 7 -22 4 -29 -8 -43 17 -21 39 24 24 41 22 52 -8z m-953 -1 c-9 -9 -19 -14
-23 -11 -10 10 6 28 24 28 15 0 15 -1 -1 -17z m1019 -28 c13 -24 22 -31 30
-24 7 6 57 4 140 -6 71 -8 141 -15 156 -15 15 0 53 -10 85 -22 l58 -22 -40 -8
c-22 -5 -44 -13 -50 -19 -7 -7 -4 -8 10 -4 16 5 16 4 -3 -7 -12 -8 -19 -18
-15 -23 4 -5 0 -3 -9 4 -16 12 -18 11 -18 -7 0 -11 -7 -23 -16 -26 -8 -3 -13
-2 -10 2 3 5 -1 9 -9 9 -8 0 -11 -5 -8 -10 4 -6 -1 -8 -11 -4 -9 4 -15 3 -12
-2 3 -5 -8 -14 -24 -21 -17 -7 -30 -16 -30 -21 0 -5 -9 -9 -20 -9 -11 0 -20
-6 -20 -12 0 -9 -4 -8 -10 2 -8 12 -10 12 -10 -5 0 -17 -2 -17 -10 -5 -8 13
-10 12 -10 -4 0 -15 -5 -17 -26 -12 -29 8 -67 -1 -59 -13 2 -5 -14 -12 -37
-15 -23 -4 -49 -12 -58 -18 -8 -7 8 12 37 42 47 49 53 52 70 39 16 -13 17 -12
5 3 -11 14 -11 21 3 41 14 22 14 25 -2 38 -16 12 -17 12 -6 -2 10 -12 10 -19
-1 -34 -9 -12 -15 -15 -20 -7 -4 7 -2 12 3 12 25 0 9 15 -16 16 -16 1 -39 4
-53 7 -14 3 -32 6 -40 7 -12 0 -11 3 3 11 9 5 22 7 29 3 6 -4 9 -3 5 2 -3 5
16 18 41 28 104 40 118 45 147 52 l30 7 -35 8 c-19 5 -62 8 -94 7 -59 -2 -59
-1 -88 40 -16 23 -23 39 -15 36 8 -3 23 -20 33 -39z m-1544 20 c0 -5 -5 -11
-11 -13 -6 -2 -11 4 -11 13 0 9 5 15 11 13 6 -2 11 -8 11 -13z m505 -37 c-3
-8 -6 -5 -6 6 -1 11 2 17 5 13 3 -3 4 -12 1 -19z m509 -40 c-21 -12 -11 -29
12 -22 14 5 15 4 2 -5 -11 -7 -21 -5 -40 12 -14 12 -27 23 -29 24 -2 1 13 2
33 1 28 -1 33 -4 22 -10z m-1016 -24 c0 -17 -22 -14 -28 4 -2 7 3 12 12 12 9
0 16 -7 16 -16z m910 -16 c0 -7 -5 -20 -10 -28 -8 -12 -10 -9 -10 13 0 15 5
27 10 27 6 0 10 -6 10 -12z m470 -4 c0 -14 -3 -14 -15 -4 -8 7 -15 14 -15 16
0 2 7 4 15 4 8 0 15 -7 15 -16z m-554 -41 c-10 -10 -19 5 -10 18 6 11 8 11 12
0 2 -7 1 -15 -2 -18z m464 -15 c0 -4 -7 -8 -15 -8 -8 0 -15 -7 -15 -14 0 -8
-11 -27 -25 -42 -22 -24 -30 -24 -26 -1 2 13 -11 8 -24 -10 -12 -16 -14 -16
-29 0 -22 22 -28 21 -60 -4 -21 -17 -25 -24 -14 -30 12 -8 10 -10 -9 -8 -4 0
-10 -8 -14 -18 -6 -14 -8 -12 -8 11 -1 20 9 38 37 63 20 19 43 38 50 42 7 4
15 16 16 27 3 16 10 19 50 16 32 -3 46 0 46 9 0 8 7 6 20 -6 11 -10 20 -22 20
-27z m-1160 4 c0 -11 -60 -45 -67 -39 -3 3 10 15 28 26 39 24 39 24 39 13z
m87 -7 c26 -11 33 -19 26 -26 -14 -14 7 -84 31 -102 17 -12 14 -14 -27 -15
-42 -2 -74 13 -78 36 -1 4 -3 16 -5 27 -1 11 -6 37 -10 58 -8 43 3 47 63 22z
m577 -1 c5 -14 4 -15 -9 -4 -17 14 -19 20 -6 20 5 0 12 -7 15 -16z m249 -36
c-10 -11 -19 -15 -21 -8 -5 15 18 41 30 34 5 -3 1 -15 -9 -26z m1374 -50 c-3
-8 -6 -5 -6 6 -1 11 2 17 5 13 3 -3 4 -12 1 -19z m-1587 -17 c0 -5 -7 -11 -15
-15 -9 -3 -15 0 -15 9 0 8 7 15 15 15 8 0 15 -4 15 -9z m85 -11 c3 -5 -1 -10
-10 -10 -9 0 -13 5 -10 10 3 6 8 10 10 10 2 0 7 -4 10 -10z m225 -14 c0 -3 -4
-8 -10 -11 -5 -3 -10 -1 -10 4 0 6 5 11 10 11 6 0 10 -2 10 -4z m255 -6 c-3
-5 -11 -10 -16 -10 -6 0 -7 5 -4 10 3 6 11 10 16 10 6 0 7 -4 4 -10z m-378
-16 c-3 -3 -12 -4 -19 -1 -8 3 -5 6 6 6 11 1 17 -2 13 -5z m307 -19 c-22 -17
-34 -19 -34 -6 0 5 8 12 18 14 32 9 36 7 16 -8z m121 -25 c-3 -5 -14 -10 -23
-10 -15 0 -15 2 -2 10 20 13 33 13 25 0z m-680 -25 c6 -2 -14 -4 -43 -4 -29
-1 -51 3 -48 7 4 7 67 5 91 -3z m482 -41 c-3 -3 -12 -4 -19 -1 -8 3 -5 6 6 6
11 1 17 -2 13 -5z m1333 -29 c0 -8 -8 -15 -17 -16 -10 0 -35 -2 -57 -5 -32 -3
-36 -1 -26 11 6 7 28 16 48 18 20 2 40 4 45 5 4 1 7 -5 7 -13z m-1890 -21 c0
-2 -21 -4 -46 -4 -25 0 -43 4 -40 8 4 7 86 4 86 -4z m149 0 c2 -2 -15 -4 -38
-4 -25 0 -40 4 -36 10 5 8 63 3 74 -6z m443 -6 c-7 -7 -12 -8 -12 -2 0 14 12
26 19 19 2 -3 -1 -11 -7 -17z m-539 5 c-7 -2 -19 -2 -25 0 -7 3 -2 5 12 5 14
0 19 -2 13 -5z m1772 -23 c-3 -5 -12 -10 -18 -10 -7 0 -6 4 3 10 19 12 23 12
15 0z m42 4 c-3 -3 -12 -4 -19 -1 -8 3 -5 6 6 6 11 1 17 -2 13 -5z m-1336 -41
c0 -5 2 -16 4 -26 3 -14 0 -16 -9 -8 -17 14 -29 2 -16 -15 8 -9 -4 -21 -47
-49 -180 -114 -366 -215 -397 -215 -18 0 -19 2 -6 11 11 8 7 9 -19 5 -24 -4 8
20 118 86 187 114 173 106 246 147 33 19 68 41 77 49 9 7 22 11 29 6 8 -4 10
-3 5 4 -4 7 -2 12 3 12 6 0 11 -3 12 -7z m-91 -23 c-19 -11 -39 -19 -45 -19
-5 0 6 8 25 19 19 11 40 19 45 19 6 0 -6 -8 -25 -19z m-318 -41 c-7 -18 -5
-27 7 -37 14 -12 14 -13 -2 -8 -10 3 -25 6 -33 6 -20 0 -18 13 7 44 25 31 33
29 21 -5z m406 -30 c-27 -23 -48 -48 -48 -56 0 -8 -4 -12 -9 -8 -5 3 -12 1
-15 -4 -3 -5 3 -11 14 -14 21 -5 52 -70 44 -91 -3 -9 2 -16 13 -18 14 -3 11
-7 -14 -21 -18 -10 -34 -16 -36 -15 -1 2 -21 -12 -44 -29 -22 -18 -45 -33 -51
-33 -6 0 -12 -4 -14 -8 -1 -5 -66 -46 -143 -92 -215 -128 -284 -170 -297 -184
-7 -7 -22 -17 -33 -24 -11 -6 -14 -12 -7 -12 7 0 11 -4 7 -10 -3 -5 13 1 36
15 32 18 48 21 66 14 16 -6 22 -5 18 1 -8 13 9 19 70 23 28 2 59 8 69 12 13 6
21 5 24 -3 2 -6 10 -8 18 -5 7 3 17 -2 20 -11 3 -9 10 -16 15 -16 4 0 6 7 3
15 -4 8 -1 15 5 15 13 0 13 -6 5 -49 -6 -27 -10 -30 -28 -25 -11 4 -25 7 -31
7 -5 -1 -84 -4 -174 -7 -161 -6 -191 -12 -191 -42 0 -8 18 -53 40 -100 22 -48
38 -89 36 -92 -5 -4 -18 22 -72 146 -15 34 -34 67 -43 72 -14 9 -11 14 17 40
18 16 30 30 26 30 -3 0 8 16 25 35 19 23 28 41 24 52 -4 11 -3 14 5 9 8 -4 10
-2 6 8 -3 8 3 19 15 25 12 7 18 17 15 26 -4 10 0 15 11 15 9 0 13 4 10 10 -6
10 109 125 126 125 5 0 13 5 17 10 4 6 27 21 52 34 46 26 243 147 365 225 39
25 72 45 75 45 3 0 -16 -18 -42 -40z m-508 -229 c0 -9 -18 -23 -35 -26 -5 -1
-17 -4 -25 -6 -8 -3 -12 -3 -7 -1 4 3 4 10 1 15 -4 7 -2 8 5 4 6 -4 13 -1 16
6 6 15 45 22 45 8z m947 -67 c15 -49 23 -59 48 -66 17 -5 36 -12 44 -16 20
-10 45 -101 32 -114 -7 -7 -7 -14 0 -23 6 -7 8 -18 4 -24 -5 -7 -11 -5 -20 7
-13 17 -14 17 -20 1 -4 -10 -11 -15 -16 -12 -5 3 -6 -2 -3 -10 3 -9 10 -16 14
-16 15 0 26 -55 22 -112 -2 -32 -8 -58 -13 -58 -5 0 -9 5 -9 10 0 6 -7 10 -15
10 -20 0 -19 6 5 30 20 20 20 20 -8 48 -19 21 -31 26 -39 19 -8 -6 -13 -6 -13
0 0 17 46 33 59 20 8 -8 11 -8 11 0 0 17 -22 21 -49 11 -26 -9 -46 6 -34 26 4
6 8 5 11 -2 2 -7 11 -12 19 -12 13 0 13 2 2 17 -8 9 -9 14 -3 10 7 -4 14 -1
17 7 3 8 -1 17 -9 20 -9 3 -13 10 -9 15 3 5 0 13 -6 16 -5 4 -8 13 -5 21 3 8
-1 14 -9 14 -8 0 -14 6 -12 13 1 6 -6 11 -15 9 -12 -2 -16 2 -12 12 3 8 1 17
-5 20 -6 4 -7 14 -4 24 6 15 5 15 -10 3 -11 -9 -17 -10 -17 -2 0 11 13 15 36
12 15 -2 25 37 12 45 -5 3 -7 13 -4 21 8 20 -19 44 -41 37 -16 -5 -16 -4 1 10
32 26 44 19 63 -41z m-1803 15 c14 -18 23 -34 21 -36 -4 -4 -65 55 -65 63 0
15 21 1 44 -27z m2011 -18 c-3 -6 -12 -10 -18 -10 -9 0 -8 3 1 8 7 5 10 17 7
28 -6 17 -6 18 5 1 6 -9 8 -22 5 -27z m-295 24 c0 -3 -17 -12 -37 -21 -26 -10
-38 -12 -41 -4 -2 6 -7 9 -11 7 -4 -3 -13 0 -21 5 -11 8 -3 9 26 6 23 -3 48
-1 55 4 16 10 29 12 29 3z m-1575 -14 c-3 -5 -11 -10 -16 -10 -6 0 -7 5 -4 10
3 6 11 10 16 10 6 0 7 -4 4 -10z m1619 -25 c-4 -8 -14 -15 -23 -15 -14 1 -13
3 3 15 25 19 27 19 20 0z m-1824 -95 c0 -5 -4 -10 -10 -10 -5 0 -10 5 -10 10
0 6 5 10 10 10 6 0 10 -4 10 -10z m-136 -19 c9 -13 -3 -39 -21 -45 -23 -9 -25
-2 -12 28 13 27 24 33 33 17z m1702 -25 c2 -22 -1 -23 -16 -13 -17 10 -17 12
-2 24 9 7 17 13 17 13 0 0 1 -11 1 -24z m-1599 -8 c-3 -8 -6 -5 -6 6 -1 11 2
17 5 13 3 -3 4 -12 1 -19z m2160 -4 c-3 -3 -12 -4 -19 -1 -8 3 -5 6 6 6 11 1
17 -2 13 -5z m-70 -20 c-3 -3 -12 -4 -19 -1 -8 3 -5 6 6 6 11 1 17 -2 13 -5z
m-1713 -26 c-4 -34 -4 -34 -13 -19 -10 15 -4 41 8 41 4 0 7 -10 5 -22z m1397
-20 c8 -15 8 -18 0 -14 -6 4 -16 16 -22 28 -8 15 -8 18 0 14 6 -4 16 -16 22
-28z m-1927 7 c-4 -8 -1 -15 5 -15 11 0 9 -28 -4 -70 -10 -32 -28 -24 -21 10
3 17 1 30 -4 30 -10 0 -3 27 13 48 13 16 18 15 11 -3z m413 -13 c-3 -15 -2
-34 3 -42 7 -12 11 -10 18 9 6 16 11 20 16 13 11 -18 2 -27 -54 -56 -55 -29
-58 -28 -33 11 13 19 14 28 5 31 -6 2 -12 11 -12 20 0 13 3 12 15 -4 14 -18
15 -18 27 14 15 39 22 42 15 4z m1658 8 c3 -5 1 -10 -4 -10 -6 0 -11 5 -11 10
0 6 2 10 4 10 3 0 8 -4 11 -10z m-1930 -9 c3 -5 1 -12 -5 -16 -5 -3 -10 1 -10
9 0 18 6 21 15 7z m630 -11 c-3 -5 -12 -7 -20 -3 -21 7 -19 13 6 13 11 0 18
-4 14 -10z m1203 -55 c-3 -3 -13 7 -23 22 l-17 28 23 -22 c12 -12 20 -25 17
-28z m-88 -21 c0 -6 -6 -16 -13 -23 -11 -8 -13 -5 -9 18 2 16 -1 32 -7 35 -6
4 -11 13 -11 19 0 15 39 -34 40 -49z m-1090 32 c0 -3 -4 -8 -10 -11 -5 -3 -10
-1 -10 4 0 6 5 11 10 11 6 0 10 -2 10 -4z m-746 -81 c-30 -40 -32 -40 -59 -18
-15 12 -16 14 -3 10 9 -3 31 4 50 18 18 13 34 24 36 24 2 1 -9 -15 -24 -34z
m1264 10 c3 -18 3 -18 -10 -4 -7 9 -20 19 -28 23 -8 3 -4 4 10 3 16 -1 26 -9
28 -22z m-357 -7 c12 -22 11 -22 -6 -8 -17 14 -18 13 -13 -7 8 -29 2 -29 -13
-2 -9 17 -8 23 2 30 18 11 17 12 30 -13z m-510 -17 c-12 -12 -23 -21 -26 -21
-3 0 -9 0 -15 0 -5 0 -10 -7 -10 -15 0 -9 -6 -12 -15 -9 -9 4 -15 0 -15 -10 0
-9 -5 -16 -11 -16 -27 0 1 37 51 66 60 35 73 37 41 5z m564 19 c3 -5 -1 -10
-9 -10 -8 0 -18 5 -21 10 -3 6 1 10 9 10 8 0 18 -4 21 -10z m60 0 c18 -8 17
-9 -7 -9 -16 -1 -28 4 -28 9 0 12 8 12 35 0z m1155 -30 c9 -6 50 -129 79 -235
12 -44 35 -120 51 -170 16 -49 38 -142 50 -205 11 -63 27 -142 36 -174 15 -56
15 -60 -2 -73 -21 -15 -58 -18 -49 -3 3 6 -4 10 -17 11 l-23 0 23 9 c20 9 21
12 10 32 -7 13 -13 25 -13 28 -8 36 -28 85 -45 110 -12 16 -19 34 -15 39 3 5
1 12 -5 16 -5 3 -10 15 -10 26 0 10 -4 19 -9 19 -6 0 -13 20 -17 45 -5 38 -9
45 -24 40 -10 -3 -21 -1 -25 5 -3 5 1 10 9 10 24 0 30 20 10 35 -16 11 -24 11
-54 -2 -75 -33 -71 -23 8 17 45 23 82 46 82 50 0 5 -7 7 -15 4 -12 -5 -15 2
-15 27 l1 34 15 -27 c8 -16 18 -28 23 -28 13 0 28 -44 51 -150 39 -175 75
-314 78 -297 2 9 -8 62 -22 119 -13 57 -30 128 -36 158 -7 30 -16 69 -21 85
-5 17 -20 71 -34 120 -26 94 -50 175 -85 284 -22 72 -25 96 -8 66 6 -11 14
-22 18 -25z m-2029 8 c-34 -9 -47 -6 -37 10 3 5 20 6 38 4 l33 -5 -34 -9z
m1069 8 c0 -3 -4 -8 -10 -11 -5 -3 -10 -1 -10 4 0 6 5 11 10 11 6 0 10 -2 10
-4z m-1155 -55 c-14 -13 -16 -13 -11 -1 3 8 9 24 13 35 7 19 7 19 11 1 2 -10
-4 -26 -13 -35z m1051 24 c-4 -10 1 -15 14 -15 14 0 18 5 13 16 -5 14 -2 13
16 -2 18 -16 19 -20 6 -22 -10 -2 -14 -10 -11 -18 3 -8 1 -14 -4 -14 -6 0 -10
8 -10 18 0 14 -2 15 -10 2 -5 -8 -10 -18 -10 -22 0 -9 68 0 90 12 10 6 25 10
32 10 7 -1 -4 -10 -24 -21 -43 -22 -50 -33 -13 -19 28 11 51 4 79 -22 22 -20
15 -24 -15 -8 -15 8 -30 6 -64 -9 -25 -11 -45 -22 -45 -25 0 -3 6 -3 13 0 7 2
26 -9 42 -26 16 -16 24 -30 17 -30 -6 0 -14 5 -17 10 -3 6 -13 10 -22 10 -12
0 -13 -3 -4 -14 10 -12 8 -13 -9 -9 -16 4 -19 2 -14 -13 6 -17 5 -17 -9 1 -14
18 -14 21 0 29 25 14 -6 26 -34 13 -15 -7 -20 -14 -13 -21 6 -8 3 -12 -11 -13
-11 -1 -17 2 -14 7 3 4 -5 6 -16 3 -15 -4 -27 0 -35 12 -8 11 -14 13 -14 7 0
-16 -18 -15 -36 3 -13 12 -12 15 5 25 24 13 54 13 46 1 -3 -5 0 -13 6 -17 6
-3 15 0 20 7 12 19 11 52 -1 44 -5 -3 -10 -1 -10 4 0 6 -7 11 -15 11 -8 0 -12
-6 -10 -12 4 -9 -5 -13 -22 -14 -16 0 -35 -2 -43 -5 -9 -2 -15 2 -15 11 0 8
-6 20 -14 26 -7 6 -11 19 -9 30 5 24 36 21 60 -7 16 -19 68 -24 65 -6 -1 5 4
12 12 15 8 3 11 0 7 -7 -9 -13 4 -14 24 -1 18 12 17 12 -36 14 -32 2 -41 -1
-36 -12 4 -12 2 -12 -16 -1 -15 9 -20 20 -16 34 3 11 2 16 -3 10 -12 -15 -70
-12 -85 5 -11 12 -11 12 3 2 9 -6 18 -9 21 -6 3 3 34 9 69 14 46 7 67 6 79 -3
13 -11 13 -10 1 6 -12 15 -10 17 19 17 24 0 31 -4 26 -15z m129 -10 c-16 -7
-34 -10 -39 -7 -12 7 21 21 49 20 15 0 13 -3 -10 -13z m1263 -10 c-3 -3 -9 2
-12 12 -6 14 -5 15 5 6 7 -7 10 -15 7 -18z m-1188 5 c0 -5 -5 -10 -11 -10 -5
0 -7 5 -4 10 3 6 8 10 11 10 2 0 4 -4 4 -10z m1054 -26 c10 -38 0 -41 -12 -5
-6 17 -7 31 -3 31 5 0 12 -12 15 -26z m-2124 6 c0 -5 -5 -10 -11 -10 -5 0 -7
5 -4 10 3 6 8 10 11 10 2 0 4 -4 4 -10z m1023 -5 c-3 -9 -8 -14 -10 -11 -3 3
-2 9 2 15 9 16 15 13 8 -4z m991 -20 c7 -29 33 -33 51 -8 11 15 14 15 28 1 15
-14 12 -17 -31 -28 -41 -10 -48 -9 -59 6 -15 20 -17 54 -4 54 5 0 12 -11 15
-25z m-2114 -3 c0 -4 -26 -13 -58 -20 -69 -14 -82 -15 -82 -3 0 4 28 13 63 18
34 6 65 11 70 12 4 0 7 -3 7 -7z m85 -22 c-3 -5 -18 -10 -33 -9 -24 0 -25 1
-7 9 28 12 47 12 40 0z m509 -22 c-9 -14 -23 2 -17 18 4 12 8 13 14 3 4 -7 5
-17 3 -21z m1915 -33 c39 -19 71 -40 71 -45 0 -6 -11 -28 -25 -50 -24 -39 -27
-40 -79 -40 -36 0 -60 5 -70 16 -17 17 -22 69 -6 59 6 -3 10 -15 10 -26 0 -10
4 -19 9 -19 15 0 1 63 -17 77 -16 11 -15 12 3 13 12 0 16 3 9 8 -6 4 -14 19
-18 34 -6 26 -5 27 18 18 13 -5 56 -25 95 -45z m-2531 39 c-3 -3 -34 -12 -69
-20 -35 -8 -67 -20 -72 -27 -5 -8 -7 -5 -5 8 2 15 16 23 53 31 55 13 102 17
93 8z m19 -24 c-6 -16 -15 -30 -19 -30 -4 0 -2 14 3 30 6 17 15 30 19 30 5 0
3 -13 -3 -30z m1828 2 c-7 -8 -35 7 -35 18 0 6 7 6 20 -2 10 -7 17 -14 15 -16z
m-702 -12 c3 -11 1 -18 -4 -14 -5 3 -9 12 -9 20 0 20 7 17 13 -6z m926 -51
c12 -39 21 -72 19 -75 -4 -4 -58 127 -58 140 0 3 4 6 8 6 4 0 18 -32 31 -71z
m-1418 9 c13 -29 23 -56 22 -60 -2 -4 1 -8 5 -8 5 0 14 -11 20 -25 7 -15 8
-25 2 -25 -5 0 -28 37 -50 82 -44 91 -43 88 -32 88 5 0 19 -23 33 -52z m-1068
27 c-3 -9 -8 -14 -10 -11 -3 3 -2 9 2 15 9 16 15 13 8 -4z m584 -47 c-2 -13
-4 -3 -4 22 0 25 2 35 4 23 2 -13 2 -33 0 -45z m1803 22 c0 -13 -1 -13 -10 0
-5 8 -10 22 -10 30 0 13 1 13 10 0 5 -8 10 -22 10 -30z m-740 -10 c0 -5 -2
-10 -4 -10 -3 0 -8 5 -11 10 -3 6 -1 10 4 10 6 0 11 -4 11 -10z m-1285 -11 c4
-6 13 -8 21 -5 12 4 12 2 4 -15 -6 -11 -15 -17 -21 -14 -5 4 -7 11 -4 16 4 5
-3 9 -15 9 -12 0 -18 5 -15 10 8 13 22 13 30 -1z m1184 -11 c-39 -25 -49 -29
-49 -16 0 7 10 18 23 24 25 12 46 6 26 -8z m-259 2 c0 -5 -2 -10 -4 -10 -3 0
-8 5 -11 10 -3 6 -1 10 4 10 6 0 11 -4 11 -10z m371 -22 c6 -12 7 -23 3 -27
-5 -3 -15 -17 -22 -30 -10 -17 -10 -21 -1 -15 9 5 10 2 6 -10 -4 -10 -3 -15 3
-11 6 3 10 13 10 21 0 8 7 14 15 14 25 0 17 -18 -15 -37 -25 -14 -30 -23 -25
-41 3 -14 2 -21 -4 -18 -15 10 -22 -42 -11 -84 11 -42 25 -57 35 -40 10 16 32
12 39 -7 4 -10 4 -14 0 -11 -10 11 -44 -10 -44 -27 0 -19 34 -36 57 -29 15 5
16 4 3 -6 -11 -9 -12 -13 -2 -17 6 -2 10 -8 7 -13 -3 -5 4 -11 15 -15 11 -3
20 -11 20 -16 0 -6 5 -7 10 -4 6 3 10 11 10 16 0 6 -4 8 -9 5 -5 -3 -14 1 -21
9 -10 12 -9 15 4 15 9 0 16 6 16 13 1 7 7 4 15 -7 8 -10 12 -23 9 -27 -3 -5 2
-9 10 -9 9 0 16 -7 16 -16 0 -8 -4 -12 -10 -9 -5 3 -10 1 -10 -4 0 -6 6 -11
14 -11 7 0 30 -16 50 -35 21 -19 42 -35 47 -35 5 0 9 -7 9 -16 0 -14 -3 -14
-29 3 -16 10 -43 30 -60 46 -17 15 -35 27 -40 27 -5 0 -14 6 -20 14 -7 8 -28
22 -47 31 -19 9 -32 20 -29 25 3 4 -8 11 -24 15 -17 3 -33 14 -36 24 -3 10
-17 23 -31 29 -13 7 -30 16 -37 22 -7 5 -36 28 -65 50 -30 24 -50 46 -46 52 4
7 3 8 -4 4 -7 -4 -12 -3 -12 2 0 6 -6 9 -12 8 -19 -2 -148 67 -142 76 3 4 -2
30 -10 58 -8 27 -13 50 -11 50 3 0 14 -22 26 -50 23 -53 33 -58 82 -36 18 7
48 19 67 26 34 13 150 64 180 79 20 11 38 3 51 -21z m-945 -5 c-10 -10 -19 5
-10 18 6 11 8 11 12 0 2 -7 1 -15 -2 -18z m719 -3 c-3 -5 -14 -10 -23 -10 -15
0 -15 2 -2 10 20 13 33 13 25 0z m-1328 -32 c21 -18 40 -34 42 -35 3 -2 -3
-11 -12 -20 -15 -15 -19 -14 -53 13 -21 16 -42 32 -48 36 -10 7 10 38 25 38 5
0 25 -14 46 -32z m1207 7 c3 -8 1 -15 -4 -15 -6 0 -10 7 -10 15 0 8 2 15 4 15
2 0 6 -7 10 -15z m32 -37 c-10 -5 -25 -6 -34 -2 -14 6 -13 8 8 14 31 9 48 0
26 -12z m934 -1 c0 -2 -10 -12 -22 -23 l-23 -19 19 23 c18 21 26 27 26 19z
m-2241 -109 c2 -39 -27 -16 -49 40 -10 26 -10 35 1 48 11 14 15 10 30 -28 10
-24 18 -51 18 -60z m1651 62 c0 -5 -2 -10 -4 -10 -3 0 -8 5 -11 10 -3 6 -1 10
4 10 6 0 11 -4 11 -10z m-30 -10 c0 -5 -4 -10 -10 -10 -5 0 -10 5 -10 10 0 6
5 10 10 10 6 0 10 -4 10 -10z m34 -36 c3 -8 2 -12 -4 -9 -6 3 -10 10 -10 16 0
14 7 11 14 -7z m67 -81 l24 -26 -27 19 c-15 10 -28 22 -28 27 0 12 5 8 31 -20z
m-101 -4 c0 -14 -17 -10 -23 5 -4 10 -1 13 9 9 7 -3 14 -9 14 -14z m-1188 -9
c-38 -16 -122 -20 -122 -7 0 8 25 13 73 14 52 1 66 -1 49 -7z m1885 -22 c-3
-7 -5 -2 -5 12 0 14 2 19 5 13 2 -7 2 -19 0 -25z m-595 -33 c3 -14 0 -29 -7
-35 -8 -7 -10 -2 -7 20 3 19 0 30 -7 30 -7 0 -9 -5 -5 -12 4 -7 3 -8 -5 -4
-14 9 -5 26 13 26 8 0 16 -11 18 -25z m-47 -13 c-3 -3 -11 0 -18 7 -9 10 -8
11 6 5 10 -3 15 -9 12 -12z m-1495 -72 c0 -11 -7 -20 -15 -20 -15 0 -21 21 -8
33 12 13 23 7 23 -13z m215 -50 c3 -5 1 -10 -4 -10 -6 0 -11 5 -11 10 0 6 2
10 4 10 3 0 8 -4 11 -10z m27 -22 c-7 -7 -12 -8 -12 -2 0 14 12 26 19 19 2 -3
-1 -11 -7 -17z m-52 2 c0 -5 -4 -10 -10 -10 -5 0 -10 5 -10 10 0 6 5 10 10 10
6 0 10 -4 10 -10z m2390 -10 c-14 -4 -34 -8 -45 -8 -16 0 -15 2 5 8 14 4 34 8
45 8 16 0 15 -2 -5 -8z m373 -7 c4 -2 7 -17 7 -32 0 -15 9 -61 19 -101 11 -41
18 -76 16 -78 -2 -2 -6 5 -9 16 -5 15 -19 21 -61 27 -59 7 -55 1 -71 104 -4
31 -2 46 7 52 8 5 17 3 22 -4 6 -8 7 -7 4 5 -3 9 -3 19 0 22 6 5 49 -2 66 -11z
m-2733 3 c0 -3 -4 -8 -10 -11 -5 -3 -10 -1 -10 4 0 6 5 11 10 11 6 0 10 -2 10
-4z m2365 -16 c-11 -5 -27 -9 -35 -9 -9 0 -8 4 5 9 11 5 27 9 35 9 9 0 8 -4
-5 -9z m-2368 -52 c-3 -8 -6 -5 -6 6 -1 11 2 17 5 13 3 -3 4 -12 1 -19z m1197
-107 c-10 -10 -23 -16 -27 -14 -5 3 0 11 10 19 27 20 39 17 17 -5z m1746 9 c0
-5 -2 -10 -4 -10 -3 0 -8 5 -11 10 -3 6 -1 10 4 10 6 0 11 -4 11 -10z m-2960
-26 c0 -8 -19 -13 -24 -6 -3 5 1 9 9 9 8 0 15 -2 15 -3z m427 0 c-3 -3 -12 -4
-19 -1 -8 3 -5 6 6 6 11 1 17 -2 13 -5z m908 -4 c3 -6 -1 -7 -9 -4 -18 7 -21
14 -7 14 6 0 13 -4 16 -10z m1463 -136 c-3 -32 -5 -34 -21 -21 -11 7 -20 25
-20 40 -1 15 -6 27 -12 27 -5 0 4 13 20 28 l30 29 3 -34 c2 -18 2 -49 0 -69z
m-2138 67 c0 -5 -11 -11 -25 -14 -24 -4 -25 -3 -9 14 16 18 34 17 34 0z m225
-31 c3 -5 -1 -10 -10 -10 -9 0 -13 5 -10 10 3 6 8 10 10 10 2 0 7 -4 10 -10z
m1332 -12 c-3 -8 -6 -5 -6 6 -1 11 2 17 5 13 3 -3 4 -12 1 -19z m-59 -8 c-7
-11 -16 -20 -19 -20 -4 0 -5 9 -2 20 3 11 12 20 19 20 12 0 12 -4 2 -20z
m-1238 0 c0 -5 -4 -10 -10 -10 -5 0 -10 5 -10 10 0 6 5 10 10 10 6 0 10 -4 10
-10z m1393 -67 c15 -8 27 -19 27 -24 0 -13 -12 -11 -34 6 -11 8 -28 15 -38 15
-10 0 -18 6 -18 14 0 27 -22 29 -41 5 -21 -28 -24 -21 -7 16 l11 25 36 -22
c20 -11 48 -28 64 -35z m-506 10 c15 -38 23 -108 12 -124 -15 -25 -21 -9 -33
94 -8 61 2 75 21 30z m-977 3 c0 -3 -4 -8 -10 -11 -5 -3 -10 -1 -10 4 0 6 5
11 10 11 6 0 10 -2 10 -4z m-344 -39 c0 -18 8 -48 17 -66 20 -40 12 -59 -14
-35 -15 13 -19 14 -20 3 0 -8 -5 1 -11 20 -7 25 -12 31 -18 21 -6 -10 -9 -7
-13 11 -4 24 -5 24 -12 2 -7 -23 -31 -37 -46 -27 -24 14 -26 -10 -2 -32 38
-35 24 -38 -15 -3 l-32 29 54 35 c30 19 58 40 61 46 4 6 17 14 29 19 11 5 21
9 21 9 0 1 0 -14 1 -32z m644 3 c0 -5 -4 -10 -10 -10 -5 0 -10 5 -10 10 0 6 5
10 10 10 6 0 10 -4 10 -10z m1243 -22 c19 -30 13 -35 -16 -14 -10 8 -15 20
-11 30 4 9 7 16 8 14 1 -2 10 -15 19 -30z m107 12 c0 -11 -4 -20 -10 -20 -5 0
-10 9 -10 20 0 11 5 20 10 20 6 0 10 -9 10 -20z m-1250 0 c0 -14 -125 -70
-153 -70 -12 1 9 12 48 26 38 13 76 31 85 39 17 18 20 18 20 5z m1338 -77
c-18 -19 -30 -23 -53 -19 l-30 5 28 -15 c17 -9 39 -13 54 -9 25 6 53 -8 53
-27 0 -5 -8 -8 -17 -7 -10 1 -33 1 -51 0 -39 -1 -34 -21 6 -21 32 0 45 -8 60
-36 8 -15 25 -24 58 -29 67 -10 136 -45 128 -65 -4 -8 -9 -25 -11 -37 -5 -20
-2 -21 23 -14 26 7 42 24 80 87 11 18 14 16 48 -21 l36 -40 -3 -132 c-3 -92
-1 -133 7 -133 7 0 6 -4 -2 -8 -17 -11 -52 -105 -52 -139 0 -14 -3 -23 -7 -20
-3 4 -11 2 -18 -3 -18 -15 -15 20 4 42 15 17 23 88 11 88 -4 0 -12 -6 -19 -12
-11 -11 -13 -9 -9 8 6 22 -25 50 -42 39 -6 -4 -10 10 -10 32 -1 35 -2 37 -15
19 -9 -12 -11 -24 -6 -35 10 -18 -5 -55 -19 -46 -5 3 -11 1 -14 -4 -3 -5 6
-12 21 -16 19 -4 23 -9 14 -15 -15 -9 -51 17 -51 37 0 7 -5 13 -11 13 -6 0 -9
7 -5 15 3 8 1 15 -4 15 -6 0 -10 8 -10 18 -1 15 -2 15 -12 -3 -11 -19 -12 -18
-20 10 -5 22 -2 38 13 65 12 19 30 56 40 83 19 47 19 48 -1 37 -11 -6 -24 -19
-30 -31 -6 -11 -15 -17 -19 -15 -4 3 -13 -6 -20 -20 -8 -17 -8 -23 0 -19 6 4
4 -7 -5 -23 -16 -31 -13 -62 7 -62 6 0 8 -3 4 -6 -3 -3 5 -31 19 -62 14 -31
24 -69 22 -85 -3 -25 -8 -18 -43 52 -22 44 -43 77 -46 73 -4 -4 -18 -41 -32
-82 -14 -41 -32 -91 -41 -110 -15 -34 -15 -34 -16 -8 0 15 4 29 9 32 4 3 14
27 21 53 18 63 49 136 62 144 7 4 7 13 1 23 -13 24 -25 7 -56 -84 -103 -299
-143 -407 -183 -487 -24 -51 -47 -93 -50 -93 -3 0 -3 3 -1 8 8 14 57 122 81
180 13 31 51 140 85 242 34 102 68 205 76 228 11 33 12 49 4 64 -9 17 -9 20 2
15 8 -3 21 -8 29 -11 11 -4 16 -1 16 11 0 10 3 42 7 71 5 34 4 52 -3 52 -5 0
-10 -7 -10 -15 0 -8 -9 -15 -21 -15 -11 0 -18 4 -14 9 3 5 1 12 -5 16 -16 10
-12 28 4 22 10 -4 13 -1 9 9 -9 24 -22 16 -31 -18 -7 -28 -5 -35 11 -43 32
-16 43 -41 27 -60 -23 -27 -51 -14 -79 38 -14 27 -36 60 -49 74 -12 13 -19 30
-16 35 5 7 -2 9 -20 4 -14 -3 -26 -3 -26 2 0 5 -12 9 -27 9 -66 1 -73 3 -73
23 0 11 4 20 9 20 15 0 24 79 11 94 -7 10 -8 16 0 21 5 3 10 2 10 -2 0 -5 7
-18 15 -29 15 -18 15 -18 9 9 -6 25 -4 27 29 27 27 0 37 5 42 21 5 16 10 18
21 8 8 -6 14 -7 14 -3 0 17 44 30 68 20 l22 -9 -22 -24z m-681 -35 c-2 -13 -4
-3 -4 22 0 25 2 35 4 23 2 -13 2 -33 0 -45z m-1437 21 c0 -6 -4 -7 -10 -4 -5
3 -10 11 -10 16 0 6 5 7 10 4 6 -3 10 -11 10 -16z m977 -27 c-10 -10 -17 -24
-17 -30 0 -6 -6 -9 -13 -6 -7 2 -30 -11 -50 -31 -20 -19 -41 -35 -48 -35 -14
0 77 87 111 104 34 19 35 19 17 -2z m903 -63 c0 -6 -4 -7 -10 -4 -5 3 -10 11
-10 16 0 6 5 7 10 4 6 -3 10 -11 10 -16z m-1320 3 c0 -5 -7 -17 -16 -28 -8
-10 -14 -14 -11 -9 2 6 7 18 10 28 7 17 17 23 17 9z m55 -22 c3 -5 1 -10 -4
-10 -6 0 -11 5 -11 10 0 6 2 10 4 10 3 0 8 -4 11 -10z m315 0 c0 -5 -7 -10
-16 -10 -8 0 -12 5 -9 10 3 6 10 10 16 10 5 0 9 -4 9 -10z m928 -8 c16 -10 5
-43 -12 -36 -6 2 -12 13 -12 24 0 22 4 24 24 12z m-1028 -48 c0 -8 -5 -12 -10
-9 -6 4 -8 11 -5 16 9 14 15 11 15 -7z m60 -5 c0 -5 -4 -9 -10 -9 -5 0 -10 7
-10 16 0 8 5 12 10 9 6 -3 10 -10 10 -16z m1104 -39 c51 -45 71 -94 57 -140
-6 -22 -21 -42 -36 -50 -24 -13 -28 -12 -50 16 -34 40 -39 67 -21 101 l15 30
-50 12 c-27 7 -47 17 -44 21 3 5 -1 11 -7 13 -24 10 15 27 59 27 33 0 50 -7
77 -30z m-498 -67 c22 -51 17 -77 -25 -124 -30 -34 -41 -58 -50 -104 -7 -33
-14 -71 -17 -84 l-5 -24 -23 22 c-12 11 -34 21 -49 21 -26 0 -27 -3 -29 -52 0
-29 0 -63 1 -74 1 -16 -6 -23 -24 -26 -14 -3 -28 -1 -31 4 -4 6 -10 5 -14 -2
-10 -17 -30 -4 -30 19 0 24 -26 47 -32 29 -4 -11 -8 -11 -20 0 -12 10 -17 10
-20 1 -3 -8 -9 -7 -20 5 -11 11 -18 12 -20 4 -5 -13 -38 -4 -38 10 0 5 36 8
80 7 50 -2 80 1 80 7 0 7 4 7 13 0 8 -7 18 -7 27 -2 8 5 12 10 10 12 -32 20
-50 27 -50 17 0 -6 -8 -8 -20 -4 -12 4 -20 2 -20 -6 0 -9 -3 -9 -14 0 -11 9
-15 9 -19 -1 -4 -10 -10 -8 -21 6 -22 27 -20 39 4 26 23 -12 27 2 5 20 -18 15
-10 31 10 23 9 -3 15 1 15 11 0 9 -4 16 -10 16 -5 0 -10 7 -10 16 0 23 24 11
28 -14 2 -12 10 -22 18 -22 18 0 18 8 -1 27 -17 17 -10 37 11 29 8 -3 14 -2
14 3 0 5 14 7 30 5 19 -2 30 1 30 9 0 8 3 8 9 -2 5 -8 11 -9 15 -3 9 14 -11
19 -76 17 -40 -1 -58 2 -58 10 0 7 7 16 16 19 25 9 113 7 133 -4 16 -8 21 -3
36 38 20 55 70 149 93 175 15 17 17 17 35 -5 10 -13 25 -37 33 -55z m-596 57
c0 -5 -4 -10 -10 -10 -5 0 -10 5 -10 10 0 6 5 10 10 10 6 0 10 -4 10 -10z
m-1183 -26 c-3 -3 -12 -4 -19 -1 -8 3 -5 6 6 6 11 1 17 -2 13 -5z m1143 -24
c0 -5 -5 -10 -11 -10 -5 0 -7 5 -4 10 3 6 8 10 11 10 2 0 4 -4 4 -10z m765
-19 c-11 -28 -61 -229 -95 -381 -36 -164 -52 -220 -44 -153 9 73 84 407 108
477 9 26 16 56 16 67 0 12 4 17 11 14 6 -4 7 -14 4 -24z m-745 -35 c0 -3 -4
-8 -10 -11 -5 -3 -10 -1 -10 4 0 6 5 11 10 11 6 0 10 -2 10 -4z m-1186 -31
c-4 -8 -8 -15 -10 -15 -2 0 -4 7 -4 15 0 8 4 15 10 15 5 0 7 -7 4 -15z m56 5
c0 -5 -5 -10 -11 -10 -5 0 -7 5 -4 10 3 6 8 10 11 10 2 0 4 -4 4 -10z m-30
-36 c0 -8 -5 -12 -10 -9 -6 4 -8 11 -5 16 9 14 15 11 15 -7z m130 12 c0 -3 -4
-8 -10 -11 -5 -3 -10 -1 -10 4 0 6 5 11 10 11 6 0 10 -2 10 -4z m935 -15 c3
-5 1 -12 -5 -16 -5 -3 -10 1 -10 9 0 18 6 21 15 7z m1122 -5 c2 -2 -27 -104
-32 -113 -3 -7 -115 21 -115 27 0 4 9 18 21 31 l20 24 -6 -22 c-4 -14 -2 -23
4 -23 6 0 11 7 11 15 0 8 7 15 16 15 8 0 12 5 9 10 -3 6 1 13 9 16 21 8 20 21
-1 28 -10 2 0 2 22 -1 22 -3 41 -6 42 -7z m-2105 -18 c-7 -7 -12 -8 -12 -2 0
14 12 26 19 19 2 -3 -1 -11 -7 -17z m1082 7 c3 -8 1 -15 -4 -15 -6 0 -10 7
-10 15 0 8 2 15 4 15 2 0 6 -7 10 -15z m-1184 -5 c0 -5 -4 -10 -10 -10 -5 0
-10 5 -10 10 0 6 5 10 10 10 6 0 10 -4 10 -10z m50 6 c0 -3 -4 -8 -10 -11 -5
-3 -10 -1 -10 4 0 6 5 11 10 11 6 0 10 -2 10 -4z m85 -26 c3 -5 1 -10 -4 -10
-6 0 -11 5 -11 10 0 6 2 10 4 10 3 0 8 -4 11 -10z m985 -26 c0 -8 -9 -14 -20
-14 -19 0 -27 19 -14 33 10 9 34 -4 34 -19z m58 -2 c3 -16 -1 -20 -12 -16 -19
7 -22 48 -3 42 6 -3 13 -14 15 -26z m-328 8 c0 -5 -5 -10 -11 -10 -5 0 -7 5
-4 10 3 6 8 10 11 10 2 0 4 -4 4 -10z m110 6 c0 -3 -4 -8 -10 -11 -5 -3 -10
-1 -10 4 0 6 5 11 10 11 6 0 10 -2 10 -4z m1460 -6 c0 -5 -4 -10 -10 -10 -5 0
-10 5 -10 10 0 6 5 10 10 10 6 0 10 -4 10 -10z m-1861 -27 c0 -25 -1 -25 -8
-8 -5 11 -7 23 -4 28 8 14 13 7 12 -20z m491 11 c0 -8 -4 -12 -10 -9 -5 3 -10
10 -10 16 0 5 5 9 10 9 6 0 10 -7 10 -16z m335 0 c-9 -9 -19 -13 -23 -10 -3 4
0 11 8 16 24 15 33 11 15 -6z m-773 -46 c-5 -69 -12 -75 -12 -11 0 41 5 63 15
63 1 0 0 -24 -3 -52z m328 10 c0 -21 -43 -84 -47 -71 -3 7 3 20 11 29 9 8 14
20 11 25 -7 11 3 29 16 29 5 0 9 -6 9 -12z m214 -30 c-9 -15 -33 12 -27 29 5
14 8 14 19 -2 7 -10 11 -22 8 -27z m120 -19 c-13 -21 -24 -42 -24 -46 0 -8
-47 -33 -62 -33 -4 0 -8 5 -8 10 0 6 8 10 17 10 20 0 53 28 53 45 0 7 7 18 15
25 8 7 15 22 15 34 0 16 2 18 9 7 6 -10 1 -27 -15 -52z m56 9 l-22 -23 19 39
c11 24 19 33 21 23 2 -9 -6 -27 -18 -39z m-460 27 c0 -8 -4 -15 -9 -15 -13 0
-22 16 -14 24 11 11 23 6 23 -9z m216 -12 c-6 -15 -9 -15 -16 -3 -6 9 -5 17 3
22 16 10 21 2 13 -19z m329 16 c11 -17 -1 -21 -15 -4 -8 9 -8 15 -2 15 6 0 14
-5 17 -11z m-393 -21 c-7 -7 -12 -8 -12 -2 0 14 12 26 19 19 2 -3 -1 -11 -7
-17z m-217 -8 c3 -5 1 -10 -4 -10 -6 0 -11 5 -11 10 0 6 2 10 4 10 3 0 8 -4
11 -10z m592 -50 c0 -32 -3 -40 -18 -40 -13 0 -18 6 -15 18 15 78 33 91 33 22z
m-887 20 c0 -5 -5 -10 -11 -10 -5 0 -7 5 -4 10 3 6 8 10 11 10 2 0 4 -4 4 -10z
m555 -18 c-2 -3 -12 -1 -22 2 -15 6 -15 9 -3 16 13 8 35 -8 25 -18z m55 12 c0
-8 -5 -12 -10 -9 -6 4 -8 11 -5 16 9 14 15 11 15 -7z m65 6 c3 -5 -1 -10 -9
-10 -9 0 -16 5 -16 10 0 6 4 10 9 10 6 0 13 -4 16 -10z m125 -4 c0 -3 -4 -8
-10 -11 -5 -3 -10 -1 -10 4 0 6 5 11 10 11 6 0 10 -2 10 -4z m1430 -6 c0 -16
-28 -38 -53 -42 -22 -4 -25 -3 -15 9 6 8 17 12 24 9 20 -8 25 6 6 20 -15 12
-14 13 11 12 15 -1 27 -5 27 -8z m-1935 -20 c-3 -5 -12 -10 -18 -10 -7 0 -6 4
3 10 19 12 23 12 15 0z m530 -17 c-4 -10 -7 -28 -7 -40 1 -12 -3 -25 -8 -28
-6 -4 -8 -10 -5 -15 3 -5 1 -12 -5 -15 -11 -7 -5 89 6 107 10 16 26 8 19 -9z
m-291 -8 c3 -8 1 -15 -4 -15 -6 0 -10 7 -10 15 0 8 2 15 4 15 2 0 6 -7 10 -15z
m56 -6 c0 -6 -4 -7 -10 -4 -5 3 -10 11 -10 16 0 6 5 7 10 4 6 -3 10 -11 10
-16z m65 12 c3 -6 -3 -14 -13 -20 -14 -8 -18 -6 -18 10 0 20 20 26 31 10z
m1442 -13 c-3 -8 -6 -5 -6 6 -1 11 2 17 5 13 3 -3 4 -12 1 -19z m113 -7 c0 -5
-20 -25 -45 -45 -49 -41 -51 -21 -3 26 29 28 48 36 48 19z m-1940 -6 c0 -2 -9
-19 -20 -37 -23 -37 -25 -35 -9 11 6 17 15 31 20 31 5 0 9 -2 9 -5z m110 -5
c0 -5 -2 -10 -4 -10 -3 0 -8 5 -11 10 -3 6 -1 10 4 10 6 0 11 -4 11 -10z
m-400 -10 c0 -5 -5 -10 -11 -10 -5 0 -7 5 -4 10 3 6 8 10 11 10 2 0 4 -4 4
-10z m530 -20 c0 -5 -4 -10 -10 -10 -5 0 -10 5 -10 10 0 6 5 10 10 10 6 0 10
-4 10 -10z m910 6 c0 -3 -4 -8 -10 -11 -5 -3 -10 -1 -10 4 0 6 5 11 10 11 6 0
10 -2 10 -4z m663 -16 c-3 -12 -8 -19 -11 -16 -5 6 5 36 12 36 2 0 2 -9 -1
-20z m-590 -4 c9 0 17 -8 17 -17 0 -14 -7 -17 -37 -13 -42 5 -59 17 -48 34 4
6 15 8 28 4 12 -4 30 -8 40 -8z m-636 -12 c2 -6 -3 -11 -10 -11 -8 0 -14 6
-14 14 0 15 19 12 24 -3z m51 -3 c3 -8 -1 -12 -9 -9 -7 2 -15 10 -17 17 -3 8
1 12 9 9 7 -2 15 -10 17 -17z m36 -20 c-6 -6 -24 19 -24 34 1 6 7 1 15 -9 8
-11 12 -22 9 -25z m36 12 c0 -13 -3 -13 -15 -3 -8 7 -12 16 -9 21 8 13 24 1
24 -18z m1054 -22 c-9 -23 -18 -40 -21 -38 -2 3 4 23 13 46 9 23 18 40 21 38
2 -3 -4 -23 -13 -46z m-1332 -3 c-12 -12 -42 1 -42 18 0 11 5 11 25 2 14 -6
22 -15 17 -20z m1188 -8 c-7 -17 -15 -28 -18 -26 -2 3 1 19 8 36 7 17 15 28
18 26 2 -3 -1 -19 -8 -36z m-209 11 c7 11 9 11 9 -4 0 -11 5 -15 11 -11 7 4
10 1 7 -7 -6 -15 -8 -15 -58 3 -45 16 -43 15 -35 27 4 7 15 5 31 -6 22 -14 27
-14 35 -2z m-1051 -1 c0 -5 -4 -10 -10 -10 -5 0 -10 5 -10 10 0 6 5 10 10 10
6 0 10 -4 10 -10z m300 -21 c0 -6 -4 -7 -10 -4 -5 3 -10 11 -10 16 0 6 5 7 10
4 6 -3 10 -11 10 -16z m37 -5 c-9 -9 -28 6 -21 18 4 6 10 6 17 -1 6 -6 8 -13
4 -17z m33 5 c0 -6 -4 -7 -10 -4 -5 3 -10 11 -10 16 0 6 5 7 10 4 6 -3 10 -11
10 -16z m80 2 c0 -8 -7 -11 -20 -8 -11 3 -20 0 -20 -5 0 -6 -6 -5 -15 2 -20
17 -13 25 24 25 20 0 31 -5 31 -14z m-310 -12 c0 -5 -4 -9 -10 -9 -5 0 -10 7
-10 16 0 8 5 12 10 9 6 -3 10 -10 10 -16z m-845 1 c3 -5 2 -10 -4 -10 -5 0
-13 5 -16 10 -3 6 -2 10 4 10 5 0 13 -4 16 -10z m809 1 c3 -5 -1 -12 -10 -15
-22 -9 -24 -8 -24 9 0 16 25 21 34 6z m-66 -20 c-13 -21 -28 -19 -28 5 0 8 9
14 20 14 17 0 19 -3 8 -19z m-695 2 c-7 -2 -19 -2 -25 0 -7 3 -2 5 12 5 14 0
19 -2 13 -5z m637 -3 c0 -5 -5 -10 -11 -10 -5 0 -7 5 -4 10 3 6 8 10 11 10 2
0 4 -4 4 -10z m76 -27 c-10 -10 -19 5 -10 18 6 11 8 11 12 0 2 -7 1 -15 -2
-18z m304 2 c36 -8 76 -17 89 -20 21 -6 23 -9 17 -53 -9 -59 -26 -103 -37 -96
-5 3 -9 1 -9 -5 0 -5 5 -13 11 -16 26 -17 -3 -27 -82 -29 l-86 -3 -21 32 c-12
17 -22 39 -22 49 0 13 -5 17 -20 13 -15 -4 -20 0 -20 15 0 10 -4 16 -10 13 -5
-3 -10 -15 -10 -26 0 -10 -5 -18 -11 -16 -6 1 -14 -4 -17 -12 -3 -9 0 -11 7
-7 12 8 8 -23 -11 -72 -4 -13 -6 -28 -2 -33 3 -5 0 -9 -6 -9 -6 0 -8 -5 -4
-12 5 -8 2 -9 -10 -5 -13 5 -17 3 -13 -6 3 -8 1 -20 -4 -28 -7 -11 -9 -11 -9
3 0 9 -5 20 -10 23 -7 4 -9 -3 -6 -20 3 -18 1 -25 -7 -22 -7 2 -11 11 -11 20
1 9 -2 15 -6 12 -5 -3 -11 -1 -15 5 -3 5 -1 10 6 10 8 0 7 5 -3 18 -9 9 -13
22 -11 29 2 6 -1 15 -8 19 -8 4 -9 3 -5 -4 4 -7 2 -12 -4 -12 -42 0 7 103 86
181 50 49 58 54 126 65 40 6 75 12 78 13 3 0 34 -6 70 -14z m-350 -4 c0 -17
-18 -21 -24 -6 -3 9 0 15 9 15 8 0 15 -4 15 -9z m1210 -26 c0 -8 -4 -15 -10
-15 -5 0 -7 7 -4 15 4 8 8 15 10 15 2 0 4 -7 4 -15z m-1220 -19 c0 -2 -13 -6
-29 -8 -17 -2 -28 -1 -25 4 5 8 54 12 54 4z m647 -38 c-3 -7 -5 -2 -5 12 0 14
2 19 5 13 2 -7 2 -19 0 -25z m-807 12 c0 -5 -2 -10 -4 -10 -3 0 -8 5 -11 10
-3 6 -1 10 4 10 6 0 11 -4 11 -10z m1020 -21 c27 -6 50 -14 50 -18 0 -8 -98
14 -108 24 -8 7 1 6 58 -6z m279 -133 c-35 -69 -67 -126 -71 -126 -9 0 81 189
99 208 6 6 15 21 18 33 4 11 9 18 12 15 3 -3 -23 -61 -58 -130z m-1299 114 c0
-5 -2 -10 -4 -10 -3 0 -8 5 -11 10 -3 6 -1 10 4 10 6 0 11 -4 11 -10z m-133
-82 c15 -19 24 -66 14 -72 -9 -6 -25 31 -21 49 1 5 -7 15 -16 22 -15 11 -15
13 -2 13 8 0 20 -6 25 -12z m311 -120 c64 -96 68 -103 54 -94 -8 5 -12 0 -12
-13 0 -11 -5 -23 -11 -27 -6 -3 -8 -17 -5 -30 6 -23 4 -24 -49 -24 -37 0 -55
4 -55 13 0 8 -4 7 -10 -3 -8 -12 -10 -8 -11 15 l-2 30 -4 -28 c-2 -15 -9 -25
-14 -21 -5 3 -7 10 -3 15 3 6 9 31 13 57 l7 47 38 -58 c42 -62 60 -72 25 -13
-25 43 -30 88 -12 105 11 10 13 7 8 -16 -5 -25 -5 -26 5 -5 9 22 8 77 -3 88
-8 9 -36 -86 -31 -104 4 -14 3 -13 -6 2 -10 15 -9 30 5 77 10 33 20 59 21 59
2 0 25 -33 52 -72z m1314 15 c-35 -60 -120 -237 -244 -513 -39 -87 -44 -95
-58 -95 -17 0 -25 -10 -34 -45 l-7 -25 16 25 15 25 -6 -30 c-3 -16 -8 -36 -10
-44 -3 -8 1 -18 8 -23 9 -6 10 -10 2 -15 -6 -5 -17 -27 -25 -50 -11 -33 -17
-40 -28 -33 -11 6 -12 12 -4 22 11 14 34 98 26 98 -2 0 -11 -15 -19 -32 l-15
-33 7 35 c4 19 20 69 37 110 58 145 96 266 76 239 l-19 -24 12 35 c6 19 15 37
19 40 5 3 25 37 45 75 19 39 44 78 54 87 10 10 22 28 26 40 4 13 17 37 29 53
12 17 32 51 46 77 23 47 45 62 63 46 6 -5 1 -23 -12 -45z m-271 -6 c-10 -9
-11 -8 -5 6 3 10 9 15 12 12 3 -3 0 -11 -7 -18z m119 -70 c0 -2 -11 -18 -25
-37 -14 -19 -25 -30 -25 -26 0 9 39 66 46 66 2 0 4 -1 4 -3z m-1840 -55 c0
-15 -2 -15 -10 -2 -13 20 -13 33 0 25 6 -3 10 -14 10 -23z m-530 -6 c0 -3 -4
-8 -10 -11 -5 -3 -10 -1 -10 4 0 6 5 11 10 11 6 0 10 -2 10 -4z m556 -42 c-3
-8 -10 -14 -15 -14 -5 0 -4 13 2 31 8 21 13 26 15 14 2 -9 1 -23 -2 -31z
m1614 -49 c-7 -20 -14 -34 -17 -31 -3 2 1 20 8 40 17 46 25 38 9 -9z m-192 22
c14 0 15 -7 4 -25 -12 -18 -62 -11 -62 9 0 22 11 31 29 23 9 -3 22 -7 29 -7z
m-793 -37 c-3 -5 -10 -10 -16 -10 -5 0 -9 5 -9 10 0 6 7 10 16 10 8 0 12 -4 9
-10z m-40 -30 c10 -11 13 -20 7 -20 -7 0 -12 5 -12 10 0 6 -12 10 -27 10 -22
0 -25 2 -13 10 21 13 24 13 45 -10z m-85 -20 c0 -5 -3 -10 -7 -11 -5 0 -21 -2
-38 -5 -36 -5 -58 2 -50 16 8 13 95 13 95 0z m-1133 -28 c-22 -24 -22 -38 1
-21 9 7 6 0 -8 -15 -21 -24 -22 -28 -6 -22 16 5 17 4 7 -8 -10 -12 -16 -13
-26 -3 -8 8 -9 14 -3 18 6 4 8 13 6 20 -3 8 5 21 16 31 27 23 33 23 13 0z
m1343 8 c0 -5 -4 -10 -10 -10 -5 0 -10 -6 -10 -14 0 -20 -27 -69 -33 -59 -2 4
-3 19 -2 33 2 14 4 33 4 43 1 11 9 17 26 17 14 0 25 -4 25 -10z m76 -2 c7 -10
-26 -9 -51 2 -16 7 -14 9 13 7 19 -1 36 -5 38 -9z m-1186 -8 c0 -5 -7 -10 -15
-10 -8 0 -15 5 -15 10 0 6 7 10 15 10 8 0 15 -4 15 -10z m1290 -12 c0 -13 -3
-18 -8 -12 -4 6 -16 16 -27 22 -19 11 -18 11 8 12 21 0 27 -5 27 -22z m670
-35 c-11 -17 -11 -17 -6 0 3 10 6 24 7 30 0 9 2 9 5 0 3 -7 0 -20 -6 -30z
m-1591 -158 c0 -89 -8 -98 -24 -26 -6 26 -4 32 6 26 9 -6 10 -3 5 11 -4 10
-13 40 -20 66 -11 41 -11 48 3 50 22 5 29 -23 30 -127z m956 125 c3 -5 1 -10
-4 -10 -6 0 -11 5 -11 10 0 6 2 10 4 10 3 0 8 -4 11 -10z m630 -12 c-7 -45
-32 -113 -41 -110 -5 2 -10 -5 -12 -15 -3 -15 -1 -16 8 -3 10 12 11 11 5 -5
-49 -134 -50 -177 -4 -197 16 -7 29 -17 30 -23 1 -15 27 57 28 77 1 21 42 131
46 126 4 -4 -54 -210 -61 -217 -2 -2 -22 9 -45 24 -33 24 -42 26 -49 15 -13
-21 -24 12 -17 53 6 40 59 192 81 232 9 17 16 38 16 48 0 9 4 17 9 17 5 0 8
-10 6 -22z m-2195 -45 c0 -9 -3 -13 -7 -10 -3 4 -12 2 -20 -4 -7 -6 -13 -8
-13 -4 0 7 29 34 38 35 1 0 2 -7 2 -17z m960 -15 c0 -7 -5 -20 -10 -28 -8 -13
-10 -13 -10 2 0 9 -8 22 -17 27 -15 9 -14 10 10 11 15 0 27 -5 27 -12z m-951
-21 c-2 -1 -12 -9 -21 -16 -15 -12 -18 -11 -18 3 0 10 8 16 22 16 12 0 19 -1
17 -3z m-49 -17 c0 -5 -4 -10 -10 -10 -5 0 -10 5 -10 10 0 6 5 10 10 10 6 0
10 -4 10 -10z m10 -41 c0 -6 -4 -7 -10 -4 -5 3 -10 11 -10 16 0 6 5 7 10 4 6
-3 10 -11 10 -16z m30 11 c0 -5 -4 -10 -10 -10 -5 0 -10 5 -10 10 0 6 5 10 10
10 6 0 10 -4 10 -10z m1750 -18 c0 -15 -2 -15 -10 -2 -13 20 -13 33 0 25 6 -3
10 -14 10 -23z m-1810 2 c0 -8 -4 -12 -10 -9 -5 3 -10 10 -10 16 0 5 5 9 10 9
6 0 10 -7 10 -16z m1940 6 c0 -5 -2 -10 -4 -10 -3 0 -8 5 -11 10 -3 6 -1 10 4
10 6 0 11 -4 11 -10z m80 -20 c0 -5 -4 -10 -10 -10 -5 0 -10 5 -10 10 0 6 5
10 10 10 6 0 10 -4 10 -10z m-1980 -10 c0 -5 -5 -10 -11 -10 -5 0 -7 5 -4 10
3 6 8 10 11 10 2 0 4 -4 4 -10z m-30 -10 c0 -5 -4 -10 -10 -10 -5 0 -10 5 -10
10 0 6 5 10 10 10 6 0 10 -4 10 -10z m1781 -13 c-10 -9 -11 -8 -5 6 3 10 9 15
12 12 3 -3 0 -11 -7 -18z m-1811 3 c0 -5 -2 -10 -4 -10 -3 0 -8 5 -11 10 -3 6
-1 10 4 10 6 0 11 -4 11 -10z m95 -10 c3 -5 1 -10 -4 -10 -6 0 -11 5 -11 10 0
6 2 10 4 10 3 0 8 -4 11 -10z m2326 -31 c-9 -23 -10 -22 -10 11 -1 23 2 31 9
24 7 -7 7 -19 1 -35z m-2704 25 c-3 -3 -12 -4 -19 -1 -8 3 -5 6 6 6 11 1 17
-2 13 -5z m298 -14 c3 -5 1 -10 -4 -10 -6 0 -11 5 -11 10 0 6 2 10 4 10 3 0 8
-4 11 -10z m394 -31 c53 14 62 9 26 -15 -43 -28 -92 -22 -129 16 l-31 32 45
-22 c40 -21 49 -22 89 -11z m-404 -9 c3 -5 1 -10 -4 -10 -6 0 -11 5 -11 10 0
6 2 10 4 10 3 0 8 -4 11 -10z m2008 -48 c11 6 17 5 17 -2 0 -21 2 -25 16 -33
8 -4 19 -5 24 -2 6 3 10 2 10 -4 0 -5 3 -17 6 -26 5 -13 0 -12 -29 5 -33 20
-77 34 -77 25 0 -3 20 -13 43 -24 58 -26 72 -44 51 -62 -13 -10 -17 -10 -24 0
-6 10 -8 11 -12 1 -3 -10 -18 -8 -63 5 -33 10 -67 19 -75 20 -20 2 -59 24 -43
25 6 0 9 8 6 18 -9 37 28 49 92 28 15 -5 14 -4 -2 5 -24 12 -28 25 -17 54 6
14 11 12 34 -13 20 -23 31 -27 43 -20z m-827 23 c10 -8 14 -15 7 -15 -6 0 -13
-7 -15 -16 -2 -10 -7 -5 -15 15 -12 34 -7 38 23 16z m721 -21 c-9 -9 -28 6
-21 18 4 6 10 6 17 -1 6 -6 8 -13 4 -17z m-1267 -8 c0 -3 -4 -8 -10 -11 -5 -3
-10 -1 -10 4 0 6 5 11 10 11 6 0 10 -2 10 -4z m-980 -30 c0 -3 -4 -8 -10 -11
-5 -3 -10 -1 -10 4 0 6 5 11 10 11 6 0 10 -2 10 -4z m1506 -223 l-6 -146 -49
-52 -49 -52 5 51 c3 28 12 59 21 69 14 15 14 18 2 15 -12 -2 -15 8 -15 47 0
61 3 75 20 75 8 0 11 10 8 28 -3 25 -3 26 6 5 6 -13 19 -23 31 -23 21 0 27 14
10 25 -5 3 -10 1 -10 -5 0 -6 -4 -8 -10 -5 -6 4 -5 11 3 19 6 8 15 12 18 10 4
-2 7 2 6 9 -1 36 4 77 9 77 4 0 4 -66 0 -147z m808 117 c36 -13 66 -27 66 -32
0 -4 6 -8 13 -8 6 0 37 -20 69 -45 l56 -45 -5 -88 c-3 -48 -10 -91 -15 -97 -7
-7 -9 -7 -5 0 3 6 -2 19 -10 30 -13 16 -15 17 -10 3 5 -13 1 -18 -13 -18 -26
0 -25 17 3 40 18 15 19 18 4 16 -10 -1 -24 -12 -32 -24 -14 -19 -13 -23 7 -43
l23 -21 -23 11 c-18 9 -27 10 -37 1 -8 -7 -1 15 14 47 33 67 53 132 45 145
-11 17 -21 7 -34 -34 -7 -24 -22 -63 -34 -88 -13 -25 -24 -63 -25 -84 -1 -22
-5 -44 -8 -50 -4 -6 1 -5 10 3 10 8 17 9 17 3 0 -6 -9 -17 -20 -25 -11 -8 -18
-16 -16 -18 2 -2 -4 -11 -13 -20 -15 -15 -24 -12 -116 35 l-100 51 -9 133 c-9
133 -9 134 -33 129 -33 -6 -35 3 -7 38 20 25 22 26 17 7 -4 -16 -1 -22 11 -22
9 0 16 4 16 8 0 5 14 27 31 49 37 48 57 50 163 13z m-847 -7 c-4 -3 -2 -12 4
-19 6 -7 6 -14 1 -18 -6 -3 -13 2 -16 11 -6 15 -8 15 -16 3 -6 -9 -10 -10 -10
-3 0 7 8 17 18 22 20 12 28 14 19 4z m330 -105 c-3 -7 -5 -2 -5 12 0 14 2 19
5 13 2 -7 2 -19 0 -25z m-22 -18 c-5 -8 -11 -8 -17 -2 -6 6 -7 16 -3 22 5 8
11 8 17 2 6 -6 7 -16 3 -22z m-645 6 c0 -2 -8 -10 -17 -17 -16 -13 -17 -12 -4
4 13 16 21 21 21 13z m-60 -20 c0 -2 -8 -10 -17 -17 -16 -13 -17 -12 -4 4 13
16 21 21 21 13z m10 -31 c-7 -9 -15 -13 -19 -10 -3 3 1 10 9 15 21 14 24 12
10 -5z m630 1 c0 -3 -4 -8 -10 -11 -5 -3 -10 -1 -10 4 0 6 5 11 10 11 6 0 10
-2 10 -4z m73 -48 c3 -21 2 -38 -4 -38 -5 0 -9 19 -9 42 0 49 5 47 13 -4z
m-526 10 c-3 -8 -6 -5 -6 6 -1 11 2 17 5 13 3 -3 4 -12 1 -19z m-227 -11 c0
-2 -12 -14 -27 -28 l-26 -24 19 27 c16 23 34 36 34 25z m90 -1 c0 -2 -8 -10
-17 -17 -16 -13 -17 -12 -4 4 13 16 21 21 21 13z m127 -68 c-3 -7 -5 -2 -5 12
0 14 2 19 5 13 2 -7 2 -19 0 -25z m753 22 c0 -5 -10 -10 -22 -10 -19 0 -20 2
-8 10 19 13 30 13 30 0z m-361 -17 c-12 -15 -12 -16 4 -10 10 4 16 3 13 -2 -3
-5 -17 -11 -31 -14 l-26 -4 22 23 c26 27 38 32 18 7z m410 -5 c1 7 6 10 11 7
6 -4 8 -11 5 -16 -4 -5 -2 -9 2 -9 5 0 9 -9 9 -20 0 -11 -4 -20 -9 -20 -5 0
-4 -7 3 -15 10 -12 9 -15 -5 -15 -14 0 -16 6 -12 29 4 21 1 34 -13 46 -11 10
-17 22 -13 28 4 6 10 3 14 -9 4 -10 8 -13 8 -6z m-15 -31 c5 5 5 -16 1 -45 -7
-53 -7 -53 33 -91 39 -35 40 -38 22 -49 -24 -15 -33 -15 -25 -2 3 5 0 8 -7 5
-14 -5 -38 37 -38 68 0 24 -18 57 -44 80 l-21 18 25 -12 c20 -9 23 -9 13 1 -6
7 -9 19 -6 26 3 9 -2 14 -13 14 -16 0 -17 2 -4 10 10 6 21 3 36 -11 11 -10 24
-16 28 -12z m-788 -14 c-10 -10 -19 5 -10 18 6 11 8 11 12 0 2 -7 1 -15 -2
-18z m665 -20 c-12 -20 -14 -14 -5 12 4 9 9 14 11 11 3 -2 0 -13 -6 -23z m74
-27 c25 -18 23 -65 -4 -110 -24 -39 -41 -45 -61 -21 -7 8 -18 15 -25 15 -32 0
-19 75 19 113 21 21 46 22 71 3z m-638 -38 c-3 -7 -5 -2 -5 12 0 14 2 19 5 13
2 -7 2 -19 0 -25z m505 21 c-13 -5 -26 -18 -29 -28 -4 -16 -8 -17 -18 -8 -19
17 10 47 44 46 l26 0 -23 -10z m259 -3 c26 -11 34 -21 34 -40 1 -46 -25 -41
-87 17 -38 36 -9 49 53 23z m110 -69 c2 -37 -2 -52 -17 -63 -9 -7 -11 -13 -4
-16 6 -2 5 -11 -5 -26 -12 -16 -26 -22 -56 -22 -47 0 -50 15 -16 75 19 33 28
40 54 40 24 0 29 3 21 12 -6 7 -16 13 -23 13 -6 0 -12 6 -12 14 0 25 57 -2 58
-27z m-874 -14 c-3 -10 -5 -4 -5 12 0 17 2 24 5 18 2 -7 2 -21 0 -30z m910
-17 c-3 -8 -1 -17 6 -20 7 -2 4 -5 -5 -5 -12 -1 -18 6 -18 19 0 11 5 20 11 20
6 0 9 -6 6 -14z m-910 -98 c-2 -13 -4 -3 -4 22 0 25 2 35 4 23 2 -13 2 -33 0
-45z m897 46 c3 -8 2 -12 -4 -9 -6 3 -10 10 -10 16 0 14 7 11 14 -7z m133 -46
c-3 -8 -6 -5 -6 6 -1 11 2 17 5 13 3 -3 4 -12 1 -19z m18 -28 c3 -5 1 -10 -4
-10 -6 0 -11 5 -11 10 0 6 2 10 4 10 3 0 8 -4 11 -10z m-1330 -39 c-39 -16
-75 -21 -75 -12 0 11 24 18 65 19 25 1 26 -1 10 -7z m278 -95 c-10 -13 -34
-44 -53 -69 -19 -26 -39 -46 -43 -47 -9 0 26 51 71 103 17 20 33 45 33 55 1
16 2 16 6 -1 2 -9 -4 -28 -14 -41z m913 -122 c-3 -8 -10 -14 -16 -14 -6 0 -8
5 -5 10 3 6 1 10 -5 10 -6 0 -9 4 -6 9 4 5 0 11 -6 14 -7 2 -10 8 -6 12 4 4
14 2 23 -5 13 -11 15 -9 16 11 2 20 3 20 6 -4 3 -16 2 -35 -1 -43z m-1048 1
c-3 -3 -9 2 -12 12 -6 14 -5 15 5 6 7 -7 10 -15 7 -18z m-31 9 c-3 -3 -12 -4
-19 -1 -8 3 -5 6 6 6 11 1 17 -2 13 -5z m1013 -4 c13 -9 13 -10 0 -10 -8 0
-22 5 -30 10 -13 9 -13 10 0 10 8 0 22 -5 30 -10z m-862 -45 c-3 -3 -9 2 -12
12 -6 14 -5 15 5 6 7 -7 10 -15 7 -18z m174 -31 c13 1 28 5 33 8 16 10 50 -24
70 -69 11 -26 23 -39 32 -36 7 3 13 0 13 -6 0 -6 5 -11 11 -11 5 0 7 5 4 10
-3 6 -1 10 4 10 6 0 11 -4 11 -10 0 -5 6 -10 13 -10 19 0 40 -86 26 -111 -6
-12 -8 -23 -5 -27 3 -3 6 0 6 6 0 7 5 12 11 12 6 0 9 -6 6 -12 -2 -7 0 -25 4
-41 5 -16 4 -25 -2 -22 -5 4 -9 12 -9 20 0 8 -5 17 -12 21 -8 5 -9 2 -5 -11 6
-14 3 -16 -13 -12 -11 3 -18 1 -15 -3 3 -5 -4 -15 -15 -23 -11 -7 -17 -17 -13
-20 6 -7 -12 -11 -30 -8 -5 1 -6 -3 -2 -8 3 -6 12 -8 20 -4 9 3 15 -1 15 -9 0
-18 36 -20 51 -2 6 8 18 14 26 14 8 0 11 5 8 13 -4 6 0 4 8 -5 8 -10 19 -18
25 -18 5 0 13 -7 16 -16 3 -9 2 -12 -5 -9 -35 22 -89 6 -89 -27 0 -8 4 -7 11
5 11 19 39 24 39 6 0 -5 -4 -8 -9 -5 -5 3 -11 -3 -14 -13 -5 -20 22 -25 35 -6
5 6 8 4 8 -6 0 -8 -6 -21 -12 -28 -11 -11 -9 -13 10 -8 15 4 22 1 22 -10 0
-13 3 -13 18 -2 14 11 15 11 5 -1 -7 -8 -13 -24 -13 -37 0 -13 -5 -23 -11 -23
-7 0 -9 10 -5 25 4 14 3 24 -1 23 -5 -1 -21 6 -36 16 -34 23 -60 9 -36 -20 8
-10 9 -15 3 -11 -11 6 -29 -19 -26 -35 2 -11 -27 -18 -33 -8 -4 6 -11 10 -16
10 -6 0 -7 -4 -4 -10 9 -14 -9 -12 -24 3 -10 10 -15 9 -25 -5 -12 -16 -13 -16
-26 3 -14 19 -15 19 -22 -1 -4 -11 -14 -20 -23 -20 -21 0 -19 17 5 37 11 10
20 24 20 33 0 13 -1 13 -10 0 -8 -12 -10 -11 -10 7 0 12 -6 23 -12 25 -9 3 -8
9 5 22 17 18 24 41 8 32 -4 -3 -15 2 -24 12 -11 12 -17 48 -20 132 -3 63 -6
115 -7 115 -1 0 -3 16 -6 35 -2 19 -9 50 -14 70 -5 19 -10 47 -10 63 0 27 0
27 19 8 11 -11 30 -19 43 -17z m602 -29 c-3 -29 1 -38 19 -45 22 -9 22 -9 1
-9 -19 -1 -21 -5 -14 -42 6 -32 4 -46 -8 -60 -19 -22 -37 -24 -48 -7 -5 7 -2
9 8 6 11 -5 15 3 16 33 1 22 -2 38 -7 35 -5 -3 -15 2 -22 11 -12 14 -11 15 9
9 24 -8 24 -8 28 54 3 51 3 50 12 50 5 0 7 -16 6 -35z m-1154 5 c-8 -5 -19
-10 -25 -10 -5 0 -3 5 5 10 8 5 20 10 25 10 6 0 3 -5 -5 -10z m1095 -110 c-3
-5 -3 -15 1 -21 4 -8 9 -7 15 2 6 10 9 10 9 2 0 -19 -17 -24 -30 -8 -10 13 -7
35 6 35 3 0 2 -4 -1 -10z m-738 -69 c-15 -6 -18 6 -10 35 l7 29 6 -30 c3 -16
2 -32 -3 -34z m463 43 c0 -2 -7 -4 -15 -4 -8 0 -15 4 -15 10 0 5 7 7 15 4 8
-4 15 -8 15 -10z m-687 -22 c-2 -7 2 -12 8 -12 5 0 7 -4 4 -10 -3 -5 -15 -10
-26 -10 -14 0 -19 7 -19 26 0 19 4 25 18 22 9 -2 16 -10 15 -16z m1100 -55
c33 -15 57 -32 57 -41 0 -8 9 -20 20 -26 11 -6 20 -17 20 -24 0 -13 -66 9
-180 60 -33 15 -60 40 -60 55 0 15 88 0 143 -24z m-888 -7 c3 -5 1 -10 -4 -10
-6 0 -10 -3 -10 -7 5 -28 -3 -35 -14 -13 -10 20 -20 25 -47 23 -23 -1 -29 1
-19 8 19 12 86 11 94 -1z m-135 -5 c0 -8 -38 -21 -83 -29 -27 -5 -37 -4 -32 3
3 6 18 11 33 11 15 0 34 5 42 10 16 10 40 13 40 5z m570 -81 c0 -8 -4 -14 -10
-14 -5 0 -10 9 -10 21 0 11 5 17 10 14 6 -3 10 -13 10 -21z m-27 -3 c2 -10 1
-25 -4 -32 -6 -10 -9 -4 -9 19 0 36 5 42 13 13z m-23 -12 c0 -11 -4 -18 -10
-14 -5 3 -7 12 -3 20 7 21 13 19 13 -6z m140 -59 c0 -11 -4 -20 -9 -20 -5 0
-7 9 -4 20 3 11 7 20 9 20 2 0 4 -9 4 -20z m225 -90 c3 -5 -3 -10 -14 -10 -12
0 -21 5 -21 10 0 6 6 10 14 10 8 0 18 -4 21 -10z m-283 -28 c-7 -2 -9 -9 -6
-14 4 -6 2 -8 -4 -4 -6 3 -13 2 -17 -4 -3 -5 -14 -10 -23 -10 -13 1 -9 7 12
25 17 13 34 21 40 18 6 -4 6 -8 -2 -11z m73 0 c-3 -3 -11 0 -18 7 -9 10 -8 11
6 5 10 -3 15 -9 12 -12z m156 -9 c-12 -20 -14 -14 -5 12 4 9 9 14 11 11 3 -2
0 -13 -6 -23z m53 11 c23 -9 20 -24 -4 -24 -11 0 -20 -5 -20 -12 0 -6 -3 -9
-6 -5 -6 5 4 47 11 47 2 0 10 -3 19 -6z m-610 -29 c3 -8 1 -15 -4 -15 -6 0
-10 7 -10 15 0 8 2 15 4 15 2 0 6 -7 10 -15z m482 -62 c-3 -21 -9 -74 -12
-118 -3 -44 -9 -82 -13 -85 -3 -3 -8 -14 -9 -25 -2 -11 -8 -25 -13 -31 -5 -6
-6 -14 -2 -18 4 -3 8 -14 9 -24 2 -12 -2 -10 -16 8 -13 17 -15 27 -7 32 7 4 7
11 -3 23 -12 15 -12 19 3 30 9 7 17 22 17 33 0 11 4 23 9 26 4 3 9 38 10 77 2
65 13 109 27 109 3 0 3 -17 0 -37z m-373 -9 c15 -3 32 -14 37 -24 19 -35 9
-197 -11 -184 -5 3 -9 0 -9 -5 0 -10 14 -15 33 -12 5 1 6 -3 2 -8 -3 -6 5 -15
17 -22 41 -22 46 -49 8 -49 -10 0 -23 -8 -29 -17 -8 -15 -12 -16 -23 -4 -11
12 -11 13 1 6 11 -6 13 -4 8 8 -3 9 -1 19 5 23 7 4 8 3 4 -4 -4 -7 -3 -12 3
-12 12 0 25 19 14 22 -4 0 -29 2 -55 3 -25 1 -54 5 -62 8 -10 4 -16 1 -16 -7
0 -17 -40 -29 -41 -13 0 8 -2 8 -6 0 -2 -7 -9 -13 -14 -13 -6 0 -7 5 -4 10 3
6 2 10 -4 10 -5 0 -13 -9 -16 -20 -4 -11 -10 -18 -15 -15 -5 3 -11 -4 -15 -15
-4 -11 -11 -18 -16 -15 -5 4 -9 2 -9 -4 0 -15 14 -21 40 -14 22 6 22 7 5 20
-17 12 -17 13 -2 13 9 0 17 5 17 10 0 6 7 10 15 10 8 0 15 -4 15 -10 0 -5 -4
-10 -10 -10 -22 0 -7 -16 33 -35 23 -11 45 -24 49 -29 4 -6 16 -2 29 9 12 11
19 14 15 8 -10 -18 -2 -16 24 7 l24 20 26 -25 c28 -26 43 -25 32 3 -5 15 -4
15 11 3 13 -10 17 -10 17 -1 0 9 4 10 13 2 9 -8 16 -6 25 8 10 16 7 23 -21 46
-30 25 -31 26 -3 9 81 -49 97 -57 109 -52 9 3 13 -6 12 -37 -1 -22 5 -61 12
-86 8 -25 19 -72 24 -105 6 -33 15 -63 21 -66 6 -4 7 -12 2 -20 -5 -8 -7 -22
-5 -33 1 -10 -2 -15 -7 -12 -6 3 -13 37 -17 76 -4 39 -11 73 -16 76 -5 3 -9
14 -9 26 0 17 -4 19 -27 13 -15 -3 -31 -12 -35 -18 -6 -9 -8 -8 -8 2 0 8 -2
12 -5 9 -3 -3 0 -23 8 -45 10 -31 11 -42 1 -51 -16 -15 -27 11 -11 27 8 8 8
11 0 11 -15 0 -34 -25 -25 -34 4 -4 -2 -14 -12 -22 -11 -8 -14 -14 -7 -14 7 0
9 -4 6 -10 -3 -5 -13 -10 -21 -10 -9 0 -12 5 -8 12 5 8 2 9 -9 5 -19 -7 -67
11 -67 25 0 11 43 6 51 -6 4 -5 14 -6 23 -3 21 8 20 53 -1 66 -16 9 -16 10 5
11 13 0 22 6 22 16 0 13 -3 14 -14 5 -7 -6 -24 -10 -36 -9 -13 2 -25 -3 -28
-11 -3 -8 0 -11 7 -7 6 4 11 3 11 -3 0 -5 3 -18 6 -28 6 -15 4 -16 -6 -6 -11
10 -17 10 -29 0 -14 -11 -14 -10 -2 6 7 9 12 18 10 18 -24 7 -58 6 -53 -2 3
-6 13 -8 23 -5 12 5 11 2 -3 -9 -11 -8 -22 -11 -25 -6 -11 16 -28 -14 -20 -34
7 -18 8 -17 9 5 2 19 4 20 7 7 5 -18 5 -18 19 0 10 14 13 15 14 3 0 -8 -4 -20
-8 -25 -9 -14 -52 -17 -52 -4 0 5 -9 1 -19 -8 -11 -10 -26 -23 -34 -30 -14
-11 -16 -70 -3 -92 4 -6 2 -11 -3 -11 -6 0 -11 -7 -11 -15 0 -35 -18 -11 -29
38 -7 28 -14 62 -17 73 -5 19 -1 23 35 29 50 8 54 15 46 66 -6 37 -9 40 -32
34 -84 -21 -76 -27 -105 82 -15 54 -32 123 -38 154 -6 31 -20 65 -30 77 -23
24 -20 26 68 37 33 4 56 13 59 22 4 11 15 13 39 9 19 -4 35 -2 39 4 4 6 3 10
-2 9 -4 -1 -21 1 -36 6 -21 5 -27 13 -25 29 2 14 9 20 21 18 25 -4 21 15 -4
21 -17 5 -20 11 -15 29 3 13 6 34 6 47 0 16 4 21 15 17 9 -3 19 3 25 15 7 12
18 18 28 15 9 -3 29 -8 45 -12z m215 -11 c-4 -22 -22 -20 -26 1 -2 10 3 16 13
16 10 0 15 -7 13 -17z m32 -13 c0 -5 -4 -10 -10 -10 -5 0 -10 5 -10 10 0 6 5
10 10 10 6 0 10 -4 10 -10z m207 -22 c-3 -8 -6 -5 -6 6 -1 11 2 17 5 13 3 -3
4 -12 1 -19z m-2091 2 c13 0 24 -4 24 -10 0 -12 -61 -1 -75 13 -7 7 -4 8 8 3
10 -3 30 -6 43 -6z m1843 -13 c21 5 22 4 12 -16 -14 -25 -27 -27 -39 -5 -6 11
-11 13 -16 5 -10 -15 -36 -14 -36 2 0 7 5 18 12 25 9 9 15 8 28 -3 9 -8 25
-12 39 -8z m-1739 -5 c0 -5 -13 -7 -30 -4 -16 2 -30 6 -30 8 0 2 14 4 30 4 17
0 30 -4 30 -8z m2000 -31 c0 -17 -28 -43 -39 -37 -6 4 -9 11 -6 16 3 5 0 12
-7 16 -8 5 -6 10 8 14 20 8 44 3 44 -9z m-271 -24 c28 -12 30 -15 17 -27 -14
-10 -16 -10 -16 6 0 14 -3 15 -12 6 -18 -18 -28 -15 -28 8 0 24 -1 24 39 7z
m-686 -43 c81 -51 94 -109 23 -109 -37 0 -37 0 -62 -70 -13 -38 -28 -79 -34
-90 -5 -11 -14 -32 -19 -47 l-10 -27 -55 30 c-62 34 -76 48 -21 22 19 -9 37
-14 40 -11 13 12 -17 58 -52 82 -42 29 -38 34 7 11 41 -21 39 -13 -7 40 -10
11 -10 14 0 18 8 4 4 12 -13 26 -17 14 -19 19 -7 15 15 -6 17 -3 11 21 -5 20
-4 26 5 21 7 -5 15 4 22 23 9 25 17 31 39 31 19 0 33 8 44 25 9 14 20 25 24
25 4 0 33 -16 65 -36z m331 9 c-10 -40 -14 -41 -14 -5 0 18 5 32 10 32 6 0 8
-11 4 -27z m286 -17 c0 -3 -4 -8 -10 -11 -5 -3 -10 -1 -10 4 0 6 5 11 10 11 6
0 10 -2 10 -4z m50 -11 c-7 -9 -15 -13 -17 -11 -7 7 7 26 19 26 6 0 6 -6 -2
-15z m-74 -34 c3 -17 1 -31 -3 -31 -5 0 -10 17 -11 37 -3 43 7 39 14 -6z
m-466 9 c0 -5 -9 -10 -21 -10 -11 0 -17 5 -14 10 3 6 13 10 21 10 8 0 14 -4
14 -10z m640 -21 c0 -5 -4 -9 -10 -9 -5 0 -10 7 -10 16 0 8 5 12 10 9 6 -3 10
-10 10 -16z m-90 -13 c0 -3 -4 -8 -10 -11 -5 -3 -10 -1 -10 4 0 6 5 11 10 11
6 0 10 -2 10 -4z m100 -26 c0 -5 -5 -10 -11 -10 -5 0 -7 5 -4 10 3 6 8 10 11
10 2 0 4 -4 4 -10z m-760 -20 c0 -5 -2 -10 -4 -10 -3 0 -8 5 -11 10 -3 6 -1
10 4 10 6 0 11 -4 11 -10z m113 3 c-7 -2 -21 -2 -30 0 -10 3 -4 5 12 5 17 0
24 -2 18 -5z m374 -9 c-3 -3 -12 -4 -19 -1 -8 3 -5 6 6 6 11 1 17 -2 13 -5z
m-300 -26 c-3 -8 -6 -5 -6 6 -1 11 2 17 5 13 3 -3 4 -12 1 -19z m296 -12 c4
-10 1 -13 -9 -9 -7 3 -14 0 -14 -7 0 -6 -5 -8 -10 -5 -8 5 -7 11 1 21 15 18
25 18 32 0z m325 -10 c3 -11 0 -16 -7 -11 -6 3 -9 10 -6 15 3 5 -3 11 -12 14
-14 4 -14 4 2 3 11 -1 21 -11 23 -21z m-633 -5 c-8 -13 -108 -33 -147 -29 -26
3 -15 7 47 19 100 20 108 21 100 10z m385 -1 c0 -5 -5 -10 -11 -10 -5 0 -7 5
-4 10 3 6 8 10 11 10 2 0 4 -4 4 -10z m-135 -20 c-3 -5 -12 -10 -18 -10 -7 0
-6 4 3 10 19 12 23 12 15 0z m375 -10 c0 -5 -2 -10 -4 -10 -3 0 -8 5 -11 10
-3 6 -1 10 4 10 6 0 11 -4 11 -10z m17 -32 c-3 -8 -6 -5 -6 6 -1 11 2 17 5 13
3 -3 4 -12 1 -19z m-15 -100 c-7 -7 -12 -8 -12 -2 0 14 12 26 19 19 2 -3 -1
-11 -7 -17z m52 4 c3 -5 -1 -9 -9 -9 -8 0 -12 4 -9 9 3 4 7 8 9 8 2 0 6 -4 9
-8z m-1083 -39 c13 -16 12 -17 -3 -4 -10 7 -18 15 -18 17 0 8 8 3 21 -13z
m104 -63 c3 -5 2 -10 -4 -10 -5 0 -13 5 -16 10 -3 6 -2 10 4 10 5 0 13 -4 16
-10z m499 -26 c3 -8 2 -12 -4 -9 -6 3 -10 10 -10 16 0 14 7 11 14 -7z m-90
-34 c4 -25 3 -31 -4 -20 -5 8 -10 26 -10 39 0 32 6 24 14 -19z m691 29 c11
-17 -1 -21 -15 -4 -8 9 -8 15 -2 15 6 0 14 -5 17 -11z m-75 -29 c0 -5 -4 -10
-10 -10 -5 0 -10 5 -10 10 0 6 5 10 10 10 6 0 10 -4 10 -10z m40 -21 c0 -6 -4
-7 -10 -4 -5 3 -10 11 -10 16 0 6 5 7 10 4 6 -3 10 -11 10 -16z m30 0 c0 -5
-4 -9 -10 -9 -5 0 -10 7 -10 16 0 8 5 12 10 9 6 -3 10 -10 10 -16z m-420 1 c0
-5 -7 -6 -17 -3 -11 4 -14 3 -9 -5 4 -7 2 -12 -3 -12 -12 0 -14 13 -4 23 10
10 33 8 33 -3z m125 0 c3 -5 2 -10 -4 -10 -5 0 -13 5 -16 10 -3 6 -2 10 4 10
5 0 13 -4 16 -10z m148 -40 c-3 -11 -9 -20 -14 -20 -10 0 -12 24 -2 33 13 13
21 7 16 -13z m-253 6 c0 -2 -7 -7 -16 -10 -8 -3 -12 -2 -9 4 6 10 25 14 25 6z
m314 -12 c5 -14 4 -15 -9 -4 -17 14 -19 20 -6 20 5 0 12 -7 15 -16z m41 6 c3
-5 2 -10 -4 -10 -5 0 -13 5 -16 10 -3 6 -2 10 4 10 5 0 13 -4 16 -10z m-1108
-26 c-3 -3 -12 -4 -19 -1 -8 3 -5 6 6 6 11 1 17 -2 13 -5z m1003 -20 c0 -3 -5
-2 -12 2 -8 5 -9 2 -5 -9 3 -10 2 -17 -2 -17 -5 0 -12 7 -15 16 -11 28 -7 35
14 24 11 -6 20 -13 20 -16z m40 -4 c0 -5 -7 -10 -15 -10 -8 0 -15 5 -15 10 0
6 7 10 15 10 8 0 15 -4 15 -10z m40 2 c0 -5 -7 -9 -15 -9 -8 0 -12 4 -9 9 3 4
9 8 15 8 5 0 9 -4 9 -8z m40 -2 c0 -5 -4 -10 -10 -10 -5 0 -10 5 -10 10 0 6 5
10 10 10 6 0 10 -4 10 -10z m-1028 -29 c36 -25 46 -39 61 -88 20 -63 85 -202
140 -299 l35 -61 -27 -31 c-29 -31 -68 -55 -111 -66 -14 -4 1 8 32 27 32 18
60 36 64 39 3 3 -7 30 -22 60 -65 129 -132 209 -189 228 -28 9 -46 40 -23 40
5 0 7 4 4 8 -3 5 -6 26 -8 46 -2 36 -37 86 -60 86 -5 0 -2 8 8 17 13 13 19 14
22 5 5 -17 22 -15 22 3 0 20 2 19 52 -14z m878 -11 c0 -5 -5 -10 -11 -10 -5 0
-7 5 -4 10 3 6 8 10 11 10 2 0 4 -4 4 -10z m34 -15 c-4 -8 -8 -15 -10 -15 -2
0 -4 7 -4 15 0 8 4 15 10 15 5 0 7 -7 4 -15z m52 3 c4 -7 3 -8 -4 -4 -7 4 -12
2 -12 -5 0 -7 -3 -10 -6 -6 -6 5 3 27 11 27 2 0 7 -5 11 -12z m35 -11 c-13
-13 -26 -3 -16 12 3 6 11 8 17 5 6 -4 6 -10 -1 -17z m57 0 c3 -12 -4 -17 -22
-17 -28 0 -33 9 -14 28 15 15 32 10 36 -11z m-585 -26 c-2 -6 2 -11 8 -11 5 0
8 -4 5 -9 -3 -5 1 -14 8 -21 18 -14 17 -50 -1 -50 -7 0 -13 7 -13 15 0 23 0
22 -16 61 -12 28 -12 35 -2 31 7 -2 12 -10 11 -16z m370 -16 c-5 -13 -23 -22
-23 -11 0 15 14 35 21 31 4 -3 6 -12 2 -20z m57 8 c0 -5 -4 -15 -10 -23 -11
-18 -25 -7 -17 15 6 15 27 21 27 8z m80 -7 c0 -3 -4 -8 -10 -11 -5 -3 -10 -1
-10 4 0 6 5 11 10 11 6 0 10 -2 10 -4z m-167 -56 c-5 -20 -15 -25 -26 -14 -9
9 12 46 23 39 4 -3 6 -14 3 -25z m140 -5 c-3 -9 -8 -14 -10 -11 -3 3 -2 9 2
15 9 16 15 13 8 -4z m-169 -50 c-4 -8 -8 -15 -10 -15 -2 0 -4 7 -4 15 0 8 4
15 10 15 5 0 7 -7 4 -15z m286 -9 c0 -21 -21 -31 -31 -15 -14 22 -11 29 11 29
11 0 20 -6 20 -14z m47 -3 c3 -9 -8 -10 -35 -4 -2 1 0 6 3 12 8 12 27 7 32 -8z
m-116 -46 c-1 -4 -1 -14 -1 -22 0 -8 -7 -15 -15 -15 -8 0 -15 2 -15 4 0 2 -3
12 -7 22 -4 12 -3 15 5 10 7 -4 12 -2 12 4 0 7 5 10 11 8 6 -2 10 -7 10 -11z
m55 2 c3 -6 0 -15 -7 -20 -14 -8 -32 9 -23 23 7 11 22 10 30 -3z m34 -19 c-18
-11 -24 -6 -16 16 5 14 9 15 19 5 9 -9 9 -14 -3 -21z m57 14 c2 -6 -3 -11 -12
-11 -8 0 -15 7 -15 15 0 15 22 12 27 -4z m-207 -4 c0 -5 -4 -10 -10 -10 -5 0
-10 5 -10 10 0 6 5 10 10 10 6 0 10 -4 10 -10z m72 -42 c32 3 46 -14 21 -26
-19 -9 -88 20 -76 31 3 4 11 3 17 0 6 -4 23 -6 38 -5z m68 -7 c0 -6 -4 -13
-10 -16 -5 -3 -10 1 -10 9 0 9 5 16 10 16 6 0 10 -4 10 -9z m50 -1 c0 -5 -4
-10 -10 -10 -5 0 -10 5 -10 10 0 6 5 10 10 10 6 0 10 -4 10 -10z m-375 -67
c-1 -23 -5 -27 -24 -25 -13 2 -27 -2 -31 -8 -4 -7 -7 3 -7 22 1 32 3 34 30 30
23 -4 28 -1 22 8 -5 8 -4 11 2 7 5 -4 9 -19 8 -34z m198 2 c-6 -18 -19 -19
-29 -4 -7 12 15 31 28 23 4 -3 5 -11 1 -19z m63 -2 c-3 -8 -6 -17 -6 -19 0 -3
-4 -2 -10 1 -17 11 -12 45 6 38 8 -3 13 -12 10 -20z m54 8 c0 -5 -7 -11 -15
-15 -9 -3 -15 0 -15 9 0 8 7 15 15 15 8 0 15 -4 15 -9z m-605 -60 c12 -25 12
-32 -3 -64 -9 -21 -19 -37 -23 -37 -4 0 -12 21 -18 48 -7 26 -14 55 -17 64 -3
10 2 18 13 20 24 6 31 2 48 -31z m475 -7 c0 -8 -7 -14 -15 -14 -8 0 -15 9 -15
20 0 13 5 18 15 14 8 -4 15 -12 15 -20z m55 16 c3 -5 -1 -10 -9 -10 -9 0 -16
5 -16 10 0 6 4 10 9 10 6 0 13 -4 16 -10z m39 -15 c-4 -8 -8 -15 -10 -15 -2 0
-4 7 -4 15 0 8 4 15 10 15 5 0 7 -7 4 -15z m-212 -52 c11 -10 29 -18 40 -18
12 0 23 -7 26 -15 5 -13 3 -13 -14 0 -18 14 -18 14 -1 -6 21 -25 21 -31 2 -50
-10 -11 -12 -21 -6 -33 7 -13 5 -17 -8 -18 -10 -1 -17 6 -17 18 0 10 4 19 8
19 4 0 0 16 -9 35 -9 19 -21 31 -26 28 -6 -4 -8 2 -5 15 5 19 3 20 -13 11 -21
-11 -22 -9 -13 15 8 20 13 20 36 -1z m76 -1 c2 -7 -2 -10 -12 -6 -9 3 -16 11
-16 16 0 13 23 5 28 -10z m69 -8 c-9 -9 -28 6 -21 18 4 6 10 6 17 -1 6 -6 8
-13 4 -17z m116 19 c3 -5 -1 -13 -8 -20 -10 -10 -16 -9 -25 1 -8 11 -8 15 2
19 19 8 26 8 31 0z m-109 -85 c15 -15 38 -28 49 -28 11 0 31 -10 44 -22 l23
-21 0 21 c0 11 5 24 10 27 6 4 10 -7 10 -24 0 -21 -5 -31 -15 -31 -8 0 -16 -4
-16 -10 -1 -5 -2 -15 -3 -22 0 -6 -7 -13 -15 -16 -10 -3 -13 2 -9 22 7 36 -8
33 -21 -5 -6 -18 -11 -33 -11 -34 0 -2 9 -5 20 -8 26 -7 26 -23 -1 -30 -16 -4
-18 -3 -9 8 9 11 7 12 -9 8 -12 -3 -18 -10 -15 -15 4 -6 -2 -5 -14 1 -11 6
-41 11 -66 11 -37 0 -48 -4 -62 -25 -8 -13 -12 -30 -8 -36 4 -8 3 -9 -4 -5
-29 18 -2 68 43 79 11 3 4 5 -17 6 -30 1 -41 -4 -55 -26 l-17 -26 -7 24 c-7
30 -3 39 22 39 10 0 19 5 19 10 0 14 -64 12 -79 -2 -10 -11 -12 -9 -9 7 3 16
11 20 48 20 25 0 53 -4 63 -8 13 -6 17 -3 17 13 0 23 4 24 32 9 16 -9 23 -8
29 2 13 21 11 26 -13 25 -17 -1 -24 5 -26 22 -2 12 1 22 6 22 11 0 11 18 -1
36 -3 6 -4 14 -1 17 10 10 38 -5 68 -35z m99 25 c3 -5 -1 -14 -9 -21 -12 -11
-14 -9 -14 8 0 20 14 27 23 13z m-653 -40 c-1 -19 -16 -31 -29 -24 -7 5 -10
14 -7 20 8 12 36 15 36 4z m410 -63 c0 -5 -7 -10 -16 -10 -8 0 -12 5 -9 10 3
6 10 10 16 10 5 0 9 -4 9 -10z m267 -57 c-3 -10 -5 -4 -5 12 0 17 2 24 5 18 2
-7 2 -21 0 -30z m-354 -48 c-3 -9 -8 -14 -10 -11 -3 3 -2 9 2 15 9 16 15 13 8
-4z m-329 -50 l6 -30 -14 25 c-8 14 -12 28 -9 33 7 11 9 7 17 -28z m699 10 c7
-16 -8 -29 -23 -20 -10 6 -2 35 10 35 4 0 10 -7 13 -15z m-1 -46 c16 -8 22 -8
29 2 6 11 9 10 15 -4 3 -10 5 -20 3 -22 -7 -6 -103 16 -113 26 -14 13 41 11
66 -2z m554 -224 c1 -39 0 -45 -3 -17 -3 31 -8 42 -21 42 -29 0 -97 -22 -104
-33 -12 -19 -19 -1 -10 24 7 17 22 27 53 35 77 21 84 18 85 -51z m-906 -12
c-1 -14 -30 -47 -36 -41 -6 7 17 48 28 48 5 0 8 -3 8 -7z m677 -45 c-2 -13 -4
-5 -4 17 -1 22 1 32 4 23 2 -10 2 -28 0 -40z m-694 -81 c-8 -13 -32 13 -26 29
4 12 8 12 18 -3 7 -10 11 -21 8 -26z m716 -97 c0 -9 -4 -8 -9 5 -5 11 -9 27
-9 35 0 9 4 8 9 -5 5 -11 9 -27 9 -35z m151 44 c0 -8 -19 -13 -24 -6 -3 5 1 9
9 9 8 0 15 -2 15 -3z m-107 -105 c16 16 37 14 37 -4 0 -12 -28 -35 -44 -35 -6
0 -36 68 -36 79 1 3 8 -7 16 -23 12 -21 19 -25 27 -17z m-323 24 c-8 -3 -17
-9 -20 -13 -6 -9 -50 -23 -50 -16 0 9 54 35 70 35 13 -1 13 -1 0 -6z m-845
-253 c3 -5 -1 -10 -9 -10 -9 0 -16 5 -16 10 0 6 4 10 9 10 6 0 13 -4 16 -10z
m-981 -85 c11 -8 17 -17 15 -20 -3 -2 -21 9 -40 26 -33 29 -14 25 25 -6z m126
-10 c0 -13 -4 -14 -20 -5 -11 6 -20 13 -20 15 0 3 9 5 20 5 11 0 20 -7 20 -15z
m-380 -325 c0 -9 -31 -23 -37 -16 -3 3 1 11 8 19 14 15 29 13 29 -3z m2045
-12 c17 3 25 0 25 -10 0 -17 -29 -20 -47 -5 -7 5 -13 15 -12 21 0 8 2 8 5 0 3
-6 16 -9 29 -6z m-115 -12 c0 -2 -8 -10 -17 -17 -16 -13 -17 -12 -4 4 13 16
21 21 21 13z m-1995 -26 c-10 -11 -20 -18 -23 -15 -7 6 18 35 31 35 5 0 2 -9
-8 -20z m275 0 c0 -9 -50 -44 -55 -38 -1 2 -6 14 -10 27 -5 15 -4 21 3 17 6
-3 13 -2 16 3 7 10 46 3 46 -9z m-345 -10 c3 -5 -1 -10 -10 -10 -9 0 -13 5
-10 10 3 6 8 10 10 10 2 0 7 -4 10 -10z m2118 -65 c-3 -9 -8 -14 -10 -11 -3 3
-2 9 2 15 9 16 15 13 8 -4z m-59 -25 c-6 -6 -10 -3 -10 10 0 13 4 16 10 10 7
-7 7 -13 0 -20z m104 18 c-5 -14 -38 -20 -38 -6 0 6 7 8 15 4 8 -3 15 -1 15 4
0 6 3 10 6 10 3 0 4 -5 2 -12z m-128 -12 c0 -8 -5 -18 -12 -22 -8 -5 -9 -1 -4
12 6 15 5 16 -5 7 -15 -15 -22 -46 -9 -38 5 3 12 0 16 -6 5 -8 -1 -10 -20 -7
-14 3 -26 1 -26 -3 0 -5 6 -9 13 -10 6 -1 21 -2 32 -3 27 -1 26 -30 -1 -34
-14 -2 -27 6 -39 24 -16 25 -16 28 -1 39 8 7 13 15 9 18 -8 9 17 37 33 37 8 0
14 -6 14 -14z m-113 -66 c-1 -11 -4 -20 -8 -20 -4 0 -12 -13 -19 -30 -13 -31
-24 -37 -35 -20 -3 6 -2 10 3 10 5 0 15 12 22 28 15 29 31 52 36 52 1 0 2 -9
1 -20z m164 -2 c9 1 16 -4 16 -13 0 -10 -4 -12 -10 -6 -7 7 -15 5 -24 -7 -11
-15 -12 -15 -7 -1 3 10 1 20 -5 24 -6 3 -11 12 -11 18 1 8 5 6 13 -3 7 -9 19
-14 28 -12z m434 2 c3 -5 2 -10 -4 -10 -5 0 -13 5 -16 10 -3 6 -2 10 4 10 5 0
13 -4 16 -10z m-1345 -34 c0 -17 -14 -29 -23 -20 -8 8 3 34 14 34 5 0 9 -6 9
-14z m1270 4 c0 -5 -5 -10 -11 -10 -5 0 -7 5 -4 10 3 6 8 10 11 10 2 0 4 -4 4
-10z m105 -28 c-3 -3 -11 0 -18 7 -9 10 -8 11 6 5 10 -3 15 -9 12 -12z m-420
-2 c3 -6 -1 -7 -9 -4 -18 7 -21 14 -7 14 6 0 13 -4 16 -10z m455 0 c0 -5 -4
-10 -10 -10 -5 0 -10 5 -10 10 0 6 5 10 10 10 6 0 10 -4 10 -10z m-885 -22 c6
-4 2 -8 -7 -8 -10 0 -18 7 -18 17 0 9 3 12 8 7 4 -5 12 -12 17 -16z m385 -12
c0 -1 -7 -3 -15 -3 -8 0 -15 5 -15 11 0 6 -5 4 -10 -4 -5 -8 -10 -10 -10 -4 0
18 12 24 31 13 11 -5 19 -11 19 -13z m40 3 c0 -6 -4 -7 -10 -4 -5 3 -10 11
-10 16 0 6 5 7 10 4 6 -3 10 -11 10 -16z m83 -10 c-9 -9 -12 -7 -10 9 1 14 5
18 11 12 7 -7 6 -14 -1 -21z m-281 -24 c7 -16 5 -16 -11 4 -12 12 -18 28 -14
34 4 7 8 6 11 -3 3 -8 9 -24 14 -35z m-2012 5 c0 -16 -42 -23 -51 -9 -13 21 9
41 32 28 10 -5 19 -14 19 -19z m2605 20 c3 -5 1 -10 -4 -10 -6 0 -11 5 -11 10
0 6 2 10 4 10 3 0 8 -4 11 -10z m-240 -20 c3 -6 -1 -7 -9 -4 -18 7 -21 14 -7
14 6 0 13 -4 16 -10z m288 -18 c-2 -16 1 -21 10 -16 6 4 9 4 5 -1 -4 -4 -2
-15 5 -24 10 -14 9 -14 -13 1 -14 9 -24 23 -22 33 2 10 -2 22 -10 27 -9 7 -8
8 7 6 14 -3 19 -11 18 -26z m-499 2 c3 -8 2 -12 -4 -9 -6 3 -10 10 -10 16 0
14 7 11 14 -7z m-2334 -4 c0 -5 -7 -10 -16 -10 -8 0 -12 5 -9 10 3 6 10 10 16
10 5 0 9 -4 9 -10z m2546 -28 c-16 -15 -25 -21 -21 -13 12 21 39 48 44 44 3
-2 -8 -16 -23 -31z m-72 13 c-4 -8 -11 -12 -16 -9 -6 4 -5 10 3 15 19 12 19
11 13 -6z m456 5 c-20 -13 -33 -13 -25 0 3 6 14 10 23 10 15 0 15 -2 2 -10z
m-285 -10 c3 -5 -1 -10 -10 -10 -9 0 -13 5 -10 10 3 6 8 10 10 10 2 0 7 -4 10
-10z m169 -11 c14 -11 26 -25 26 -29 0 -5 -18 -18 -40 -29 -29 -14 -40 -16
-40 -6 0 20 26 36 45 29 13 -5 16 -3 13 7 -3 8 -13 13 -22 13 -9 -1 -16 2 -16
6 0 5 -8 7 -17 5 -10 -1 -12 0 -5 2 6 3 12 9 12 14 0 15 15 11 44 -12z m-2694
0 c0 -4 11 -6 24 -5 17 2 22 -1 19 -14 -3 -10 4 -20 19 -27 20 -9 15 -11 -42
-20 -66 -9 -146 0 -165 19 -11 11 25 7 59 -7 15 -7 17 -5 11 13 -5 16 -2 22
10 22 9 0 13 4 10 10 -3 6 1 7 9 4 9 -3 16 -2 16 3 0 5 7 10 15 10 8 0 15 -4
15 -8z m2470 1 c0 -5 -6 -10 -14 -10 -8 0 -23 -15 -35 -32 -11 -18 -21 -29
-21 -25 0 5 -6 5 -12 0 -17 -10 -68 -11 -68 -1 0 14 22 20 30 8 5 -8 9 -7 14
5 3 9 10 14 14 11 5 -3 24 8 43 24 36 31 49 36 49 20z m-151 -16 c4 3 8 -2 8
-10 0 -21 -22 -11 -24 12 -2 10 0 13 3 6 3 -6 9 -10 13 -8z m41 2 c0 -3 -4 -8
-10 -11 -5 -3 -10 -1 -10 4 0 6 5 11 10 11 6 0 10 -2 10 -4z m227 -2 c-3 -3
-12 -4 -19 -1 -8 3 -5 6 6 6 11 1 17 -2 13 -5z m-112 -14 c3 -5 0 -10 -9 -10
-8 0 -16 -6 -19 -12 -2 -7 -7 -10 -11 -7 -10 9 5 39 19 39 8 0 17 -4 20 -10z
m185 6 c0 -3 -4 -8 -10 -11 -5 -3 -10 -1 -10 4 0 6 5 11 10 11 6 0 10 -2 10
-4z m-2795 -56 c-3 -5 -12 -10 -18 -10 -7 0 -6 4 3 10 19 12 23 12 15 0z
m2725 -66 c0 -2 -7 -4 -15 -4 -8 0 -15 4 -15 10 0 5 7 7 15 4 8 -4 15 -8 15
-10z m-341 -30 c3 -2 -1 -10 -8 -17 -9 -9 -14 -9 -20 1 -5 8 -12 13 -17 12 -5
-1 -10 4 -13 11 -2 8 5 10 25 5 16 -4 31 -10 33 -12z m49 -9 c-3 -3 -9 2 -12
12 -6 14 -5 15 5 6 7 -7 10 -15 7 -18z m-51 -38 c4 -7 0 -8 -11 -4 -10 4 -22
7 -27 7 -5 0 -9 4 -9 9 0 12 38 2 47 -12z m223 -68 c0 -11 -4 -17 -10 -14 -5
3 -10 13 -10 21 0 8 5 14 10 14 6 0 10 -9 10 -21z m-156 -4 c3 -8 1 -15 -4
-15 -6 0 -10 7 -10 15 0 8 2 15 4 15 2 0 6 -7 10 -15z m-19 -108 c11 -6 26
-16 33 -23 14 -14 17 -58 3 -50 -5 4 -12 0 -15 -6 -4 -9 -5 -8 -5 2 3 44 0 47
-78 59 -43 7 -86 13 -95 14 -10 1 -18 5 -18 10 0 5 28 7 61 6 60 -3 62 -2 65
24 1 15 -2 26 -8 24 -6 -1 -13 4 -16 12 -3 8 0 11 7 7 6 -4 11 0 12 11 0 10 8
-4 18 -30 9 -27 25 -54 36 -60z m85 47 c0 -12 -5 -11 -25 2 -14 9 -25 17 -25
19 0 1 11 0 25 -3 14 -2 25 -11 25 -18z m77 -6 c-3 -8 -6 -5 -6 6 -1 11 2 17
5 13 3 -3 4 -12 1 -19z m-161 -102 c8 -25 12 -66 6 -66 -13 0 -32 39 -26 55 4
11 0 15 -16 15 -11 0 -19 4 -16 9 8 12 46 2 52 -13z m139 -46 c14 0 25 -4 25
-10 0 -11 -52 -13 -87 -4 -26 7 -34 24 -26 55 6 22 7 22 34 -9 18 -20 38 -32
54 -32z m-442 30 c4 0 7 -5 7 -10 0 -7 -6 -7 -19 0 -11 5 -29 10 -40 10 -11 0
-22 4 -25 9 -4 5 10 5 32 0 20 -5 40 -9 45 -9z m237 -71 c41 -12 42 -14 36
-48 -3 -20 -6 -42 -6 -50 0 -11 -11 -12 -52 -7 -29 4 -57 11 -62 16 -13 13 14
112 29 106 7 -2 32 -10 55 -17z m-450 -4 c-7 -8 -18 -15 -24 -15 -6 0 -2 7 8
15 25 19 32 19 16 0z m640 -10 c0 -14 -4 -25 -9 -25 -6 0 -8 36 -2 48 5 10 11
-2 11 -23z m145 -362 c-8 -54 -34 -115 -52 -121 -21 -6 -15 18 12 49 15 19 27
49 31 80 4 27 9 48 11 45 3 -3 2 -26 -2 -53z m-453 8 c-12 -10 -22 -22 -22
-26 0 -4 -13 -22 -29 -41 -30 -33 -101 -167 -101 -189 0 -7 -13 -24 -30 -38
-16 -15 -30 -34 -30 -42 0 -8 -4 -15 -8 -15 -4 0 -16 -14 -26 -31 -15 -26 -16
-33 -5 -40 8 -5 9 -9 3 -9 -7 0 -22 9 -35 21 -13 11 -18 18 -11 14 7 -4 16 4
23 22 6 15 27 52 46 82 l36 54 -32 61 c-30 57 -26 56 24 -6 11 -13 16 -18 10
-10 -6 10 -2 19 15 32 14 10 27 17 29 14 6 -6 61 93 61 110 0 8 -8 14 -19 13
-16 -1 -17 -5 -10 -25 13 -34 3 -41 -12 -8 -7 14 -17 26 -22 26 -5 0 -4 -7 3
-15 9 -11 10 -19 3 -26 -8 -8 -11 -6 -10 6 3 24 -20 31 -26 8 -4 -17 -5 -17
-6 0 0 10 10 22 24 29 23 10 23 12 7 25 -12 10 -8 9 16 -2 17 -8 32 -12 32 -7
0 4 17 6 38 4 26 -3 42 1 51 12 8 9 18 16 24 16 5 0 0 -8 -11 -19z m-199 -121
c-3 -11 -9 -17 -15 -14 -5 3 -4 12 3 20 16 19 18 18 12 -6z m24 -12 c2 -17 0
-19 -7 -8 -5 8 -6 18 -4 22 8 12 10 10 11 -14z m979 -24 c-3 -23 -13 -26 -18
-6 -3 11 0 19 7 19 7 0 12 -6 11 -13z m-592 -84 c-45 -34 -54 -36 -54 -14 0 8
4 13 8 10 5 -3 16 4 25 15 9 10 27 19 39 19 18 0 16 -4 -18 -30z m-58 -33 c4
-4 -6 -17 -21 -29 -40 -32 -85 -59 -85 -51 0 3 -9 -2 -20 -12 -11 -10 -20 -29
-20 -42 0 -14 -4 -21 -10 -18 -19 12 -10 44 23 74 17 17 38 31 45 31 7 0 11 4
8 9 -3 5 3 11 14 14 13 3 18 1 13 -5 -3 -7 -1 -8 5 -4 7 4 12 16 12 26 0 17
21 22 36 7z m570 -112 c-11 -47 -20 -56 -30 -30 -7 20 13 75 28 75 9 0 10 -11
2 -45z m-922 -60 c-6 -16 -24 -21 -24 -7 0 11 11 22 21 22 5 0 6 -7 3 -15z
m-29 -27 c17 -18 24 -28 16 -23 -11 6 -13 4 -8 -8 4 -10 0 -20 -11 -26 -10 -6
-12 -11 -4 -11 6 0 12 -4 12 -9 0 -13 -43 -22 -54 -11 -4 4 -14 6 -21 4 -18
-7 -30 15 -16 29 6 6 11 20 11 31 0 17 26 54 40 55 3 1 19 -13 35 -31z m60 22
c3 -5 1 -10 -4 -10 -6 0 -11 5 -11 10 0 6 2 10 4 10 3 0 8 -4 11 -10z m115
-85 c-13 -14 -31 -25 -39 -24 -11 0 -8 3 6 9 12 5 27 19 33 30 6 12 14 19 18
16 3 -3 -5 -17 -18 -31z m-151 -62 c-29 -50 -57 -79 -66 -69 -4 4 -3 10 3 14
6 4 16 17 23 30 11 21 10 22 -31 23 l-43 1 57 12 c32 7 61 15 64 19 17 17 14
4 -7 -30z m312 28 c-8 -5 -11 -16 -8 -25 4 -9 2 -16 -3 -16 -6 0 -10 5 -10 10
0 6 -6 10 -13 10 -21 0 -111 -52 -126 -72 -9 -13 -21 -18 -37 -15 -23 4 -23 3
-9 -30 8 -18 10 -31 5 -28 -6 3 -10 1 -10 -4 0 -6 -7 -11 -15 -11 -8 0 -15 -5
-15 -11 0 -6 7 -8 16 -5 8 3 13 2 9 -3 -3 -5 1 -12 7 -15 7 -3 3 -3 -9 0 -26
6 -28 2 -12 -28 6 -11 7 -18 2 -15 -9 6 -42 -24 -53 -48 -3 -5 -9 -9 -13 -7
-4 1 0 -9 9 -23 9 -14 12 -25 6 -25 -6 0 -14 5 -18 11 -4 8 -9 7 -15 -2 -6
-10 -9 -11 -9 -1 0 6 -4 12 -10 12 -5 0 -7 -8 -3 -17 5 -17 5 -17 -8 -1 -8 10
-30 20 -49 22 -19 3 -37 5 -39 5 -3 1 4 8 15 17 10 8 13 13 7 9 -7 -3 -22 -8
-34 -10 -17 -4 -19 -2 -9 10 10 12 10 18 0 29 -9 12 -8 15 8 13 14 -1 18 -6
14 -22 -5 -20 -5 -20 13 -1 18 18 18 19 0 32 -28 20 -29 84 -1 84 14 0 38 37
28 44 -4 2 -21 6 -39 7 -23 3 -36 -2 -47 -16 -10 -14 -14 -16 -14 -5 3 48 -3
62 -33 74 -22 9 -28 16 -19 21 9 6 6 12 -11 21 -22 12 -22 13 -4 13 28 1 46
-13 42 -30 -2 -8 -2 -10 1 -6 2 5 19 -8 37 -28 l34 -36 78 6 c102 8 157 21
213 49 84 44 197 86 151 57z m-584 -7 c-3 -3 -12 -4 -19 -1 -8 3 -5 6 6 6 11
1 17 -2 13 -5z m403 -24 c0 -5 -4 -10 -10 -10 -5 0 -10 5 -10 10 0 6 5 10 10
10 6 0 10 -4 10 -10z m-114 -48 c-8 -9 -19 -13 -22 -9 -10 9 16 38 28 31 6 -4
4 -13 -6 -22z m468 16 c-7 -10 -35 -10 -51 0 -8 5 1 8 22 8 18 0 31 -4 29 -8z
m-694 -32 c0 -10 -30 0 -34 11 -4 11 -1 11 14 3 11 -6 20 -12 20 -14z m-48
-68 c-5 -21 -18 -23 -28 -6 -4 7 -3 8 4 4 17 -11 15 20 -3 38 -8 8 -15 18 -15
23 0 4 11 -4 23 -17 13 -14 22 -33 19 -42z m49 15 c13 -16 12 -17 -3 -4 -10 7
-18 15 -18 17 0 8 8 3 21 -13z m-157 -9 c3 -8 2 -12 -4 -9 -6 3 -10 10 -10 16
0 14 7 11 14 -7z m146 -14 c0 -5 -7 -7 -15 -4 -8 4 -15 8 -15 10 0 2 7 4 15 4
8 0 15 -4 15 -10z m0 -36 c0 -2 -7 -4 -15 -4 -8 0 -15 4 -15 10 0 5 7 7 15 4
8 -4 15 -8 15 -10z m814 8 c2 -4 -4 -8 -14 -8 -10 0 -16 4 -14 8 3 4 9 8 14 8
5 0 11 -4 14 -8z m-854 -6 c0 -9 -40 -13 -46 -5 -3 5 6 9 20 9 14 0 26 -2 26
-4z m765 -16 c3 -6 -1 -7 -9 -4 -18 7 -21 14 -7 14 6 0 13 -4 16 -10z m125 0
c0 -5 -5 -10 -11 -10 -5 0 -7 5 -4 10 3 6 8 10 11 10 2 0 4 -4 4 -10z m-887
-32 c18 5 4 -8 -24 -22 -28 -14 -31 -14 -51 6 -15 15 -16 20 -6 15 10 -3 19 0
22 9 5 12 10 13 28 2 13 -7 26 -11 31 -10z m527 18 c0 -3 -4 -8 -10 -11 -5 -3
-10 -1 -10 4 0 6 5 11 10 11 6 0 10 -2 10 -4z m-532 -78 c-12 -24 -21 -46 -20
-50 3 -11 -56 13 -69 28 -6 8 -9 18 -5 21 4 4 11 2 15 -6 6 -10 11 -9 24 4 14
13 66 45 75 45 1 0 -8 -19 -20 -42z m-133 3 c3 -5 1 -12 -5 -16 -5 -3 -10 1
-10 9 0 18 6 21 15 7z m730 0 c-12 -10 -107 -42 -112 -37 -2 2 11 9 29 16 18
6 42 16 53 20 27 12 41 12 30 1z m-525 -25 c0 -3 -4 -8 -10 -11 -5 -3 -10 -1
-10 4 0 6 5 11 10 11 6 0 10 -2 10 -4z m53 -16 c-4 -16 -8 -18 -20 -9 -11 10
-11 14 -1 20 21 14 26 10 21 -11z m60 1 c5 -1 6 -5 2 -11 -3 -5 -13 -6 -22 -3
-12 5 -15 2 -10 -10 4 -11 2 -14 -9 -10 -16 6 -16 6 -8 26 3 8 13 14 22 12 9
-2 21 -4 25 -4z m-93 -28 c0 -17 -15 -17 -28 0 -8 10 -6 13 9 13 10 0 19 -6
19 -13z m145 -21 c-3 -3 -11 0 -18 7 -9 10 -8 11 6 5 10 -3 15 -9 12 -12z
m-321 -14 c-18 -57 -51 -82 -62 -48 -3 8 0 10 8 5 9 -5 11 -4 6 4 -8 13 18 44
28 33 4 -3 4 1 0 11 -4 12 -1 17 11 17 12 0 15 -5 9 -22z m561 13 c-12 -11
-91 -33 -80 -23 7 8 64 30 80 31 5 1 5 -2 0 -8z m-413 -41 c14 -16 21 -30 14
-30 -7 0 -22 14 -34 30 -13 17 -19 30 -15 30 5 0 20 -13 35 -30z m468 21 c0
-9 -31 -24 -55 -27 -5 0 -23 -6 -38 -12 -31 -13 -54 -16 -44 -5 11 10 107 42
107 35 0 -3 5 -1 12 6 14 14 18 15 18 3z m-150 -10 c0 -5 -15 -12 -32 -16 -18
-4 -40 -9 -48 -11 -8 -2 -42 -6 -75 -8 -56 -5 -55 -4 18 9 43 8 90 18 105 24
15 5 28 10 30 10 1 1 2 -3 2 -8z m-220 -36 c0 -2 -14 -3 -31 -3 -17 1 -25 4
-18 8 10 7 49 2 49 -5z m115 -15 c-3 -5 -10 -10 -16 -10 -5 0 -9 5 -9 10 0 6
7 10 16 10 8 0 12 -4 9 -10z m-164 -17 c12 -16 12 -17 -2 -6 -9 7 -20 9 -24 5
-5 -4 -5 -1 -1 6 9 16 11 15 27 -5z m49 3 c-4 -4 -16 -4 -26 2 -16 9 -14 10 8
9 15 -1 23 -6 18 -11z m83 0 c6 -15 -1 -26 -15 -26 -5 0 -6 5 -3 10 7 12 -22
26 -33 16 -3 -4 0 -11 8 -16 13 -8 13 -10 -1 -10 -21 0 -29 9 -22 26 3 8 18
14 33 14 15 0 30 -6 33 -14z m-113 -36 c8 -5 13 -10 10 -11 -3 0 -15 -2 -27
-5 -22 -4 -30 6 -16 19 9 9 15 9 33 -3z m-47 -18 c14 -15 14 -19 3 -19 -8 0
-17 9 -19 19 -6 23 -4 23 16 0z m187 8 c0 -5 -4 -10 -9 -10 -6 0 -13 5 -16 10
-3 6 1 10 9 10 9 0 16 -4 16 -10z"/>
<path d="M3040 11285 c-14 -16 -10 -18 14 -9 9 3 16 10 16 15 0 14 -16 11 -30
-6z"/>
<path d="M2967 11284 c7 -3 9 -12 6 -20 -3 -8 1 -14 11 -14 9 0 16 4 16 8 0
12 -22 32 -34 31 -6 0 -6 -3 1 -5z"/>
<path d="M2468 11263 c7 -3 16 -2 19 1 4 3 -2 6 -13 5 -11 0 -14 -3 -6 -6z"/>
<path d="M1500 11145 c-10 -12 -10 -15 4 -15 9 0 16 7 16 15 0 8 -2 15 -4 15
-2 0 -9 -7 -16 -15z"/>
<path d="M2185 10190 c3 -5 8 -10 11 -10 2 0 4 5 4 10 0 6 -5 10 -11 10 -5 0
-7 -4 -4 -10z"/>
<path d="M2950 10416 c0 -2 7 -7 16 -10 8 -3 12 -2 9 4 -6 10 -25 14 -25 6z"/>
<path d="M2925 10389 c-3 -3 1 -12 9 -18 11 -9 15 -7 18 7 5 18 -18 27 -27 11z"/>
<path d="M1895 9990 c-3 -6 1 -7 9 -4 18 7 21 14 7 14 -6 0 -13 -4 -16 -10z"/>
<path d="M2110 9958 c0 -4 4 -8 9 -8 6 0 12 4 15 8 3 5 -1 9 -9 9 -8 0 -15 -4
-15 -9z"/>
<path d="M3530 9883 c0 -15 18 -35 23 -27 3 5 -1 15 -9 22 -8 7 -14 9 -14 5z"/>
<path d="M3772 9295 c0 -16 2 -22 5 -12 2 9 2 23 0 30 -3 6 -5 -1 -5 -18z"/>
<path d="M3781 9224 c0 -11 3 -14 6 -6 3 7 2 16 -1 19 -3 4 -6 -2 -5 -13z"/>
<path d="M3640 8730 c0 -5 5 -10 10 -10 16 0 12 -50 -5 -56 -8 -4 -12 -10 -9
-16 7 -11 34 9 34 25 0 6 7 19 16 28 16 17 15 19 -10 29 -34 12 -36 12 -36 0z"/>
<path d="M3780 8550 c0 -5 5 -10 10 -10 6 0 10 5 10 10 0 6 -4 10 -10 10 -5 0
-10 -4 -10 -10z"/>
<path d="M3807 8430 c-3 -11 -1 -20 4 -20 5 0 9 9 9 20 0 11 -2 20 -4 20 -2 0
-6 -9 -9 -20z"/>
<path d="M3953 8413 c-7 -3 -13 -14 -13 -26 0 -21 0 -21 16 1 17 25 16 32 -3
25z"/>
<path d="M3846 8388 c3 -4 11 -5 19 -1 21 7 19 12 -4 10 -11 0 -18 -5 -15 -9z"/>
<path d="M3967 8371 c-6 -24 3 -33 21 -22 9 5 9 11 -1 26 -13 17 -14 17 -20
-4z"/>
<path d="M4016 8363 c-6 -14 -5 -15 5 -6 7 7 10 15 7 18 -3 3 -9 -2 -12 -12z"/>
<path d="M3860 8338 c0 -11 28 -10 35 1 3 6 -4 9 -15 8 -11 -1 -20 -5 -20 -9z"/>
<path d="M3995 8330 c-3 -5 -1 -10 4 -10 6 0 11 5 11 10 0 6 -2 10 -4 10 -3 0
-8 -4 -11 -10z"/>
<path d="M3425 8641 c42 -17 75 -21 75 -11 0 6 -4 8 -10 5 -5 -3 -10 -1 -10 4
0 6 -17 11 -37 10 -29 0 -33 -2 -18 -8z"/>
<path d="M3500 8600 c0 -5 5 -10 11 -10 5 0 7 5 4 10 -3 6 -8 10 -11 10 -2 0
-4 -4 -4 -10z"/>
<path d="M2740 8322 c0 -4 9 -8 20 -8 11 0 20 4 20 8 0 4 -9 8 -20 8 -11 0
-20 -4 -20 -8z"/>
<path d="M2682 8278 c5 -15 28 -23 28 -10 0 5 -7 13 -16 16 -10 4 -14 1 -12
-6z"/>
<path d="M2723 8276 c4 -12 47 -18 47 -6 0 4 -11 10 -25 13 -16 3 -24 0 -22
-7z"/>
<path d="M2785 8270 c3 -5 8 -10 11 -10 2 0 4 5 4 10 0 6 -5 10 -11 10 -5 0
-7 -4 -4 -10z"/>
<path d="M2742 8168 c4 -11 19 -13 59 -9 22 2 -1 17 -31 19 -22 2 -30 -2 -28
-10z"/>
<path d="M2614 7986 c-8 -20 28 -137 44 -143 20 -8 29 7 10 18 -19 11 -52 103
-44 124 3 8 3 15 0 15 -2 0 -7 -6 -10 -14z"/>
<path d="M2640 7972 c0 -4 17 -6 38 -4 58 5 62 10 10 11 -27 1 -48 -3 -48 -7z"/>
<path d="M2770 7915 c0 -5 5 -17 10 -25 5 -8 10 -10 10 -5 0 6 -5 17 -10 25
-5 8 -10 11 -10 5z"/>
<path d="M2476 7805 c-9 -26 -7 -32 5 -12 6 10 9 21 6 23 -2 3 -7 -2 -11 -11z"/>
<path d="M2374 7628 c-5 -7 -3 -8 6 -3 10 6 12 1 7 -25 -6 -28 -5 -31 8 -20
19 16 20 60 1 60 -8 0 -18 -5 -22 -12z"/>
<path d="M2291 7605 c-1 -21 15 -52 23 -45 2 3 -2 19 -9 35 -10 23 -14 25 -14
10z"/>
<path d="M2390 7550 c0 -5 5 -10 11 -10 5 0 7 5 4 10 -3 6 -8 10 -11 10 -2 0
-4 -4 -4 -10z"/>
<path d="M2912 6833 c-12 -22 -42 -155 -42 -182 0 -12 7 -21 15 -21 8 0 15 1
15 3 0 1 11 47 25 101 13 55 22 103 19 108 -8 13 -23 9 -32 -9z m12 -47 c-3
-15 -8 -25 -11 -23 -2 3 -1 17 3 31 3 15 8 25 11 23 2 -3 1 -17 -3 -31z m-17
-58 c-3 -8 -6 -5 -6 6 -1 11 2 17 5 13 3 -3 4 -12 1 -19z"/>
<path d="M3015 6758 c-18 -62 -18 -73 0 -33 22 48 17 13 -7 -52 -13 -33 -27
-61 -33 -62 -14 -1 -13 -23 1 -28 15 -5 64 118 71 179 8 65 -12 63 -32 -4z"/>
<path d="M2226 5825 c4 -8 10 -15 15 -15 4 0 6 7 3 15 -4 8 -10 15 -15 15 -4
0 -6 -7 -3 -15z"/>
<path d="M2245 5791 c-3 -5 -1 -12 5 -16 5 -3 10 1 10 9 0 18 -6 21 -15 7z"/>
<path d="M2178 5732 c2 -18 8 -29 13 -26 12 7 11 17 -4 39 -13 16 -14 15 -9
-13z"/>
<path d="M2326 5701 c-4 -7 -5 -15 -2 -18 9 -9 19 4 14 18 -4 11 -6 11 -12 0z"/>
<path d="M2290 5661 c0 -6 5 -13 10 -16 6 -3 10 1 10 9 0 9 -4 16 -10 16 -5 0
-10 -4 -10 -9z"/>
<path d="M2220 5624 c0 -10 5 -26 10 -34 8 -11 9 -7 4 15 -8 37 -14 45 -14 19z"/>
<path d="M2195 5520 c-3 -5 -1 -10 4 -10 6 0 11 5 11 10 0 6 -2 10 -4 10 -3 0
-8 -4 -11 -10z"/>
<path d="M2220 5490 c0 -5 5 -10 11 -10 5 0 7 5 4 10 -3 6 -8 10 -11 10 -2 0
-4 -4 -4 -10z"/>
<path d="M2290 5491 c0 -5 -8 -12 -17 -14 -10 -3 -6 -4 8 -4 18 1 25 6 22 14
-6 15 -13 17 -13 4z"/>
<path d="M2210 5459 c0 -5 5 -7 10 -4 6 3 10 8 10 11 0 2 -4 4 -10 4 -5 0 -10
-5 -10 -11z"/>
<path d="M2325 5431 c-3 -6 -1 -11 6 -11 6 0 18 -8 25 -17 7 -10 14 -13 14 -7
0 18 -37 47 -45 35z"/>
<path d="M2195 5360 c-3 -5 -1 -10 4 -10 6 0 11 5 11 10 0 6 -2 10 -4 10 -3 0
-8 -4 -11 -10z"/>
<path d="M1965 5040 c3 -5 8 -10 11 -10 2 0 4 5 4 10 0 6 -5 10 -11 10 -5 0
-7 -4 -4 -10z"/>
<path d="M2060 5035 c0 -8 2 -15 4 -15 2 0 6 7 10 15 3 8 1 15 -4 15 -6 0 -10
-7 -10 -15z"/>
<path d="M2016 5005 c-3 -8 -1 -15 4 -15 6 0 10 7 10 15 0 8 -2 15 -4 15 -2 0
-6 -7 -10 -15z"/>
<path d="M2040 5000 c0 -5 5 -10 10 -10 6 0 10 5 10 10 0 6 -4 10 -10 10 -5 0
-10 -4 -10 -10z"/>
<path d="M2260 4916 c0 -9 -5 -16 -12 -16 -6 0 -9 -2 -6 -5 3 -3 15 -2 27 3
20 7 21 9 7 21 -14 11 -16 11 -16 -3z"/>
<path d="M2033 4913 c-26 -10 -12 -18 32 -18 25 0 45 3 45 8 0 4 0 10 0 15 0
4 -5 0 -10 -8 -6 -10 -10 -11 -10 -2 0 12 -33 15 -57 5z"/>
<path d="M2351 4804 c0 -11 3 -14 6 -6 3 7 2 16 -1 19 -3 4 -6 -2 -5 -13z"/>
<path d="M2335 4750 c-3 -5 -1 -10 4 -10 6 0 11 5 11 10 0 6 -2 10 -4 10 -3 0
-8 -4 -11 -10z"/>
<path d="M2186 4705 c-11 -8 -15 -15 -10 -15 6 0 19 7 30 15 10 8 15 14 9 14
-5 0 -19 -6 -29 -14z"/>
<path d="M1605 4830 c-3 -5 -1 -10 4 -10 6 0 11 5 11 10 0 6 -2 10 -4 10 -3 0
-8 -4 -11 -10z"/>
<path d="M2145 4370 c3 -5 8 -10 11 -10 2 0 4 5 4 10 0 6 -5 10 -11 10 -5 0
-7 -4 -4 -10z"/>
<path d="M2385 4120 c-3 -5 -1 -10 4 -10 6 0 11 5 11 10 0 6 -2 10 -4 10 -3 0
-8 -4 -11 -10z"/>
<path d="M2600 3919 c0 -5 5 -7 10 -4 6 3 10 8 10 11 0 2 -4 4 -10 4 -5 0 -10
-5 -10 -11z"/>
<path d="M2646 3858 c-8 -33 -8 -38 7 -38 6 0 12 13 13 30 1 35 -11 40 -20 8z"/>
<path d="M2585 3830 c-19 -8 -19 -9 2 -9 12 -1 25 4 28 9 7 12 -2 12 -30 0z"/>
<path d="M2598 3793 c6 -2 18 -2 25 0 6 3 1 5 -13 5 -14 0 -19 -2 -12 -5z"/>
<path d="M2415 1020 c3 -5 8 -10 11 -10 2 0 4 5 4 10 0 6 -5 10 -11 10 -5 0
-7 -4 -4 -10z"/>
<path d="M2390 501 c0 -5 5 -13 10 -16 6 -3 10 -2 10 4 0 5 -4 13 -10 16 -5 3
-10 2 -10 -4z"/>
<path d="M2436 501 c-3 -4 3 -15 14 -24 15 -13 21 -13 30 -2 6 7 7 15 3 18
-22 11 -43 15 -47 8z"/>
<path d="M2310 461 c0 -15 -5 -21 -17 -19 -10 2 -18 -3 -17 -9 3 -39 5 -42 19
-36 10 3 15 1 13 -8 -2 -7 5 -15 16 -17 17 -4 18 -3 2 20 -9 12 -22 23 -28 23
-6 0 -13 6 -16 13 -2 7 2 10 12 6 10 -4 18 0 22 10 6 14 11 13 40 -9 20 -15
35 -21 39 -15 4 6 1 9 -6 8 -7 -2 -15 6 -17 17 -2 11 -9 25 -14 30 -8 7 -9 5
-5 -8 6 -16 5 -16 -18 -1 -24 16 -25 15 -25 -5z"/>
<path d="M2436 390 c-15 -5 -16 -9 -7 -14 7 -5 18 -3 24 3 14 14 6 20 -17 11z"/>
<path d="M2350 380 c0 -5 5 -10 11 -10 5 0 7 5 4 10 -3 6 -8 10 -11 10 -2 0
-4 -4 -4 -10z"/>
<path d="M2385 379 c-4 -6 -5 -12 -2 -15 2 -3 7 2 10 11 7 17 1 20 -8 4z"/>
<path d="M2340 349 c0 -6 -6 -9 -13 -6 -7 3 -13 -3 -13 -14 0 -10 2 -16 5 -14
2 3 11 -1 20 -7 13 -10 14 -10 3 2 -10 12 -8 16 9 26 18 9 19 12 5 17 -9 4
-16 2 -16 -4z"/>
<path d="M2366 318 c3 -5 10 -6 15 -3 13 9 11 12 -6 12 -8 0 -12 -4 -9 -9z"/>
<path d="M3957 11273 c-4 -3 -7 -16 -6 -27 0 -19 1 -19 10 3 10 24 8 36 -4 24z"/>
<path d="M3952 11185 c0 -16 2 -22 5 -12 2 9 2 23 0 30 -3 6 -5 -1 -5 -18z"/>
<path d="M3541 10586 c-21 -23 -23 -30 -16 -96 6 -55 4 -70 -6 -68 -7 2 -15
-5 -17 -16 -5 -23 9 -135 15 -119 4 11 41 -2 103 -37 120 -67 134 -72 147 -54
7 10 13 20 13 23 -1 11 -154 79 -192 85 -21 4 -38 11 -38 16 0 4 -3 15 -6 24
-4 11 0 16 12 16 18 1 18 1 -1 15 -18 14 -18 16 -2 33 16 15 19 15 27 2 7 -11
9 -7 5 15 -14 99 -14 109 2 128 13 13 14 22 7 34 -16 26 -28 25 -53 -1z"/>
<path d="M3268 10493 c-29 -34 -30 -48 -2 -21 15 15 26 30 23 33 -3 3 -13 -3
-21 -12z"/>
<path d="M980 10474 c0 -8 5 -12 10 -9 6 4 8 11 5 16 -9 14 -15 11 -15 -7z"/>
<path d="M3133 10438 c-24 -5 -43 -14 -43 -20 0 -6 7 -7 18 -3 9 4 29 10 45
13 15 2 30 8 33 13 6 10 4 10 -53 -3z"/>
<path d="M796 10171 c-4 -6 -5 -24 -2 -37 5 -17 3 -23 -4 -19 -5 3 -10 2 -10
-3 0 -17 13 -22 27 -10 12 9 13 7 8 -14 -4 -15 -2 -29 5 -33 7 -5 10 7 9 37
-1 23 2 52 6 62 7 16 5 18 -8 13 -8 -3 -17 -1 -20 6 -2 8 -6 7 -11 -2z"/>
<path d="M3555 10110 c-3 -5 -1 -10 4 -10 6 0 11 5 11 10 0 6 -2 10 -4 10 -3
0 -8 -4 -11 -10z"/>
<path d="M3723 10017 c-7 -23 -8 -46 -4 -50 5 -4 11 13 15 39 8 60 3 65 -11
11z"/>
<path d="M3392 10030 c0 -14 2 -19 5 -12 2 6 2 18 0 25 -3 6 -5 1 -5 -13z"/>
<path d="M812 9983 c-7 -12 -7 -25 -1 -34 7 -11 9 -11 9 0 0 7 6 11 15 8 22
-9 25 6 5 26 -18 18 -19 18 -28 0z"/>
<path d="M3630 9720 c0 -5 7 -10 15 -10 8 0 15 -5 15 -12 0 -6 2 -9 5 -6 3 3
3 13 -1 22 -7 17 -34 22 -34 6z"/>
<path d="M3521 9574 c0 -11 3 -14 6 -6 3 7 2 16 -1 19 -3 4 -6 -2 -5 -13z"/>
<path d="M3671 9554 c0 -11 3 -14 6 -6 3 7 2 16 -1 19 -3 4 -6 -2 -5 -13z"/>
<path d="M3685 9510 c-4 -6 -9 -8 -13 -6 -4 2 -13 -3 -21 -11 -12 -13 -11 -14
10 -8 13 4 21 4 17 0 -4 -5 -2 -15 5 -23 10 -13 9 -14 -12 -2 l-24 12 22 -31
c12 -17 18 -31 12 -31 -6 0 -15 -9 -21 -20 -9 -16 -8 -18 5 -14 8 4 15 1 15
-5 0 -8 6 -8 19 1 11 7 18 16 15 20 -3 4 2 5 10 2 9 -3 16 -1 16 5 0 6 7 11
15 11 8 0 15 6 15 13 -1 19 -39 94 -40 77 0 -12 -3 -11 -11 3 -11 19 -25 22
-34 7z"/>
<path d="M3571 9354 c0 -11 3 -14 6 -6 3 7 2 16 -1 19 -3 4 -6 -2 -5 -13z"/>
<path d="M3650 9350 c-9 -6 -10 -10 -3 -10 6 0 15 5 18 10 8 12 4 12 -15 0z"/>
<path d="M3620 9271 c0 -6 4 -13 10 -16 6 -3 7 1 4 9 -7 18 -14 21 -14 7z"/>
<path d="M1273 8891 c1 -22 12 -28 21 -12 3 5 -1 14 -9 21 -11 9 -14 8 -12 -9z"/>
<path d="M4160 8004 c0 -6 7 -19 16 -30 14 -18 14 -18 3 6 -14 31 -19 36 -19
24z"/>
<path d="M3836 7975 c-3 -8 -1 -15 4 -15 6 0 10 7 10 15 0 8 -2 15 -4 15 -2 0
-6 -7 -10 -15z"/>
<path d="M4200 7936 c0 -10 60 -126 65 -126 3 0 -9 28 -26 63 -33 65 -39 75
-39 63z"/>
<path d="M1095 7509 c-10 -15 3 -25 16 -12 7 7 7 13 1 17 -6 3 -14 1 -17 -5z"/>
<path d="M3143 6418 c-4 -7 -6 -22 -5 -33 2 -16 1 -17 -7 -6 -7 11 -9 5 -8
-20 2 -25 9 -37 26 -47 13 -7 26 -11 28 -9 2 2 5 32 7 65 3 54 1 62 -15 62
-10 0 -21 -6 -26 -12z"/>
<path d="M2990 5641 c0 -6 5 -13 10 -16 6 -3 10 1 10 9 0 9 -4 16 -10 16 -5 0
-10 -4 -10 -9z"/>
<path d="M2770 4530 c0 -5 5 -10 11 -10 5 0 7 5 4 10 -3 6 -8 10 -11 10 -2 0
-4 -4 -4 -10z"/>
<path d="M2858 4276 c-19 -14 -23 -26 -10 -26 4 0 13 9 20 20 14 23 13 24 -10
6z"/>
<path d="M2830 3810 c-9 -6 -10 -10 -3 -10 6 0 15 5 18 10 8 12 4 12 -15 0z"/>
<path d="M2003 2226 c12 -18 23 -32 25 -31 6 6 -29 65 -38 65 -5 0 1 -15 13
-34z"/>
<path d="M246 2162 c-3 -5 1 -9 9 -9 8 0 12 4 9 9 -3 4 -7 8 -9 8 -2 0 -6 -4
-9 -8z"/>
<path d="M2890 495 c7 -8 18 -15 24 -15 6 0 4 5 -4 11 -11 8 -8 9 15 5 22 -5
26 -4 15 4 -8 5 -26 10 -39 10 -20 0 -21 -2 -11 -15z"/>
<path d="M2950 480 c-9 -6 -10 -10 -3 -10 6 0 15 5 18 10 8 12 4 12 -15 0z"/>
<path d="M2886 459 c6 -11 31 -12 37 -1 3 4 -6 8 -19 8 -13 1 -21 -2 -18 -7z"/>
</g>
</svg>
